{"glyphs":{"0":{"ha":910,"x_min":49,"x_max":861,"o":"m 454 -17 q 242 46 333 -17 q 99 223 150 108 q 49 486 49 338 q 99 749 49 635 q 242 926 150 864 q 454 989 333 989 q 667 926 575 989 q 810 749 760 864 q 861 486 861 635 q 810 223 861 338 q 667 46 760 108 q 454 -17 575 -17 m 454 194 q 572 270 531 194 q 614 486 614 346 q 572 702 614 626 q 454 778 531 778 q 336 702 376 778 q 296 486 296 626 q 336 270 296 346 q 454 194 376 194 z "},"1":{"ha":540,"x_min":21,"x_max":457,"o":"m 231 715 q 21 619 118 639 l 21 839 q 147 890 79 854 q 272 972 214 926 l 457 972 l 457 0 l 231 0 l 231 715 z "},"2":{"ha":799,"x_min":35,"x_max":743,"o":"m 46 194 l 361 463 q 496 667 496 578 q 465 747 496 717 q 386 778 435 778 q 302 735 333 778 q 271 618 271 692 l 272 593 l 38 608 q 35 647 35 633 q 83 819 35 742 q 211 943 131 897 q 386 989 292 989 q 572 948 490 989 q 698 833 653 907 q 743 667 743 760 q 685 485 743 574 q 504 300 626 396 l 392 211 l 742 211 l 742 0 l 47 0 l 46 194 z "},"3":{"ha":828,"x_min":35,"x_max":779,"o":"m 403 -17 q 222 21 303 -17 q 92 126 142 58 q 35 281 43 193 l 256 318 q 307 229 267 264 q 404 194 347 194 q 497 231 460 194 q 533 324 533 268 q 499 413 533 379 q 407 447 464 447 q 351 438 382 447 q 297 413 319 429 l 206 576 l 421 761 l 61 761 l 61 972 l 713 972 l 713 778 l 499 600 q 702 522 625 599 q 779 315 779 446 q 732 143 779 218 q 599 26 685 68 q 403 -17 514 -17 z "},"4":{"ha":867,"x_min":28,"x_max":832,"o":"m 479 169 l 28 169 l 28 381 l 469 972 l 728 972 l 728 381 l 832 381 l 832 169 l 728 169 l 728 0 l 479 0 l 479 169 m 479 381 l 479 669 l 278 381 l 479 381 z "},"5":{"ha":792,"x_min":35,"x_max":750,"o":"m 393 -17 q 154 58 251 -17 q 35 258 57 133 l 257 299 q 303 222 269 250 q 383 194 336 194 q 470 233 438 194 q 503 329 503 271 q 468 422 503 388 q 375 457 433 457 q 297 438 331 457 q 233 378 264 419 l 53 417 l 136 972 l 675 972 l 675 761 l 315 761 l 288 586 q 358 629 315 614 q 447 644 400 644 q 603 605 535 644 q 711 494 672 565 q 750 329 750 422 q 706 149 750 228 q 581 27 661 71 q 393 -17 500 -17 z "},"6":{"ha":850,"x_min":49,"x_max":808,"o":"m 490 658 q 648 618 578 658 q 758 501 718 578 q 799 319 799 424 q 753 152 799 229 q 625 29 708 75 q 435 -17 542 -17 q 234 44 322 -17 q 97 211 146 104 q 49 451 49 318 q 114 748 49 626 q 284 929 179 869 q 506 989 389 989 q 665 963 588 989 q 808 888 743 938 l 692 707 q 612 758 658 738 q 514 778 565 778 q 368 730 425 778 q 289 593 311 682 q 490 658 374 658 m 560 342 q 523 431 560 397 q 438 465 486 465 q 347 443 383 465 q 281 375 310 421 q 432 194 308 194 q 524 237 488 194 q 560 342 560 279 z "},"7":{"ha":771,"x_min":35,"x_max":736,"o":"m 126 0 q 242 363 149 167 q 482 761 335 558 l 35 761 l 35 972 l 736 972 l 736 761 q 375 0 396 265 l 126 0 z "},"8":{"ha":826,"x_min":42,"x_max":785,"o":"m 414 -17 q 228 21 314 -17 q 92 128 143 58 q 42 289 42 197 q 87 433 42 369 q 208 524 132 497 q 120 603 153 550 q 88 719 88 657 q 128 858 88 797 q 244 954 169 919 q 414 989 318 989 q 583 954 508 989 q 699 858 657 919 q 740 719 740 797 q 706 602 740 656 q 617 524 672 549 q 739 435 693 499 q 785 289 785 371 q 734 128 785 197 q 598 21 683 58 q 414 -17 513 -17 m 414 601 q 488 640 461 613 q 514 710 514 668 q 487 780 514 753 q 414 807 460 807 q 340 780 368 807 q 313 710 313 753 q 340 640 313 668 q 414 601 367 613 m 414 181 q 503 212 471 181 q 536 294 536 243 q 504 376 536 344 q 414 419 472 408 q 323 376 357 408 q 289 294 289 343 q 324 213 289 244 q 414 181 358 181 z "},"9":{"ha":850,"x_min":42,"x_max":801,"o":"m 415 989 q 616 928 528 989 q 753 761 704 868 q 801 521 801 654 q 736 224 801 346 q 566 43 671 103 q 344 -17 461 -17 q 185 9 263 -17 q 42 85 107 35 l 158 265 q 238 215 192 235 q 336 194 285 194 q 482 242 425 194 q 561 379 539 290 q 360 314 476 314 q 202 354 272 314 q 92 472 132 394 q 51 653 51 549 q 97 820 51 743 q 225 943 142 897 q 415 989 308 989 m 413 507 q 503 529 467 507 q 569 597 540 551 q 418 778 543 778 q 326 735 363 778 q 290 631 290 693 q 327 541 290 575 q 413 507 364 507 z "},"\r":{"ha":331,"x_min":0,"x_max":0,"o":""}," ":{"ha":331,"x_min":0,"x_max":0,"o":""},"A":{"ha":975,"x_min":7,"x_max":968,"o":"m 649 185 l 328 185 l 264 0 l 7 0 l 369 972 l 606 972 l 968 0 l 713 0 l 649 185 m 578 390 l 488 649 l 399 390 l 578 390 z "},"Á":{"ha":975,"x_min":7,"x_max":968,"o":"m 649 185 l 328 185 l 264 0 l 7 0 l 369 972 l 606 972 l 968 0 l 713 0 l 649 185 m 578 390 l 488 649 l 399 390 l 578 390 m 460 1272 l 717 1272 l 544 1067 l 385 1067 l 460 1272 z "},"Ă":{"ha":975,"x_min":7,"x_max":968,"o":"m 649 185 l 328 185 l 264 0 l 7 0 l 369 972 l 606 972 l 968 0 l 713 0 l 649 185 m 578 390 l 488 649 l 399 390 l 578 390 m 488 1063 q 340 1119 399 1063 q 282 1261 282 1175 l 443 1261 q 488 1203 443 1203 q 522 1218 510 1203 q 533 1261 533 1233 l 694 1261 q 635 1119 694 1175 q 488 1063 576 1063 z "},"Â":{"ha":975,"x_min":7,"x_max":968,"o":"m 649 185 l 328 185 l 264 0 l 7 0 l 369 972 l 606 972 l 968 0 l 713 0 l 649 185 m 578 390 l 488 649 l 399 390 l 578 390 m 589 1272 l 744 1067 l 585 1067 l 489 1158 l 393 1067 l 233 1067 l 388 1272 l 589 1272 z "},"Ä":{"ha":975,"x_min":7,"x_max":968,"o":"m 649 185 l 328 185 l 264 0 l 7 0 l 369 972 l 606 972 l 968 0 l 713 0 l 649 185 m 578 390 l 488 649 l 399 390 l 578 390 m 342 1067 q 258 1099 290 1067 q 226 1181 226 1132 q 258 1263 226 1231 q 342 1294 290 1294 q 427 1263 394 1294 q 460 1181 460 1231 q 427 1099 460 1131 q 342 1067 394 1067 m 632 1067 q 549 1099 581 1067 q 517 1181 517 1132 q 549 1263 517 1231 q 632 1294 581 1294 q 717 1262 683 1294 q 750 1181 750 1229 q 717 1099 750 1132 q 632 1067 683 1067 z "},"À":{"ha":975,"x_min":7,"x_max":968,"o":"m 649 185 l 328 185 l 264 0 l 7 0 l 369 972 l 606 972 l 968 0 l 713 0 l 649 185 m 578 390 l 488 649 l 399 390 l 578 390 m 421 1067 l 249 1272 l 506 1272 l 581 1067 l 421 1067 z "},"Ā":{"ha":975,"x_min":7,"x_max":968,"o":"m 649 185 l 328 185 l 264 0 l 7 0 l 369 972 l 606 972 l 968 0 l 713 0 l 649 185 m 578 390 l 488 649 l 399 390 l 578 390 m 289 1261 l 689 1261 l 689 1092 l 289 1092 l 289 1261 z "},"Ą":{"ha":975,"x_min":7,"x_max":1025,"o":"m 1025 -253 q 991 -260 1017 -257 q 939 -264 965 -264 q 811 -224 860 -264 q 763 -119 763 -185 q 775 -58 763 -90 q 808 0 788 -26 l 713 0 l 649 185 l 328 185 l 264 0 l 7 0 l 369 972 l 606 972 l 968 0 q 942 -37 951 -21 q 932 -72 932 -53 q 944 -103 932 -93 q 978 -114 957 -114 q 1006 -110 997 -114 l 1025 -253 m 578 390 l 488 649 l 399 390 l 578 390 z "},"Å":{"ha":975,"x_min":7,"x_max":968,"o":"m 649 185 l 328 185 l 264 0 l 7 0 l 369 972 l 606 972 l 968 0 l 713 0 l 649 185 m 578 390 l 488 649 l 399 390 l 578 390 m 488 1036 q 365 1083 414 1036 q 317 1199 317 1129 q 365 1315 317 1268 q 488 1361 414 1361 q 611 1315 563 1361 q 660 1199 660 1268 q 611 1083 660 1129 q 488 1036 563 1036 m 488 1143 q 531 1158 514 1143 q 547 1199 547 1174 q 531 1239 547 1224 q 488 1254 514 1254 q 446 1239 463 1254 q 429 1199 429 1224 q 446 1158 429 1174 q 488 1143 463 1143 z "},"Ǻ":{"ha":975,"x_min":7,"x_max":968,"o":"m 488 1036 q 365 1083 414 1036 q 317 1199 317 1129 q 341 1286 317 1247 q 407 1344 365 1325 l 479 1540 l 736 1540 l 571 1343 q 636 1285 613 1324 q 660 1199 660 1246 q 611 1083 660 1129 q 488 1036 563 1036 m 488 1143 q 531 1158 514 1143 q 547 1199 547 1174 q 531 1239 547 1224 q 488 1254 514 1254 q 446 1239 463 1254 q 429 1199 429 1224 q 446 1158 429 1174 q 488 1143 463 1143 m 649 185 l 328 185 l 264 0 l 7 0 l 369 972 l 606 972 l 968 0 l 713 0 l 649 185 m 578 390 l 488 649 l 399 390 l 578 390 z "},"Ã":{"ha":975,"x_min":7,"x_max":968,"o":"m 649 185 l 328 185 l 264 0 l 7 0 l 369 972 l 606 972 l 968 0 l 713 0 l 649 185 m 578 390 l 488 649 l 399 390 l 578 390 m 519 1254 q 543 1240 529 1249 q 566 1228 557 1231 q 586 1225 575 1225 q 632 1299 624 1225 l 788 1276 q 728 1124 785 1182 q 586 1065 672 1065 q 458 1103 519 1065 q 417 1127 428 1122 q 390 1132 407 1132 q 343 1060 353 1132 l 189 1082 q 248 1233 192 1175 q 390 1292 304 1292 q 519 1254 454 1292 z "},"Æ":{"ha":1410,"x_min":7,"x_max":1361,"o":"m 1361 211 l 1361 0 l 661 0 l 661 193 l 375 193 l 281 0 l 7 0 l 494 972 l 1346 972 l 1346 761 l 910 761 l 910 601 l 1253 601 l 1253 390 l 910 390 l 910 211 l 1361 211 m 661 404 l 661 781 l 478 404 l 661 404 z "},"Ǽ":{"ha":1410,"x_min":7,"x_max":1361,"o":"m 1361 211 l 1361 0 l 661 0 l 661 193 l 375 193 l 281 0 l 7 0 l 494 972 l 1346 972 l 1346 761 l 910 761 l 910 601 l 1253 601 l 1253 390 l 910 390 l 910 211 l 1361 211 m 661 404 l 661 781 l 478 404 l 661 404 m 676 1272 l 933 1272 l 761 1067 l 601 1067 l 676 1272 z "},"B":{"ha":906,"x_min":83,"x_max":857,"o":"m 83 972 l 492 972 q 717 906 628 972 q 806 722 806 840 q 774 607 806 658 q 697 531 742 556 q 812 441 767 501 q 857 293 857 381 q 758 77 857 154 q 499 0 658 0 l 83 0 l 83 972 m 464 600 q 574 685 574 600 q 458 769 574 769 l 332 769 l 332 600 l 464 600 m 481 204 q 592 229 557 204 q 626 304 626 254 q 592 382 626 356 q 481 408 557 408 l 332 408 l 332 204 l 481 204 z "},"C":{"ha":1017,"x_min":49,"x_max":969,"o":"m 531 -17 q 286 42 396 -17 q 113 214 176 100 q 49 486 49 328 q 114 758 49 644 q 289 931 179 872 q 531 989 399 989 q 825 899 714 989 q 969 644 936 810 l 725 594 q 656 726 711 676 q 529 775 601 775 q 413 742 465 775 q 328 643 360 708 q 297 486 297 578 q 328 329 297 394 q 413 231 360 264 q 529 197 465 197 q 653 240 601 197 q 717 356 704 283 l 967 299 q 819 67 935 150 q 531 -17 703 -17 z "},"Ć":{"ha":1017,"x_min":49,"x_max":969,"o":"m 531 -17 q 286 42 396 -17 q 113 214 176 100 q 49 486 49 328 q 114 758 49 644 q 289 931 179 872 q 531 989 399 989 q 825 899 714 989 q 969 644 936 810 l 725 594 q 656 726 711 676 q 529 775 601 775 q 413 742 465 775 q 328 643 360 708 q 297 486 297 578 q 328 329 297 394 q 413 231 360 264 q 529 197 465 197 q 653 240 601 197 q 717 356 704 283 l 967 299 q 819 67 935 150 q 531 -17 703 -17 m 488 1272 l 744 1272 l 572 1067 l 413 1067 l 488 1272 z "},"Č":{"ha":1017,"x_min":49,"x_max":969,"o":"m 531 -17 q 286 42 396 -17 q 113 214 176 100 q 49 486 49 328 q 114 758 49 644 q 289 931 179 872 q 531 989 399 989 q 825 899 714 989 q 969 644 936 810 l 725 594 q 656 726 711 676 q 529 775 601 775 q 413 742 465 775 q 328 643 360 708 q 297 486 297 578 q 328 329 297 394 q 413 231 360 264 q 529 197 465 197 q 653 240 601 197 q 717 356 704 283 l 967 299 q 819 67 935 150 q 531 -17 703 -17 m 261 1272 l 421 1272 l 517 1181 l 613 1272 l 772 1272 l 617 1067 l 415 1067 l 261 1272 z "},"Ç":{"ha":1017,"x_min":49,"x_max":969,"o":"m 529 197 q 653 240 601 197 q 717 356 704 283 l 967 299 q 847 90 939 171 q 617 -11 756 8 l 543 -206 l 286 -206 l 450 -11 q 244 68 335 6 q 101 238 153 131 q 49 486 49 344 q 114 758 49 644 q 289 931 179 872 q 531 989 399 989 q 825 899 714 989 q 969 644 936 810 l 725 594 q 656 726 711 676 q 529 775 601 775 q 413 742 465 775 q 328 643 360 708 q 297 486 297 578 q 328 329 297 394 q 413 231 360 264 q 529 197 465 197 z "},"Ĉ":{"ha":1017,"x_min":49,"x_max":969,"o":"m 531 -17 q 286 42 396 -17 q 113 214 176 100 q 49 486 49 328 q 114 758 49 644 q 289 931 179 872 q 531 989 399 989 q 825 899 714 989 q 969 644 936 810 l 725 594 q 656 726 711 676 q 529 775 601 775 q 413 742 465 775 q 328 643 360 708 q 297 486 297 578 q 328 329 297 394 q 413 231 360 264 q 529 197 465 197 q 653 240 601 197 q 717 356 704 283 l 967 299 q 819 67 935 150 q 531 -17 703 -17 m 617 1272 l 772 1067 l 613 1067 l 517 1158 l 421 1067 l 261 1067 l 415 1272 l 617 1272 z "},"Ċ":{"ha":1017,"x_min":49,"x_max":969,"o":"m 531 -17 q 286 42 396 -17 q 113 214 176 100 q 49 486 49 328 q 114 758 49 644 q 289 931 179 872 q 531 989 399 989 q 825 899 714 989 q 969 644 936 810 l 725 594 q 656 726 711 676 q 529 775 601 775 q 413 742 465 775 q 328 643 360 708 q 297 486 297 578 q 328 329 297 394 q 413 231 360 264 q 529 197 465 197 q 653 240 601 197 q 717 356 704 283 l 967 299 q 819 67 935 150 q 531 -17 703 -17 m 515 1057 q 420 1096 458 1057 q 382 1190 382 1135 q 420 1283 382 1244 q 515 1322 458 1322 q 613 1283 574 1322 q 651 1190 651 1244 q 613 1096 651 1135 q 515 1057 574 1057 z "},"D":{"ha":986,"x_min":83,"x_max":938,"o":"m 83 972 l 428 972 q 682 920 567 972 q 867 758 797 868 q 938 486 938 649 q 867 214 938 324 q 682 52 797 104 q 428 0 567 0 l 83 0 l 83 972 m 399 211 q 607 275 525 211 q 689 486 689 339 q 607 697 689 633 q 399 761 525 761 l 326 761 l 326 211 l 399 211 z "},"Ð":{"ha":993,"x_min":0,"x_max":944,"o":"m 435 972 q 689 920 574 972 q 874 758 804 868 q 944 486 944 649 q 874 214 944 324 q 689 52 804 104 q 435 0 574 0 l 90 0 l 90 411 l 0 411 l 0 561 l 90 561 l 90 972 l 435 972 m 406 211 q 614 275 532 211 q 696 486 696 339 q 614 697 696 633 q 406 761 532 761 l 333 761 l 333 561 l 471 561 l 471 411 l 333 411 l 333 211 l 406 211 z "},"Ď":{"ha":986,"x_min":83,"x_max":938,"o":"m 83 972 l 428 972 q 682 920 567 972 q 867 758 797 868 q 938 486 938 649 q 867 214 938 324 q 682 52 797 104 q 428 0 567 0 l 83 0 l 83 972 m 399 211 q 607 275 525 211 q 689 486 689 339 q 607 697 689 633 q 399 761 525 761 l 326 761 l 326 211 l 399 211 m 181 1272 l 340 1272 l 436 1181 l 532 1272 l 692 1272 l 536 1067 l 335 1067 l 181 1272 z "},"Đ":{"ha":993,"x_min":0,"x_max":944,"o":"m 435 972 q 689 920 574 972 q 874 758 804 868 q 944 486 944 649 q 874 214 944 324 q 689 52 804 104 q 435 0 574 0 l 90 0 l 90 411 l 0 411 l 0 561 l 90 561 l 90 972 l 435 972 m 406 211 q 614 275 532 211 q 696 486 696 339 q 614 697 696 633 q 406 761 532 761 l 333 761 l 333 561 l 471 561 l 471 411 l 333 411 l 333 211 l 406 211 z "},"E":{"ha":832,"x_min":83,"x_max":783,"o":"m 783 211 l 783 0 l 83 0 l 83 972 l 768 972 l 768 761 l 332 761 l 332 601 l 675 601 l 675 390 l 332 390 l 332 211 l 783 211 z "},"É":{"ha":832,"x_min":83,"x_max":783,"o":"m 783 211 l 783 0 l 83 0 l 83 972 l 768 972 l 768 761 l 332 761 l 332 601 l 675 601 l 675 390 l 332 390 l 332 211 l 783 211 m 404 1272 l 661 1272 l 489 1067 l 329 1067 l 404 1272 z "},"Ĕ":{"ha":832,"x_min":83,"x_max":783,"o":"m 783 211 l 783 0 l 83 0 l 83 972 l 768 972 l 768 761 l 332 761 l 332 601 l 675 601 l 675 390 l 332 390 l 332 211 l 783 211 m 432 1063 q 285 1119 343 1063 q 226 1261 226 1175 l 388 1261 q 432 1203 388 1203 q 466 1218 454 1203 q 478 1261 478 1233 l 639 1261 q 580 1119 639 1175 q 432 1063 521 1063 z "},"Ě":{"ha":832,"x_min":83,"x_max":783,"o":"m 783 211 l 783 0 l 83 0 l 83 972 l 768 972 l 768 761 l 332 761 l 332 601 l 675 601 l 675 390 l 332 390 l 332 211 l 783 211 m 178 1272 l 338 1272 l 433 1181 l 529 1272 l 689 1272 l 533 1067 l 332 1067 l 178 1272 z "},"Ê":{"ha":832,"x_min":83,"x_max":783,"o":"m 783 211 l 783 0 l 83 0 l 83 972 l 768 972 l 768 761 l 332 761 l 332 601 l 675 601 l 675 390 l 332 390 l 332 211 l 783 211 m 533 1272 l 689 1067 l 529 1067 l 433 1158 l 338 1067 l 178 1067 l 332 1272 l 533 1272 z "},"Ë":{"ha":832,"x_min":83,"x_max":783,"o":"m 783 211 l 783 0 l 83 0 l 83 972 l 768 972 l 768 761 l 332 761 l 332 601 l 675 601 l 675 390 l 332 390 l 332 211 l 783 211 m 286 1067 q 203 1099 235 1067 q 171 1181 171 1132 q 203 1263 171 1231 q 286 1294 235 1294 q 372 1263 339 1294 q 404 1181 404 1231 q 372 1099 404 1131 q 286 1067 339 1067 m 576 1067 q 493 1099 525 1067 q 461 1181 461 1132 q 493 1263 461 1231 q 576 1294 525 1294 q 661 1262 628 1294 q 694 1181 694 1229 q 661 1099 694 1132 q 576 1067 628 1067 z "},"Ė":{"ha":832,"x_min":83,"x_max":783,"o":"m 783 211 l 783 0 l 83 0 l 83 972 l 768 972 l 768 761 l 332 761 l 332 601 l 675 601 l 675 390 l 332 390 l 332 211 l 783 211 m 432 1057 q 337 1096 375 1057 q 299 1190 299 1135 q 337 1283 299 1244 q 432 1322 375 1322 q 529 1283 490 1322 q 568 1190 568 1244 q 529 1096 568 1135 q 432 1057 490 1057 z "},"È":{"ha":832,"x_min":83,"x_max":783,"o":"m 783 211 l 783 0 l 83 0 l 83 972 l 768 972 l 768 761 l 332 761 l 332 601 l 675 601 l 675 390 l 332 390 l 332 211 l 783 211 m 365 1067 l 193 1272 l 450 1272 l 525 1067 l 365 1067 z "},"Ē":{"ha":832,"x_min":83,"x_max":783,"o":"m 783 211 l 783 0 l 83 0 l 83 972 l 768 972 l 768 761 l 332 761 l 332 601 l 675 601 l 675 390 l 332 390 l 332 211 l 783 211 m 233 1261 l 633 1261 l 633 1092 l 233 1092 l 233 1261 z "},"Ę":{"ha":832,"x_min":83,"x_max":840,"o":"m 840 -253 q 806 -260 832 -257 q 754 -264 781 -264 q 626 -224 675 -264 q 578 -119 578 -185 q 590 -58 578 -90 q 624 0 603 -26 l 83 0 l 83 972 l 768 972 l 768 761 l 332 761 l 332 601 l 675 601 l 675 390 l 332 390 l 332 211 l 783 211 l 783 0 q 757 -37 767 -21 q 747 -72 747 -53 q 760 -103 747 -93 q 793 -114 772 -114 q 821 -110 813 -114 l 840 -253 z "},"F":{"ha":810,"x_min":83,"x_max":775,"o":"m 83 972 l 775 972 l 775 761 l 332 761 l 332 606 l 686 606 l 686 394 l 332 394 l 332 0 l 83 0 l 83 972 z "},"G":{"ha":1086,"x_min":49,"x_max":1031,"o":"m 551 -17 q 291 47 406 -17 q 113 226 176 111 q 49 486 49 340 q 113 747 49 632 q 291 925 176 861 q 551 989 406 989 q 772 945 671 989 q 939 823 874 901 q 1019 644 1004 744 l 771 594 q 692 726 754 676 q 551 775 631 775 q 418 738 476 775 q 328 636 360 701 q 296 486 296 571 q 328 336 296 401 q 418 234 360 271 q 551 197 476 197 q 696 238 638 197 q 764 342 754 278 l 501 342 l 501 538 l 1031 538 l 1031 433 q 970 199 1031 301 q 801 40 910 97 q 551 -17 692 -17 z "},"Ğ":{"ha":1086,"x_min":49,"x_max":1031,"o":"m 551 -17 q 291 47 406 -17 q 113 226 176 111 q 49 486 49 340 q 113 747 49 632 q 291 925 176 861 q 551 989 406 989 q 772 945 671 989 q 939 823 874 901 q 1019 644 1004 744 l 771 594 q 692 726 754 676 q 551 775 631 775 q 418 738 476 775 q 328 636 360 701 q 296 486 296 571 q 328 336 296 401 q 418 234 360 271 q 551 197 476 197 q 696 238 638 197 q 764 342 754 278 l 501 342 l 501 538 l 1031 538 l 1031 433 q 970 199 1031 301 q 801 40 910 97 q 551 -17 692 -17 m 550 1063 q 403 1119 461 1063 q 344 1261 344 1175 l 506 1261 q 550 1203 506 1203 q 584 1218 572 1203 q 596 1261 596 1233 l 757 1261 q 698 1119 757 1175 q 550 1063 639 1063 z "},"Ĝ":{"ha":1086,"x_min":49,"x_max":1031,"o":"m 551 -17 q 291 47 406 -17 q 113 226 176 111 q 49 486 49 340 q 113 747 49 632 q 291 925 176 861 q 551 989 406 989 q 772 945 671 989 q 939 823 874 901 q 1019 644 1004 744 l 771 594 q 692 726 754 676 q 551 775 631 775 q 418 738 476 775 q 328 636 360 701 q 296 486 296 571 q 328 336 296 401 q 418 234 360 271 q 551 197 476 197 q 696 238 638 197 q 764 342 754 278 l 501 342 l 501 538 l 1031 538 l 1031 433 q 970 199 1031 301 q 801 40 910 97 q 551 -17 692 -17 m 651 1272 l 807 1067 l 647 1067 l 551 1158 l 456 1067 l 296 1067 l 450 1272 l 651 1272 z "},"Ģ":{"ha":1086,"x_min":49,"x_max":1031,"o":"m 551 -17 q 291 47 406 -17 q 113 226 176 111 q 49 486 49 340 q 113 747 49 632 q 291 925 176 861 q 551 989 406 989 q 772 945 671 989 q 939 823 874 901 q 1019 644 1004 744 l 771 594 q 692 726 754 676 q 551 775 631 775 q 418 738 476 775 q 328 636 360 701 q 296 486 296 571 q 328 336 296 401 q 418 234 360 271 q 551 197 476 197 q 696 238 638 197 q 764 342 754 278 l 501 342 l 501 538 l 1031 538 l 1031 433 q 970 199 1031 301 q 801 40 910 97 q 551 -17 692 -17 m 431 -58 l 674 -58 l 543 -264 l 383 -264 l 431 -58 z "},"Ġ":{"ha":1086,"x_min":49,"x_max":1031,"o":"m 551 -17 q 291 47 406 -17 q 113 226 176 111 q 49 486 49 340 q 113 747 49 632 q 291 925 176 861 q 551 989 406 989 q 772 945 671 989 q 939 823 874 901 q 1019 644 1004 744 l 771 594 q 692 726 754 676 q 551 775 631 775 q 418 738 476 775 q 328 636 360 701 q 296 486 296 571 q 328 336 296 401 q 418 234 360 271 q 551 197 476 197 q 696 238 638 197 q 764 342 754 278 l 501 342 l 501 538 l 1031 538 l 1031 433 q 970 199 1031 301 q 801 40 910 97 q 551 -17 692 -17 m 550 1057 q 455 1096 493 1057 q 417 1190 417 1135 q 455 1283 417 1244 q 550 1322 493 1322 q 647 1283 608 1322 q 686 1190 686 1244 q 647 1096 686 1135 q 550 1057 608 1057 z "},"H":{"ha":1014,"x_min":83,"x_max":931,"o":"m 931 972 l 931 0 l 682 0 l 682 394 l 332 394 l 332 0 l 83 0 l 83 972 l 332 972 l 332 606 l 682 606 l 682 972 l 931 972 z "},"Ħ":{"ha":1014,"x_min":3,"x_max":1010,"o":"m 1010 700 l 931 700 l 931 0 l 682 0 l 682 394 l 332 394 l 332 0 l 83 0 l 83 700 l 3 700 l 3 878 l 83 878 l 83 972 l 332 972 l 332 878 l 682 878 l 682 972 l 931 972 l 931 878 l 1010 878 l 1010 700 m 682 700 l 332 700 l 332 606 l 682 606 l 682 700 z "},"Ĥ":{"ha":1014,"x_min":83,"x_max":931,"o":"m 931 972 l 931 0 l 682 0 l 682 394 l 332 394 l 332 0 l 83 0 l 83 972 l 332 972 l 332 606 l 682 606 l 682 972 l 931 972 m 607 1272 l 763 1067 l 603 1067 l 507 1158 l 411 1067 l 251 1067 l 406 1272 l 607 1272 z "},"I":{"ha":415,"x_min":83,"x_max":332,"o":"m 83 972 l 332 972 l 332 0 l 83 0 l 83 972 z "},"Ĳ":{"ha":1219,"x_min":83,"x_max":1136,"o":"m 83 972 l 332 972 l 332 0 l 83 0 l 83 972 m 660 326 q 699 228 668 260 q 776 197 731 197 q 858 238 828 197 q 888 367 888 279 l 888 972 l 1136 972 l 1136 353 q 1040 75 1136 167 q 785 -17 944 -17 q 551 58 646 -17 q 436 279 456 133 l 660 326 z "},"Í":{"ha":415,"x_min":83,"x_max":436,"o":"m 83 972 l 332 972 l 332 0 l 83 0 l 83 972 m 179 1272 l 436 1272 l 264 1067 l 104 1067 l 179 1272 z "},"Ĭ":{"ha":415,"x_min":1,"x_max":414,"o":"m 83 972 l 332 972 l 332 0 l 83 0 l 83 972 m 207 1063 q 60 1119 118 1063 q 1 1261 1 1175 l 163 1261 q 207 1203 163 1203 q 241 1218 229 1203 q 253 1261 253 1233 l 414 1261 q 355 1119 414 1175 q 207 1063 296 1063 z "},"Î":{"ha":415,"x_min":-47,"x_max":464,"o":"m 83 972 l 332 972 l 332 0 l 83 0 l 83 972 m 308 1272 l 464 1067 l 304 1067 l 208 1158 l 113 1067 l -47 1067 l 107 1272 l 308 1272 z "},"Ï":{"ha":415,"x_min":-54,"x_max":469,"o":"m 83 972 l 332 972 l 332 0 l 83 0 l 83 972 m 61 1067 q -22 1099 10 1067 q -54 1181 -54 1132 q -22 1263 -54 1231 q 61 1294 10 1294 q 147 1263 114 1294 q 179 1181 179 1231 q 147 1099 179 1131 q 61 1067 114 1067 m 351 1067 q 268 1099 300 1067 q 236 1181 236 1132 q 268 1263 236 1231 q 351 1294 300 1294 q 436 1262 403 1294 q 469 1181 469 1229 q 436 1099 469 1132 q 351 1067 403 1067 z "},"İ":{"ha":415,"x_min":74,"x_max":343,"o":"m 83 972 l 332 972 l 332 0 l 83 0 l 83 972 m 207 1057 q 112 1096 150 1057 q 74 1190 74 1135 q 112 1283 74 1244 q 207 1322 150 1322 q 304 1283 265 1322 q 343 1190 343 1244 q 304 1096 343 1135 q 207 1057 265 1057 z "},"Ì":{"ha":415,"x_min":-32,"x_max":332,"o":"m 83 972 l 332 972 l 332 0 l 83 0 l 83 972 m 140 1067 l -32 1272 l 225 1272 l 300 1067 l 140 1067 z "},"Ī":{"ha":415,"x_min":8,"x_max":408,"o":"m 83 972 l 332 972 l 332 0 l 83 0 l 83 972 m 8 1261 l 408 1261 l 408 1092 l 8 1092 l 8 1261 z "},"Į":{"ha":415,"x_min":83,"x_max":389,"o":"m 389 -253 q 355 -260 381 -257 q 303 -264 329 -264 q 175 -224 224 -264 q 126 -119 126 -185 q 139 -58 126 -90 q 172 0 151 -26 l 83 0 l 83 972 l 332 972 l 332 0 q 306 -37 315 -21 q 296 -72 296 -53 q 308 -103 296 -93 q 342 -114 321 -114 q 369 -110 361 -114 l 389 -253 z "},"Ĩ":{"ha":415,"x_min":-92,"x_max":507,"o":"m 83 972 l 332 972 l 332 0 l 83 0 l 83 972 m 239 1254 q 263 1240 249 1249 q 285 1228 276 1231 q 306 1225 294 1225 q 351 1299 343 1225 l 507 1276 q 448 1124 504 1182 q 306 1065 392 1065 q 178 1103 239 1065 q 137 1127 147 1122 q 110 1132 126 1132 q 63 1060 72 1132 l -92 1082 q -33 1233 -89 1175 q 110 1292 24 1292 q 239 1254 174 1292 z "},"J":{"ha":804,"x_min":21,"x_max":721,"o":"m 244 326 q 284 228 253 260 q 361 197 315 197 q 442 238 413 197 q 472 367 472 279 l 472 972 l 721 972 l 721 353 q 625 75 721 167 q 369 -17 529 -17 q 135 58 231 -17 q 21 279 40 133 l 244 326 z "},"Ĵ":{"ha":804,"x_min":21,"x_max":850,"o":"m 244 326 q 284 228 253 260 q 361 197 315 197 q 442 238 413 197 q 472 367 472 279 l 472 972 l 721 972 l 721 353 q 625 75 721 167 q 369 -17 529 -17 q 135 58 231 -17 q 21 279 40 133 l 244 326 m 694 1272 l 850 1067 l 690 1067 l 594 1158 l 499 1067 l 339 1067 l 493 1272 l 694 1272 z "},"K":{"ha":992,"x_min":83,"x_max":975,"o":"m 367 394 l 332 394 l 332 0 l 83 0 l 83 972 l 332 972 l 332 606 l 367 606 l 663 972 l 963 972 l 572 508 l 975 0 l 650 0 l 367 394 z "},"Ķ":{"ha":992,"x_min":83,"x_max":975,"o":"m 367 394 l 332 394 l 332 0 l 83 0 l 83 972 l 332 972 l 332 606 l 367 606 l 663 972 l 963 972 l 572 508 l 975 0 l 650 0 l 367 394 m 367 -58 l 610 -58 l 479 -264 l 319 -264 l 367 -58 z "},"L":{"ha":796,"x_min":83,"x_max":754,"o":"m 83 972 l 332 972 l 332 211 l 754 211 l 754 0 l 83 0 l 83 972 z "},"Ĺ":{"ha":796,"x_min":83,"x_max":754,"o":"m 83 972 l 332 972 l 332 211 l 754 211 l 754 0 l 83 0 l 83 972 m 158 1272 l 415 1272 l 243 1067 l 83 1067 l 158 1272 z "},"Ľ":{"ha":796,"x_min":83,"x_max":754,"o":"m 83 972 l 332 972 l 332 211 l 754 211 l 754 0 l 83 0 l 83 972 m 443 1079 l 656 1079 l 531 806 l 401 806 l 443 1079 z "},"Ļ":{"ha":796,"x_min":83,"x_max":754,"o":"m 83 972 l 332 972 l 332 211 l 754 211 l 754 0 l 83 0 l 83 972 m 257 -58 l 500 -58 l 369 -264 l 210 -264 l 257 -58 z "},"Ŀ":{"ha":796,"x_min":83,"x_max":754,"o":"m 83 972 l 332 972 l 332 211 l 754 211 l 754 0 l 83 0 l 83 972 z "},"Ł":{"ha":840,"x_min":6,"x_max":799,"o":"m 799 211 l 799 0 l 128 0 l 128 357 l 6 301 l 6 449 l 128 504 l 128 972 l 376 972 l 376 618 l 660 749 l 660 600 l 376 471 l 376 211 l 799 211 z "},"M":{"ha":1339,"x_min":63,"x_max":1276,"o":"m 174 972 l 439 972 l 669 476 l 903 972 l 1164 972 l 1276 0 l 1031 0 l 963 589 l 757 124 l 582 124 l 372 589 l 306 0 l 63 0 l 174 972 z "},"N":{"ha":981,"x_min":83,"x_max":897,"o":"m 83 972 l 325 972 l 668 392 l 668 972 l 897 972 l 897 0 l 656 0 l 313 581 l 313 0 l 83 0 l 83 972 z "},"Ń":{"ha":981,"x_min":83,"x_max":897,"o":"m 83 972 l 325 972 l 668 392 l 668 972 l 897 972 l 897 0 l 656 0 l 313 581 l 313 0 l 83 0 l 83 972 m 461 1272 l 718 1272 l 546 1067 l 386 1067 l 461 1272 z "},"Ň":{"ha":981,"x_min":83,"x_max":897,"o":"m 83 972 l 325 972 l 668 392 l 668 972 l 897 972 l 897 0 l 656 0 l 313 581 l 313 0 l 83 0 l 83 972 m 235 1272 l 394 1272 l 490 1181 l 586 1272 l 746 1272 l 590 1067 l 389 1067 l 235 1272 z "},"Ņ":{"ha":981,"x_min":83,"x_max":897,"o":"m 83 972 l 325 972 l 668 392 l 668 972 l 897 972 l 897 0 l 656 0 l 313 581 l 313 0 l 83 0 l 83 972 m 378 -58 l 621 -58 l 490 -264 l 331 -264 l 378 -58 z "},"Ŋ":{"ha":981,"x_min":83,"x_max":897,"o":"m 897 972 l 897 0 q 813 -212 896 -135 q 592 -290 731 -290 l 538 -287 l 538 -90 q 564 -92 538 -92 q 633 -67 607 -92 q 665 3 658 -43 l 313 581 l 313 0 l 83 0 l 83 972 l 325 972 l 668 399 l 668 972 l 897 972 z "},"Ñ":{"ha":981,"x_min":83,"x_max":897,"o":"m 83 972 l 325 972 l 668 392 l 668 972 l 897 972 l 897 0 l 656 0 l 313 581 l 313 0 l 83 0 l 83 972 m 521 1254 q 544 1240 531 1249 q 567 1228 558 1231 q 588 1225 576 1225 q 633 1299 625 1225 l 789 1276 q 730 1124 786 1182 q 588 1065 674 1065 q 460 1103 521 1065 q 419 1127 429 1122 q 392 1132 408 1132 q 344 1060 354 1132 l 190 1082 q 249 1233 193 1175 q 392 1292 306 1292 q 521 1254 456 1292 z "},"O":{"ha":1082,"x_min":49,"x_max":1033,"o":"m 543 989 q 794 924 682 989 q 969 744 906 858 q 1033 486 1033 629 q 969 228 1033 343 q 794 49 906 114 q 543 -17 682 -17 q 290 49 403 -17 q 113 228 176 114 q 49 486 49 343 q 113 744 49 629 q 290 924 176 858 q 543 989 403 989 m 542 775 q 415 738 471 775 q 327 634 358 700 q 296 486 296 568 q 327 338 296 404 q 415 235 358 272 q 542 197 471 197 q 668 235 613 197 q 755 338 724 272 q 786 486 786 404 q 755 634 786 568 q 668 738 724 700 q 542 775 613 775 z "},"Ó":{"ha":1082,"x_min":49,"x_max":1033,"o":"m 543 989 q 794 924 682 989 q 969 744 906 858 q 1033 486 1033 629 q 969 228 1033 343 q 794 49 906 114 q 543 -17 682 -17 q 290 49 403 -17 q 113 228 176 114 q 49 486 49 343 q 113 744 49 629 q 290 924 176 858 q 543 989 403 989 m 542 775 q 415 738 471 775 q 327 634 358 700 q 296 486 296 568 q 327 338 296 404 q 415 235 358 272 q 542 197 471 197 q 668 235 613 197 q 755 338 724 272 q 786 486 786 404 q 755 634 786 568 q 668 738 724 700 q 542 775 613 775 m 513 1272 l 769 1272 l 597 1067 l 438 1067 l 513 1272 z "},"Ŏ":{"ha":1082,"x_min":49,"x_max":1033,"o":"m 543 989 q 794 924 682 989 q 969 744 906 858 q 1033 486 1033 629 q 969 228 1033 343 q 794 49 906 114 q 543 -17 682 -17 q 290 49 403 -17 q 113 228 176 114 q 49 486 49 343 q 113 744 49 629 q 290 924 176 858 q 543 989 403 989 m 542 775 q 415 738 471 775 q 327 634 358 700 q 296 486 296 568 q 327 338 296 404 q 415 235 358 272 q 542 197 471 197 q 668 235 613 197 q 755 338 724 272 q 786 486 786 404 q 755 634 786 568 q 668 738 724 700 q 542 775 613 775 m 540 1063 q 393 1119 451 1063 q 335 1261 335 1175 l 496 1261 q 540 1203 496 1203 q 574 1218 563 1203 q 586 1261 586 1233 l 747 1261 q 688 1119 747 1175 q 540 1063 629 1063 z "},"Ô":{"ha":1082,"x_min":49,"x_max":1033,"o":"m 543 989 q 794 924 682 989 q 969 744 906 858 q 1033 486 1033 629 q 969 228 1033 343 q 794 49 906 114 q 543 -17 682 -17 q 290 49 403 -17 q 113 228 176 114 q 49 486 49 343 q 113 744 49 629 q 290 924 176 858 q 543 989 403 989 m 542 775 q 415 738 471 775 q 327 634 358 700 q 296 486 296 568 q 327 338 296 404 q 415 235 358 272 q 542 197 471 197 q 668 235 613 197 q 755 338 724 272 q 786 486 786 404 q 755 634 786 568 q 668 738 724 700 q 542 775 613 775 m 642 1272 l 797 1067 l 638 1067 l 542 1158 l 446 1067 l 286 1067 l 440 1272 l 642 1272 z "},"Ö":{"ha":1082,"x_min":49,"x_max":1033,"o":"m 543 989 q 794 924 682 989 q 969 744 906 858 q 1033 486 1033 629 q 969 228 1033 343 q 794 49 906 114 q 543 -17 682 -17 q 290 49 403 -17 q 113 228 176 114 q 49 486 49 343 q 113 744 49 629 q 290 924 176 858 q 543 989 403 989 m 542 775 q 415 738 471 775 q 327 634 358 700 q 296 486 296 568 q 327 338 296 404 q 415 235 358 272 q 542 197 471 197 q 668 235 613 197 q 755 338 724 272 q 786 486 786 404 q 755 634 786 568 q 668 738 724 700 q 542 775 613 775 m 394 1067 q 311 1099 343 1067 q 279 1181 279 1132 q 311 1263 279 1231 q 394 1294 343 1294 q 480 1263 447 1294 q 513 1181 513 1231 q 480 1099 513 1131 q 394 1067 447 1067 m 685 1067 q 601 1099 633 1067 q 569 1181 569 1132 q 601 1263 569 1231 q 685 1294 633 1294 q 769 1262 736 1294 q 803 1181 803 1229 q 769 1099 803 1132 q 685 1067 736 1067 z "},"Ò":{"ha":1082,"x_min":49,"x_max":1033,"o":"m 543 989 q 794 924 682 989 q 969 744 906 858 q 1033 486 1033 629 q 969 228 1033 343 q 794 49 906 114 q 543 -17 682 -17 q 290 49 403 -17 q 113 228 176 114 q 49 486 49 343 q 113 744 49 629 q 290 924 176 858 q 543 989 403 989 m 542 775 q 415 738 471 775 q 327 634 358 700 q 296 486 296 568 q 327 338 296 404 q 415 235 358 272 q 542 197 471 197 q 668 235 613 197 q 755 338 724 272 q 786 486 786 404 q 755 634 786 568 q 668 738 724 700 q 542 775 613 775 m 474 1067 l 301 1272 l 558 1272 l 633 1067 l 474 1067 z "},"Ő":{"ha":1082,"x_min":49,"x_max":1033,"o":"m 543 989 q 794 924 682 989 q 969 744 906 858 q 1033 486 1033 629 q 969 228 1033 343 q 794 49 906 114 q 543 -17 682 -17 q 290 49 403 -17 q 113 228 176 114 q 49 486 49 343 q 113 744 49 629 q 290 924 176 858 q 543 989 403 989 m 542 775 q 415 738 471 775 q 327 634 358 700 q 296 486 296 568 q 327 338 296 404 q 415 235 358 272 q 542 197 471 197 q 668 235 613 197 q 755 338 724 272 q 786 486 786 404 q 755 634 786 568 q 668 738 724 700 q 542 775 613 775 m 390 1272 l 576 1272 l 489 1067 l 315 1067 l 390 1272 m 654 1272 l 854 1272 l 753 1067 l 579 1067 l 654 1272 z "},"Ō":{"ha":1082,"x_min":49,"x_max":1033,"o":"m 543 989 q 794 924 682 989 q 969 744 906 858 q 1033 486 1033 629 q 969 228 1033 343 q 794 49 906 114 q 543 -17 682 -17 q 290 49 403 -17 q 113 228 176 114 q 49 486 49 343 q 113 744 49 629 q 290 924 176 858 q 543 989 403 989 m 542 775 q 415 738 471 775 q 327 634 358 700 q 296 486 296 568 q 327 338 296 404 q 415 235 358 272 q 542 197 471 197 q 668 235 613 197 q 755 338 724 272 q 786 486 786 404 q 755 634 786 568 q 668 738 724 700 q 542 775 613 775 m 342 1261 l 742 1261 l 742 1092 l 342 1092 l 342 1261 z "},"Ø":{"ha":1082,"x_min":49,"x_max":1033,"o":"m 907 832 q 1001 676 968 764 q 1033 486 1033 588 q 969 228 1033 343 q 794 49 906 114 q 543 -17 682 -17 q 315 35 418 -17 l 207 -110 l 71 0 l 175 140 q 81 297 114 208 q 49 486 49 385 q 113 744 49 629 q 290 924 176 858 q 543 989 403 989 q 768 938 665 989 l 875 1082 l 1011 972 l 907 832 m 296 486 q 325 343 296 410 l 633 757 q 542 775 588 775 q 415 738 471 775 q 327 634 358 700 q 296 486 296 568 m 542 197 q 668 235 613 197 q 755 338 724 272 q 786 486 786 404 q 757 631 786 561 l 449 217 q 542 197 494 197 z "},"Õ":{"ha":1082,"x_min":49,"x_max":1033,"o":"m 543 989 q 794 924 682 989 q 969 744 906 858 q 1033 486 1033 629 q 969 228 1033 343 q 794 49 906 114 q 543 -17 682 -17 q 290 49 403 -17 q 113 228 176 114 q 49 486 49 343 q 113 744 49 629 q 290 924 176 858 q 543 989 403 989 m 542 775 q 415 738 471 775 q 327 634 358 700 q 296 486 296 568 q 327 338 296 404 q 415 235 358 272 q 542 197 471 197 q 668 235 613 197 q 755 338 724 272 q 786 486 786 404 q 755 634 786 568 q 668 738 724 700 q 542 775 613 775 m 572 1254 q 596 1240 582 1249 q 619 1228 610 1231 q 639 1225 628 1225 q 685 1299 676 1225 l 840 1276 q 781 1124 838 1182 q 639 1065 725 1065 q 511 1103 572 1065 q 470 1127 481 1122 q 443 1132 460 1132 q 396 1060 406 1132 l 242 1082 q 301 1233 244 1175 q 443 1292 357 1292 q 572 1254 507 1292 z "},"Œ":{"ha":1551,"x_min":49,"x_max":1501,"o":"m 1501 211 l 1501 0 l 801 0 l 801 53 q 543 -17 686 -17 q 290 49 403 -17 q 113 228 176 114 q 49 486 49 343 q 113 744 49 629 q 290 924 176 858 q 543 989 403 989 q 801 919 686 989 l 801 972 l 1486 972 l 1486 761 l 1050 761 l 1050 601 l 1393 601 l 1393 390 l 1050 390 l 1050 211 l 1501 211 m 542 197 q 668 235 613 197 q 755 338 724 272 q 786 486 786 404 q 755 634 786 568 q 668 738 724 700 q 542 775 613 775 q 415 738 471 775 q 327 634 358 700 q 296 486 296 568 q 327 338 296 404 q 415 235 358 272 q 542 197 471 197 z "},"P":{"ha":868,"x_min":83,"x_max":833,"o":"m 83 972 l 497 972 q 674 934 599 972 q 792 825 750 896 q 833 661 833 754 q 792 497 833 568 q 674 388 750 426 q 497 350 599 350 l 332 350 l 332 0 l 83 0 l 83 972 m 469 561 q 556 588 525 561 q 586 661 586 614 q 556 735 586 708 q 469 761 525 761 l 332 761 l 332 561 l 469 561 z "},"Þ":{"ha":853,"x_min":83,"x_max":833,"o":"m 83 972 l 332 972 l 332 788 l 497 788 q 744 706 656 788 q 833 486 833 625 q 744 266 833 347 q 497 185 656 185 l 332 185 l 332 0 l 83 0 l 83 972 m 481 388 q 568 414 539 388 q 597 486 597 440 q 568 558 597 532 q 481 585 539 585 l 332 585 l 332 388 l 481 388 z "},"Q":{"ha":1086,"x_min":49,"x_max":1086,"o":"m 1086 -67 q 938 -85 997 -85 q 697 7 785 -85 q 543 -17 622 -17 q 290 49 403 -17 q 113 228 176 114 q 49 486 49 343 q 113 744 49 629 q 290 924 176 858 q 543 989 403 989 q 794 924 682 989 q 969 744 906 858 q 1033 486 1033 629 q 996 284 1033 378 q 889 121 958 190 q 944 111 915 111 q 997 115 974 111 q 1054 128 1019 118 l 1086 -67 m 542 775 q 419 740 474 775 q 332 644 364 706 q 296 506 300 583 q 432 525 363 525 q 577 496 518 525 q 672 422 636 467 q 742 314 708 378 q 786 486 786 389 q 755 634 786 568 q 668 738 724 700 q 542 775 613 775 m 542 197 q 579 200 554 197 q 514 290 547 260 q 426 321 481 321 q 342 313 382 321 q 426 228 375 258 q 542 197 478 197 z "},"R":{"ha":932,"x_min":83,"x_max":911,"o":"m 628 0 l 422 394 l 335 394 l 335 0 l 86 0 l 83 972 l 482 972 q 716 897 629 972 q 803 683 803 821 q 767 542 803 606 q 667 442 732 479 l 911 0 l 628 0 m 335 599 l 438 599 q 526 617 497 599 q 556 681 556 636 q 526 742 556 724 q 438 761 497 761 l 335 761 l 335 599 z "},"Ŕ":{"ha":932,"x_min":83,"x_max":911,"o":"m 628 0 l 422 394 l 335 394 l 335 0 l 86 0 l 83 972 l 482 972 q 716 897 629 972 q 803 683 803 821 q 767 542 803 606 q 667 442 732 479 l 911 0 l 628 0 m 335 599 l 438 599 q 526 617 497 599 q 556 681 556 636 q 526 742 556 724 q 438 761 497 761 l 335 761 l 335 599 m 389 1272 l 646 1272 l 474 1067 l 314 1067 l 389 1272 z "},"Ř":{"ha":932,"x_min":83,"x_max":911,"o":"m 628 0 l 422 394 l 335 394 l 335 0 l 86 0 l 83 972 l 482 972 q 716 897 629 972 q 803 683 803 821 q 767 542 803 606 q 667 442 732 479 l 911 0 l 628 0 m 335 599 l 438 599 q 526 617 497 599 q 556 681 556 636 q 526 742 556 724 q 438 761 497 761 l 335 761 l 335 599 m 163 1272 l 322 1272 l 418 1181 l 514 1272 l 674 1272 l 518 1067 l 317 1067 l 163 1272 z "},"Ŗ":{"ha":932,"x_min":83,"x_max":911,"o":"m 628 0 l 422 394 l 335 394 l 335 0 l 86 0 l 83 972 l 482 972 q 716 897 629 972 q 803 683 803 821 q 767 542 803 606 q 667 442 732 479 l 911 0 l 628 0 m 335 599 l 438 599 q 526 617 497 599 q 556 681 556 636 q 526 742 556 724 q 438 761 497 761 l 335 761 l 335 599 m 326 -58 l 569 -58 l 439 -264 l 279 -264 l 326 -58 z "},"S":{"ha":807,"x_min":21,"x_max":772,"o":"m 399 -17 q 220 25 301 -17 q 87 139 139 67 q 21 300 35 211 l 235 363 q 300 240 253 286 q 411 194 347 194 q 492 218 461 194 q 524 281 524 242 q 502 331 524 311 q 449 365 481 351 q 357 396 417 378 q 201 453 263 424 q 94 544 139 482 q 49 707 49 606 q 96 851 49 786 q 223 952 143 915 q 397 989 303 989 q 617 931 524 989 q 757 775 711 874 l 546 653 q 485 746 519 714 q 397 778 450 778 q 324 759 351 778 q 296 708 296 740 q 330 658 296 675 q 440 624 364 642 q 606 572 539 600 q 723 475 674 543 q 772 289 772 407 q 726 129 772 199 q 594 22 679 60 q 399 -17 510 -17 z "},"Ś":{"ha":807,"x_min":21,"x_max":772,"o":"m 399 -17 q 220 25 301 -17 q 87 139 139 67 q 21 300 35 211 l 235 363 q 300 240 253 286 q 411 194 347 194 q 492 218 461 194 q 524 281 524 242 q 502 331 524 311 q 449 365 481 351 q 357 396 417 378 q 201 453 263 424 q 94 544 139 482 q 49 707 49 606 q 96 851 49 786 q 223 952 143 915 q 397 989 303 989 q 617 931 524 989 q 757 775 711 874 l 546 653 q 485 746 519 714 q 397 778 450 778 q 324 759 351 778 q 296 708 296 740 q 330 658 296 675 q 440 624 364 642 q 606 572 539 600 q 723 475 674 543 q 772 289 772 407 q 726 129 772 199 q 594 22 679 60 q 399 -17 510 -17 m 361 1272 l 618 1272 l 446 1067 l 286 1067 l 361 1272 z "},"Š":{"ha":807,"x_min":21,"x_max":772,"o":"m 399 -17 q 220 25 301 -17 q 87 139 139 67 q 21 300 35 211 l 235 363 q 300 240 253 286 q 411 194 347 194 q 492 218 461 194 q 524 281 524 242 q 502 331 524 311 q 449 365 481 351 q 357 396 417 378 q 201 453 263 424 q 94 544 139 482 q 49 707 49 606 q 96 851 49 786 q 223 952 143 915 q 397 989 303 989 q 617 931 524 989 q 757 775 711 874 l 546 653 q 485 746 519 714 q 397 778 450 778 q 324 759 351 778 q 296 708 296 740 q 330 658 296 675 q 440 624 364 642 q 606 572 539 600 q 723 475 674 543 q 772 289 772 407 q 726 129 772 199 q 594 22 679 60 q 399 -17 510 -17 m 135 1272 l 294 1272 l 390 1181 l 486 1272 l 646 1272 l 490 1067 l 289 1067 l 135 1272 z "},"Ş":{"ha":807,"x_min":21,"x_max":772,"o":"m 772 289 q 701 97 772 175 q 504 -7 629 18 l 429 -206 l 172 -206 l 335 -12 q 126 93 211 7 q 21 300 40 179 l 235 363 q 300 240 253 286 q 411 194 347 194 q 492 218 461 194 q 524 281 524 242 q 502 331 524 311 q 449 365 481 351 q 357 396 417 378 q 201 453 263 424 q 94 544 139 482 q 49 707 49 606 q 96 851 49 786 q 223 952 143 915 q 397 989 303 989 q 617 931 524 989 q 757 775 711 874 l 546 653 q 485 746 519 714 q 397 778 450 778 q 324 759 351 778 q 296 708 296 740 q 330 658 296 675 q 440 624 364 642 q 606 572 539 600 q 723 475 674 543 q 772 289 772 407 z "},"Ŝ":{"ha":807,"x_min":21,"x_max":772,"o":"m 399 -17 q 220 25 301 -17 q 87 139 139 67 q 21 300 35 211 l 235 363 q 300 240 253 286 q 411 194 347 194 q 492 218 461 194 q 524 281 524 242 q 502 331 524 311 q 449 365 481 351 q 357 396 417 378 q 201 453 263 424 q 94 544 139 482 q 49 707 49 606 q 96 851 49 786 q 223 952 143 915 q 397 989 303 989 q 617 931 524 989 q 757 775 711 874 l 546 653 q 485 746 519 714 q 397 778 450 778 q 324 759 351 778 q 296 708 296 740 q 330 658 296 675 q 440 624 364 642 q 606 572 539 600 q 723 475 674 543 q 772 289 772 407 q 726 129 772 199 q 594 22 679 60 q 399 -17 510 -17 m 490 1272 l 646 1067 l 486 1067 l 390 1158 l 294 1067 l 135 1067 l 289 1272 l 490 1272 z "},"Ș":{"ha":807,"x_min":21,"x_max":772,"o":"m 399 -17 q 220 25 301 -17 q 87 139 139 67 q 21 300 35 211 l 235 363 q 300 240 253 286 q 411 194 347 194 q 492 218 461 194 q 524 281 524 242 q 502 331 524 311 q 449 365 481 351 q 357 396 417 378 q 201 453 263 424 q 94 544 139 482 q 49 707 49 606 q 96 851 49 786 q 223 952 143 915 q 397 989 303 989 q 617 931 524 989 q 757 775 711 874 l 546 653 q 485 746 519 714 q 397 778 450 778 q 324 759 351 778 q 296 708 296 740 q 330 658 296 675 q 440 624 364 642 q 606 572 539 600 q 723 475 674 543 q 772 289 772 407 q 726 129 772 199 q 594 22 679 60 q 399 -17 510 -17 m 296 -58 l 539 -58 l 408 -264 l 249 -264 l 296 -58 z "},"ẞ":{"ha":929,"x_min":83,"x_max":881,"o":"m 536 211 q 621 238 590 211 q 651 313 651 265 q 619 383 651 357 q 529 408 586 408 l 426 408 l 411 538 l 585 718 q 542 763 574 744 q 469 781 510 781 q 371 730 410 781 q 332 594 332 679 l 332 0 l 83 0 l 83 594 q 134 804 83 715 q 273 941 185 893 q 469 989 361 989 q 648 950 568 989 q 775 845 728 911 q 828 699 822 779 l 692 558 q 826 457 771 525 q 881 310 881 389 q 840 148 881 218 q 725 39 799 78 q 556 0 651 0 l 411 0 l 411 211 l 536 211 z "},"T":{"ha":860,"x_min":28,"x_max":832,"o":"m 306 761 l 28 761 l 28 972 l 832 972 l 832 761 l 554 761 l 554 0 l 306 0 l 306 761 z "},"Ŧ":{"ha":860,"x_min":28,"x_max":832,"o":"m 554 761 l 554 561 l 689 561 l 689 411 l 554 411 l 554 0 l 306 0 l 306 411 l 171 411 l 171 561 l 306 561 l 306 761 l 28 761 l 28 972 l 832 972 l 832 761 l 554 761 z "},"Ť":{"ha":860,"x_min":28,"x_max":832,"o":"m 306 761 l 28 761 l 28 972 l 832 972 l 832 761 l 554 761 l 554 0 l 306 0 l 306 761 m 175 1272 l 335 1272 l 431 1181 l 526 1272 l 686 1272 l 531 1067 l 329 1067 l 175 1272 z "},"Ţ":{"ha":860,"x_min":28,"x_max":832,"o":"m 832 972 l 832 761 l 554 761 l 554 0 l 476 -206 l 219 -206 l 393 0 l 306 0 l 306 761 l 28 761 l 28 972 l 832 972 z "},"Ț":{"ha":860,"x_min":28,"x_max":832,"o":"m 306 761 l 28 761 l 28 972 l 832 972 l 832 761 l 554 761 l 554 0 l 306 0 l 306 761 m 317 -58 l 560 -58 l 429 -264 l 269 -264 l 317 -58 z "},"U":{"ha":960,"x_min":83,"x_max":876,"o":"m 481 -17 q 191 80 299 -17 q 83 365 83 176 l 83 972 l 313 972 l 313 368 q 358 238 313 281 q 481 194 404 194 q 603 238 557 194 q 649 368 649 281 l 649 972 l 876 972 l 876 365 q 769 80 876 176 q 481 -17 663 -17 z "},"Ú":{"ha":960,"x_min":83,"x_max":876,"o":"m 481 -17 q 191 80 299 -17 q 83 365 83 176 l 83 972 l 313 972 l 313 368 q 358 238 313 281 q 481 194 404 194 q 603 238 557 194 q 649 368 649 281 l 649 972 l 876 972 l 876 365 q 769 80 876 176 q 481 -17 663 -17 m 451 1272 l 708 1272 l 536 1067 l 376 1067 l 451 1272 z "},"Ŭ":{"ha":960,"x_min":83,"x_max":876,"o":"m 481 -17 q 191 80 299 -17 q 83 365 83 176 l 83 972 l 313 972 l 313 368 q 358 238 313 281 q 481 194 404 194 q 603 238 557 194 q 649 368 649 281 l 649 972 l 876 972 l 876 365 q 769 80 876 176 q 481 -17 663 -17 m 479 1063 q 332 1119 390 1063 q 274 1261 274 1175 l 435 1261 q 479 1203 435 1203 q 513 1218 501 1203 q 525 1261 525 1233 l 686 1261 q 627 1119 686 1175 q 479 1063 568 1063 z "},"Û":{"ha":960,"x_min":83,"x_max":876,"o":"m 481 -17 q 191 80 299 -17 q 83 365 83 176 l 83 972 l 313 972 l 313 368 q 358 238 313 281 q 481 194 404 194 q 603 238 557 194 q 649 368 649 281 l 649 972 l 876 972 l 876 365 q 769 80 876 176 q 481 -17 663 -17 m 581 1272 l 736 1067 l 576 1067 l 481 1158 l 385 1067 l 225 1067 l 379 1272 l 581 1272 z "},"Ü":{"ha":960,"x_min":83,"x_max":876,"o":"m 481 -17 q 191 80 299 -17 q 83 365 83 176 l 83 972 l 313 972 l 313 368 q 358 238 313 281 q 481 194 404 194 q 603 238 557 194 q 649 368 649 281 l 649 972 l 876 972 l 876 365 q 769 80 876 176 q 481 -17 663 -17 m 333 1067 q 250 1099 282 1067 q 218 1181 218 1132 q 250 1263 218 1231 q 333 1294 282 1294 q 419 1263 386 1294 q 451 1181 451 1231 q 419 1099 451 1131 q 333 1067 386 1067 m 624 1067 q 540 1099 572 1067 q 508 1181 508 1132 q 540 1263 508 1231 q 624 1294 572 1294 q 708 1262 675 1294 q 742 1181 742 1229 q 708 1099 742 1132 q 624 1067 675 1067 z "},"Ù":{"ha":960,"x_min":83,"x_max":876,"o":"m 481 -17 q 191 80 299 -17 q 83 365 83 176 l 83 972 l 313 972 l 313 368 q 358 238 313 281 q 481 194 404 194 q 603 238 557 194 q 649 368 649 281 l 649 972 l 876 972 l 876 365 q 769 80 876 176 q 481 -17 663 -17 m 413 1067 l 240 1272 l 497 1272 l 572 1067 l 413 1067 z "},"Ű":{"ha":960,"x_min":83,"x_max":876,"o":"m 481 -17 q 191 80 299 -17 q 83 365 83 176 l 83 972 l 313 972 l 313 368 q 358 238 313 281 q 481 194 404 194 q 603 238 557 194 q 649 368 649 281 l 649 972 l 876 972 l 876 365 q 769 80 876 176 q 481 -17 663 -17 m 329 1272 l 515 1272 l 428 1067 l 254 1067 l 329 1272 m 593 1272 l 793 1272 l 692 1067 l 518 1067 l 593 1272 z "},"Ū":{"ha":960,"x_min":83,"x_max":876,"o":"m 481 -17 q 191 80 299 -17 q 83 365 83 176 l 83 972 l 313 972 l 313 368 q 358 238 313 281 q 481 194 404 194 q 603 238 557 194 q 649 368 649 281 l 649 972 l 876 972 l 876 365 q 769 80 876 176 q 481 -17 663 -17 m 281 1261 l 681 1261 l 681 1092 l 281 1092 l 281 1261 z "},"Ų":{"ha":960,"x_min":83,"x_max":876,"o":"m 876 972 l 876 365 q 778 88 876 185 q 511 -15 679 -8 q 488 -72 488 -47 q 500 -103 488 -93 q 533 -114 513 -114 q 561 -110 553 -114 l 581 -253 q 547 -260 572 -257 q 494 -264 521 -264 q 367 -224 415 -264 q 318 -119 318 -185 q 330 -61 318 -92 q 361 -4 342 -31 q 157 117 231 24 q 83 365 83 210 l 83 972 l 313 972 l 313 368 q 358 238 313 281 q 481 194 404 194 q 603 238 557 194 q 649 368 649 281 l 649 972 l 876 972 z "},"Ů":{"ha":960,"x_min":83,"x_max":876,"o":"m 481 -17 q 191 80 299 -17 q 83 365 83 176 l 83 972 l 313 972 l 313 368 q 358 238 313 281 q 481 194 404 194 q 603 238 557 194 q 649 368 649 281 l 649 972 l 876 972 l 876 365 q 769 80 876 176 q 481 -17 663 -17 m 479 1036 q 357 1083 406 1036 q 308 1199 308 1129 q 357 1315 308 1268 q 479 1361 406 1361 q 603 1315 554 1361 q 651 1199 651 1268 q 603 1083 651 1129 q 479 1036 554 1036 m 479 1143 q 522 1158 506 1143 q 539 1199 539 1174 q 522 1239 539 1224 q 479 1254 506 1254 q 438 1239 454 1254 q 421 1199 421 1224 q 438 1158 421 1174 q 479 1143 454 1143 z "},"Ũ":{"ha":960,"x_min":83,"x_max":876,"o":"m 481 -17 q 191 80 299 -17 q 83 365 83 176 l 83 972 l 313 972 l 313 368 q 358 238 313 281 q 481 194 404 194 q 603 238 557 194 q 649 368 649 281 l 649 972 l 876 972 l 876 365 q 769 80 876 176 q 481 -17 663 -17 m 511 1254 q 535 1240 521 1249 q 558 1228 549 1231 q 578 1225 567 1225 q 624 1299 615 1225 l 779 1276 q 720 1124 776 1182 q 578 1065 664 1065 q 450 1103 511 1065 q 409 1127 419 1122 q 382 1132 399 1132 q 335 1060 344 1132 l 181 1082 q 240 1233 183 1175 q 382 1292 296 1292 q 511 1254 446 1292 z "},"V":{"ha":935,"x_min":7,"x_max":928,"o":"m 7 972 l 260 972 l 467 300 l 676 972 l 928 972 l 585 0 l 350 0 l 7 972 z "},"W":{"ha":1419,"x_min":14,"x_max":1406,"o":"m 14 972 l 274 972 l 421 300 l 574 864 l 843 864 l 997 301 l 1144 972 l 1406 972 l 1138 0 l 874 0 l 710 533 l 543 0 l 283 0 l 14 972 z "},"Ẃ":{"ha":1419,"x_min":14,"x_max":1406,"o":"m 14 972 l 274 972 l 421 300 l 574 864 l 843 864 l 997 301 l 1144 972 l 1406 972 l 1138 0 l 874 0 l 710 533 l 543 0 l 283 0 l 14 972 m 681 1272 l 938 1272 l 765 1067 l 606 1067 l 681 1272 z "},"Ŵ":{"ha":1419,"x_min":14,"x_max":1406,"o":"m 14 972 l 274 972 l 421 300 l 574 864 l 843 864 l 997 301 l 1144 972 l 1406 972 l 1138 0 l 874 0 l 710 533 l 543 0 l 283 0 l 14 972 m 810 1272 l 965 1067 l 806 1067 l 710 1158 l 614 1067 l 454 1067 l 608 1272 l 810 1272 z "},"Ẅ":{"ha":1419,"x_min":14,"x_max":1406,"o":"m 14 972 l 274 972 l 421 300 l 574 864 l 843 864 l 997 301 l 1144 972 l 1406 972 l 1138 0 l 874 0 l 710 533 l 543 0 l 283 0 l 14 972 m 563 1067 q 479 1099 511 1067 q 447 1181 447 1132 q 479 1263 447 1231 q 563 1294 511 1294 q 648 1263 615 1294 q 681 1181 681 1231 q 648 1099 681 1131 q 563 1067 615 1067 m 853 1067 q 769 1099 801 1067 q 738 1181 738 1132 q 769 1263 738 1231 q 853 1294 801 1294 q 938 1262 904 1294 q 971 1181 971 1229 q 938 1099 971 1132 q 853 1067 904 1067 z "},"Ẁ":{"ha":1419,"x_min":14,"x_max":1406,"o":"m 14 972 l 274 972 l 421 300 l 574 864 l 843 864 l 997 301 l 1144 972 l 1406 972 l 1138 0 l 874 0 l 710 533 l 543 0 l 283 0 l 14 972 m 642 1067 l 469 1272 l 726 1272 l 801 1067 l 642 1067 z "},"X":{"ha":896,"x_min":14,"x_max":882,"o":"m 611 0 l 444 300 l 271 0 l 14 1 l 314 497 l 29 972 l 300 972 l 440 714 l 590 972 l 853 972 l 572 517 l 882 0 l 611 0 z "},"Y":{"ha":913,"x_min":7,"x_max":906,"o":"m 332 400 l 7 972 l 268 972 l 456 629 l 646 972 l 906 972 l 581 400 l 581 0 l 332 0 l 332 400 z "},"Ý":{"ha":913,"x_min":7,"x_max":906,"o":"m 332 400 l 7 972 l 268 972 l 456 629 l 646 972 l 906 972 l 581 400 l 581 0 l 332 0 l 332 400 m 428 1272 l 685 1272 l 513 1067 l 353 1067 l 428 1272 z "},"Ŷ":{"ha":913,"x_min":7,"x_max":906,"o":"m 332 400 l 7 972 l 268 972 l 456 629 l 646 972 l 906 972 l 581 400 l 581 0 l 332 0 l 332 400 m 557 1272 l 713 1067 l 553 1067 l 457 1158 l 361 1067 l 201 1067 l 356 1272 l 557 1272 z "},"Ÿ":{"ha":913,"x_min":7,"x_max":906,"o":"m 332 400 l 7 972 l 268 972 l 456 629 l 646 972 l 906 972 l 581 400 l 581 0 l 332 0 l 332 400 m 310 1067 q 226 1099 258 1067 q 194 1181 194 1132 q 226 1263 194 1231 q 310 1294 258 1294 q 395 1263 363 1294 q 428 1181 428 1231 q 395 1099 428 1131 q 310 1067 363 1067 m 600 1067 q 517 1099 549 1067 q 485 1181 485 1132 q 517 1263 485 1231 q 600 1294 549 1294 q 685 1262 651 1294 q 718 1181 718 1229 q 685 1099 718 1132 q 600 1067 651 1067 z "},"Ỳ":{"ha":913,"x_min":7,"x_max":906,"o":"m 332 400 l 7 972 l 268 972 l 456 629 l 646 972 l 906 972 l 581 400 l 581 0 l 332 0 l 332 400 m 389 1067 l 217 1272 l 474 1272 l 549 1067 l 389 1067 z "},"Z":{"ha":867,"x_min":49,"x_max":811,"o":"m 49 194 l 524 761 l 69 761 l 69 972 l 807 972 l 807 778 l 336 211 l 811 211 l 811 0 l 49 0 l 49 194 z "},"Ź":{"ha":867,"x_min":49,"x_max":811,"o":"m 49 194 l 524 761 l 69 761 l 69 972 l 807 972 l 807 778 l 336 211 l 811 211 l 811 0 l 49 0 l 49 194 m 411 1272 l 668 1272 l 496 1067 l 336 1067 l 411 1272 z "},"Ž":{"ha":867,"x_min":49,"x_max":811,"o":"m 49 194 l 524 761 l 69 761 l 69 972 l 807 972 l 807 778 l 336 211 l 811 211 l 811 0 l 49 0 l 49 194 m 185 1272 l 344 1272 l 440 1181 l 536 1272 l 696 1272 l 540 1067 l 339 1067 l 185 1272 z "},"Ż":{"ha":867,"x_min":49,"x_max":811,"o":"m 49 194 l 524 761 l 69 761 l 69 972 l 807 972 l 807 778 l 336 211 l 811 211 l 811 0 l 49 0 l 49 194 m 439 1057 q 344 1096 382 1057 q 306 1190 306 1135 q 344 1283 306 1244 q 439 1322 382 1322 q 536 1283 497 1322 q 575 1190 575 1244 q 536 1096 575 1135 q 439 1057 497 1057 z "},"a":{"ha":767,"x_min":51,"x_max":690,"o":"m 367 728 q 604 649 518 728 q 690 415 690 569 l 690 0 l 468 0 l 468 49 q 390 2 442 21 q 282 -17 339 -17 q 163 12 215 -17 q 81 90 111 40 q 51 200 51 139 q 124 366 51 307 q 344 440 197 425 l 468 454 l 468 456 q 440 533 468 504 q 361 561 411 561 q 288 535 317 561 q 257 461 258 508 l 51 461 q 104 610 58 550 q 219 699 150 671 q 367 728 288 728 m 342 150 q 410 169 375 150 q 468 219 446 189 l 468 294 l 350 279 q 289 256 308 274 q 269 211 269 238 q 288 167 269 185 q 342 150 307 150 z "},"á":{"ha":767,"x_min":51,"x_max":690,"o":"m 367 728 q 604 649 518 728 q 690 415 690 569 l 690 0 l 468 0 l 468 49 q 390 2 442 21 q 282 -17 339 -17 q 163 12 215 -17 q 81 90 111 40 q 51 200 51 139 q 124 366 51 307 q 344 440 197 425 l 468 454 l 468 456 q 440 533 468 504 q 361 561 411 561 q 288 535 317 561 q 257 461 258 508 l 51 461 q 104 610 58 550 q 219 699 150 671 q 367 728 288 728 m 342 150 q 410 169 375 150 q 468 219 446 189 l 468 294 l 350 279 q 289 256 308 274 q 269 211 269 238 q 288 167 269 185 q 342 150 307 150 m 342 1011 l 599 1011 l 426 806 l 267 806 l 342 1011 z "},"ă":{"ha":767,"x_min":51,"x_max":690,"o":"m 367 728 q 604 649 518 728 q 690 415 690 569 l 690 0 l 468 0 l 468 49 q 390 2 442 21 q 282 -17 339 -17 q 163 12 215 -17 q 81 90 111 40 q 51 200 51 139 q 124 366 51 307 q 344 440 197 425 l 468 454 l 468 456 q 440 533 468 504 q 361 561 411 561 q 288 535 317 561 q 257 461 258 508 l 51 461 q 104 610 58 550 q 219 699 150 671 q 367 728 288 728 m 342 150 q 410 169 375 150 q 468 219 446 189 l 468 294 l 350 279 q 289 256 308 274 q 269 211 269 238 q 288 167 269 185 q 342 150 307 150 m 369 801 q 222 858 281 801 q 164 1000 164 914 l 325 1000 q 369 942 325 942 q 403 957 392 942 q 415 1000 415 972 l 576 1000 q 517 858 576 914 q 369 801 458 801 z "},"â":{"ha":767,"x_min":51,"x_max":690,"o":"m 367 728 q 604 649 518 728 q 690 415 690 569 l 690 0 l 468 0 l 468 49 q 390 2 442 21 q 282 -17 339 -17 q 163 12 215 -17 q 81 90 111 40 q 51 200 51 139 q 124 366 51 307 q 344 440 197 425 l 468 454 l 468 456 q 440 533 468 504 q 361 561 411 561 q 288 535 317 561 q 257 461 258 508 l 51 461 q 104 610 58 550 q 219 699 150 671 q 367 728 288 728 m 342 150 q 410 169 375 150 q 468 219 446 189 l 468 294 l 350 279 q 289 256 308 274 q 269 211 269 238 q 288 167 269 185 q 342 150 307 150 m 471 1011 l 626 806 l 467 806 l 371 897 l 275 806 l 115 806 l 269 1011 l 471 1011 z "},"ä":{"ha":767,"x_min":51,"x_max":690,"o":"m 367 728 q 604 649 518 728 q 690 415 690 569 l 690 0 l 468 0 l 468 49 q 390 2 442 21 q 282 -17 339 -17 q 163 12 215 -17 q 81 90 111 40 q 51 200 51 139 q 124 366 51 307 q 344 440 197 425 l 468 454 l 468 456 q 440 533 468 504 q 361 561 411 561 q 288 535 317 561 q 257 461 258 508 l 51 461 q 104 610 58 550 q 219 699 150 671 q 367 728 288 728 m 342 150 q 410 169 375 150 q 468 219 446 189 l 468 294 l 350 279 q 289 256 308 274 q 269 211 269 238 q 288 167 269 185 q 342 150 307 150 m 224 806 q 140 838 172 806 q 108 919 108 871 q 140 1001 108 969 q 224 1033 172 1033 q 309 1001 276 1033 q 342 919 342 969 q 309 838 342 869 q 224 806 276 806 m 514 806 q 431 838 463 806 q 399 919 399 871 q 431 1001 399 969 q 514 1033 463 1033 q 599 1001 565 1033 q 632 919 632 968 q 599 838 632 871 q 514 806 565 806 z "},"à":{"ha":767,"x_min":51,"x_max":690,"o":"m 367 728 q 604 649 518 728 q 690 415 690 569 l 690 0 l 468 0 l 468 49 q 390 2 442 21 q 282 -17 339 -17 q 163 12 215 -17 q 81 90 111 40 q 51 200 51 139 q 124 366 51 307 q 344 440 197 425 l 468 454 l 468 456 q 440 533 468 504 q 361 561 411 561 q 288 535 317 561 q 257 461 258 508 l 51 461 q 104 610 58 550 q 219 699 150 671 q 367 728 288 728 m 342 150 q 410 169 375 150 q 468 219 446 189 l 468 294 l 350 279 q 289 256 308 274 q 269 211 269 238 q 288 167 269 185 q 342 150 307 150 m 303 806 l 131 1011 l 388 1011 l 463 806 l 303 806 z "},"ā":{"ha":767,"x_min":51,"x_max":690,"o":"m 367 728 q 604 649 518 728 q 690 415 690 569 l 690 0 l 468 0 l 468 49 q 390 2 442 21 q 282 -17 339 -17 q 163 12 215 -17 q 81 90 111 40 q 51 200 51 139 q 124 366 51 307 q 344 440 197 425 l 468 454 l 468 456 q 440 533 468 504 q 361 561 411 561 q 288 535 317 561 q 257 461 258 508 l 51 461 q 104 610 58 550 q 219 699 150 671 q 367 728 288 728 m 342 150 q 410 169 375 150 q 468 219 446 189 l 468 294 l 350 279 q 289 256 308 274 q 269 211 269 238 q 288 167 269 185 q 342 150 307 150 m 171 1000 l 571 1000 l 571 831 l 171 831 l 171 1000 z "},"ą":{"ha":767,"x_min":51,"x_max":747,"o":"m 747 -253 q 713 -260 739 -257 q 661 -264 688 -264 q 533 -224 582 -264 q 485 -119 485 -185 q 497 -58 485 -90 q 531 0 510 -26 l 468 0 l 468 49 q 390 2 442 21 q 282 -17 339 -17 q 163 12 215 -17 q 81 90 111 40 q 51 200 51 139 q 124 366 51 307 q 344 440 197 425 l 468 454 l 468 456 q 440 533 468 504 q 361 561 411 561 q 288 535 317 561 q 257 461 258 508 l 51 461 q 104 610 58 550 q 219 699 150 671 q 367 728 288 728 q 604 649 518 728 q 690 415 690 569 l 690 0 q 664 -37 674 -21 q 654 -72 654 -53 q 667 -103 654 -93 q 700 -114 679 -114 q 728 -110 719 -114 l 747 -253 m 342 150 q 410 169 375 150 q 468 219 446 189 l 468 294 l 350 279 q 289 256 308 274 q 269 211 269 238 q 288 167 269 185 q 342 150 307 150 z "},"å":{"ha":767,"x_min":51,"x_max":690,"o":"m 367 728 q 604 649 518 728 q 690 415 690 569 l 690 0 l 468 0 l 468 49 q 390 2 442 21 q 282 -17 339 -17 q 163 12 215 -17 q 81 90 111 40 q 51 200 51 139 q 124 366 51 307 q 344 440 197 425 l 468 454 l 468 456 q 440 533 468 504 q 361 561 411 561 q 288 535 317 561 q 257 461 258 508 l 51 461 q 104 610 58 550 q 219 699 150 671 q 367 728 288 728 m 342 150 q 410 169 375 150 q 468 219 446 189 l 468 294 l 350 279 q 289 256 308 274 q 269 211 269 238 q 288 167 269 185 q 342 150 307 150 m 369 775 q 247 822 296 775 q 199 938 199 868 q 247 1053 199 1007 q 369 1100 296 1100 q 493 1053 444 1100 q 542 938 542 1007 q 493 822 542 868 q 369 775 444 775 m 369 882 q 413 897 396 882 q 429 938 429 913 q 413 978 429 963 q 369 993 396 993 q 328 978 344 993 q 311 938 311 963 q 328 897 311 913 q 369 882 344 882 z "},"ǻ":{"ha":767,"x_min":51,"x_max":690,"o":"m 369 775 q 247 822 296 775 q 199 938 199 868 q 223 1025 199 986 q 289 1083 247 1064 l 361 1279 l 618 1279 l 453 1082 q 518 1024 494 1063 q 542 938 542 985 q 493 822 542 868 q 369 775 444 775 m 369 882 q 413 897 396 882 q 429 938 429 913 q 413 978 429 963 q 369 993 396 993 q 328 978 344 993 q 311 938 311 963 q 328 897 311 913 q 369 882 344 882 m 367 728 q 604 649 518 728 q 690 415 690 569 l 690 0 l 468 0 l 468 49 q 390 2 442 21 q 282 -17 339 -17 q 163 12 215 -17 q 81 90 111 40 q 51 200 51 139 q 124 366 51 307 q 344 440 197 425 l 468 454 l 468 456 q 440 533 468 504 q 361 561 411 561 q 288 535 317 561 q 257 461 258 508 l 51 461 q 104 610 58 550 q 219 699 150 671 q 367 728 288 728 m 342 150 q 410 169 375 150 q 468 219 446 189 l 468 294 l 350 279 q 289 256 308 274 q 269 211 269 238 q 288 167 269 185 q 342 150 307 150 z "},"ã":{"ha":767,"x_min":51,"x_max":690,"o":"m 367 728 q 604 649 518 728 q 690 415 690 569 l 690 0 l 468 0 l 468 49 q 390 2 442 21 q 282 -17 339 -17 q 163 12 215 -17 q 81 90 111 40 q 51 200 51 139 q 124 366 51 307 q 344 440 197 425 l 468 454 l 468 456 q 440 533 468 504 q 361 561 411 561 q 288 535 317 561 q 257 461 258 508 l 51 461 q 104 610 58 550 q 219 699 150 671 q 367 728 288 728 m 342 150 q 410 169 375 150 q 468 219 446 189 l 468 294 l 350 279 q 289 256 308 274 q 269 211 269 238 q 288 167 269 185 q 342 150 307 150 m 401 993 q 425 978 411 988 q 448 967 439 969 q 468 964 457 964 q 514 1038 506 964 l 669 1015 q 610 863 667 921 q 468 804 554 804 q 340 842 401 804 q 299 866 310 861 q 272 871 289 871 q 225 799 235 871 l 71 821 q 130 972 74 914 q 272 1031 186 1031 q 401 993 336 1031 z "},"æ":{"ha":1244,"x_min":51,"x_max":1196,"o":"m 1196 369 q 1193 286 1196 319 l 708 286 q 763 199 725 229 q 851 168 801 168 q 981 250 931 168 l 1185 164 q 1048 31 1136 78 q 844 -17 960 -17 q 682 15 753 -17 q 564 104 611 47 q 451 14 517 44 q 310 -17 385 -17 q 117 43 183 -17 q 51 200 51 103 q 124 366 51 307 q 344 440 197 425 l 468 454 l 468 456 q 440 533 468 504 q 361 561 411 561 q 288 535 317 561 q 257 461 258 508 l 51 461 q 151 660 63 593 q 361 728 239 728 q 601 649 515 728 q 833 728 694 728 q 1039 673 957 728 q 1158 536 1121 618 q 1196 369 1196 454 m 949 446 q 915 529 946 497 q 826 561 883 561 q 751 532 783 561 q 707 446 719 503 l 949 446 m 342 150 q 492 249 421 150 q 482 294 488 264 l 350 279 q 289 256 308 274 q 269 211 269 238 q 288 167 269 185 q 342 150 307 150 z "},"ǽ":{"ha":1244,"x_min":51,"x_max":1196,"o":"m 1196 369 q 1193 286 1196 319 l 708 286 q 763 199 725 229 q 851 168 801 168 q 981 250 931 168 l 1185 164 q 1048 31 1136 78 q 844 -17 960 -17 q 682 15 753 -17 q 564 104 611 47 q 451 14 517 44 q 310 -17 385 -17 q 117 43 183 -17 q 51 200 51 103 q 124 366 51 307 q 344 440 197 425 l 468 454 l 468 456 q 440 533 468 504 q 361 561 411 561 q 288 535 317 561 q 257 461 258 508 l 51 461 q 151 660 63 593 q 361 728 239 728 q 601 649 515 728 q 833 728 694 728 q 1039 673 957 728 q 1158 536 1121 618 q 1196 369 1196 454 m 949 446 q 915 529 946 497 q 826 561 883 561 q 751 532 783 561 q 707 446 719 503 l 949 446 m 342 150 q 492 249 421 150 q 482 294 488 264 l 350 279 q 289 256 308 274 q 269 211 269 238 q 288 167 269 185 q 342 150 307 150 m 635 1028 l 892 1028 l 719 822 l 560 822 l 635 1028 z "},"b":{"ha":856,"x_min":76,"x_max":807,"o":"m 483 728 q 653 681 579 728 q 767 550 726 635 q 807 356 807 465 q 767 161 807 246 q 653 30 726 76 q 483 -17 579 -17 q 385 1 435 -17 q 306 47 335 19 l 306 0 l 76 0 l 76 972 l 306 972 l 306 664 q 385 710 335 692 q 483 728 435 728 m 436 181 q 538 228 499 181 q 576 356 576 276 q 538 482 576 433 q 436 531 500 531 q 365 513 400 531 q 306 468 329 496 l 306 243 q 365 198 329 215 q 436 181 400 181 z "},"c":{"ha":811,"x_min":49,"x_max":763,"o":"m 411 -17 q 224 31 307 -17 q 95 163 142 78 q 49 356 49 249 q 95 548 49 463 q 224 681 142 633 q 411 728 307 728 q 652 658 558 728 q 763 465 746 589 l 542 422 q 501 503 535 472 q 419 533 467 533 q 320 485 358 533 q 282 356 282 436 q 320 226 282 275 q 419 178 358 178 q 498 205 467 178 q 539 278 529 232 l 760 232 q 649 50 742 117 q 411 -17 556 -17 z "},"ć":{"ha":811,"x_min":49,"x_max":763,"o":"m 411 -17 q 224 31 307 -17 q 95 163 142 78 q 49 356 49 249 q 95 548 49 463 q 224 681 142 633 q 411 728 307 728 q 652 658 558 728 q 763 465 746 589 l 542 422 q 501 503 535 472 q 419 533 467 533 q 320 485 358 533 q 282 356 282 436 q 320 226 282 275 q 419 178 358 178 q 498 205 467 178 q 539 278 529 232 l 760 232 q 649 50 742 117 q 411 -17 556 -17 m 376 1011 l 633 1011 l 461 806 l 301 806 l 376 1011 z "},"č":{"ha":811,"x_min":49,"x_max":763,"o":"m 411 -17 q 224 31 307 -17 q 95 163 142 78 q 49 356 49 249 q 95 548 49 463 q 224 681 142 633 q 411 728 307 728 q 652 658 558 728 q 763 465 746 589 l 542 422 q 501 503 535 472 q 419 533 467 533 q 320 485 358 533 q 282 356 282 436 q 320 226 282 275 q 419 178 358 178 q 498 205 467 178 q 539 278 529 232 l 760 232 q 649 50 742 117 q 411 -17 556 -17 m 150 1011 l 310 1011 l 406 919 l 501 1011 l 661 1011 l 506 806 l 304 806 l 150 1011 z "},"ç":{"ha":811,"x_min":49,"x_max":763,"o":"m 419 178 q 498 205 467 178 q 539 278 529 232 l 760 232 q 681 78 746 140 q 515 -7 617 15 l 440 -206 l 183 -206 l 346 -11 q 191 53 258 3 q 86 181 124 103 q 49 356 49 260 q 95 548 49 463 q 224 681 142 633 q 411 728 307 728 q 652 658 558 728 q 763 465 746 589 l 542 422 q 501 503 535 472 q 419 533 467 533 q 320 485 358 533 q 282 356 282 436 q 320 226 282 275 q 419 178 358 178 z "},"ĉ":{"ha":811,"x_min":49,"x_max":763,"o":"m 411 -17 q 224 31 307 -17 q 95 163 142 78 q 49 356 49 249 q 95 548 49 463 q 224 681 142 633 q 411 728 307 728 q 652 658 558 728 q 763 465 746 589 l 542 422 q 501 503 535 472 q 419 533 467 533 q 320 485 358 533 q 282 356 282 436 q 320 226 282 275 q 419 178 358 178 q 498 205 467 178 q 539 278 529 232 l 760 232 q 649 50 742 117 q 411 -17 556 -17 m 506 1011 l 661 806 l 501 806 l 406 897 l 310 806 l 150 806 l 304 1011 l 506 1011 z "},"ċ":{"ha":811,"x_min":49,"x_max":763,"o":"m 411 -17 q 224 31 307 -17 q 95 163 142 78 q 49 356 49 249 q 95 548 49 463 q 224 681 142 633 q 411 728 307 728 q 652 658 558 728 q 763 465 746 589 l 542 422 q 501 503 535 472 q 419 533 467 533 q 320 485 358 533 q 282 356 282 436 q 320 226 282 275 q 419 178 358 178 q 498 205 467 178 q 539 278 529 232 l 760 232 q 649 50 742 117 q 411 -17 556 -17 m 404 796 q 309 835 347 796 q 271 929 271 874 q 309 1022 271 983 q 404 1061 347 1061 q 501 1022 463 1061 q 540 929 540 983 q 501 835 540 874 q 404 796 463 796 z "},"d":{"ha":856,"x_min":49,"x_max":779,"o":"m 779 972 l 779 0 l 550 0 l 550 47 q 471 1 521 19 q 372 -17 421 -17 q 203 30 276 -17 q 89 161 129 76 q 49 356 49 246 q 89 550 49 465 q 203 681 129 635 q 372 728 276 728 q 471 710 421 728 q 550 664 521 692 l 550 972 l 779 972 m 419 181 q 491 198 456 181 q 550 243 526 215 l 550 468 q 491 513 526 496 q 419 531 456 531 q 317 482 356 531 q 279 356 279 433 q 318 228 279 276 q 419 181 357 181 z "},"ð":{"ha":865,"x_min":49,"x_max":879,"o":"m 879 772 l 779 772 l 779 443 q 688 101 779 218 q 417 -17 596 -17 q 222 30 306 -17 q 94 161 139 76 q 49 356 49 246 q 89 550 49 465 q 203 681 129 635 q 372 728 276 728 q 471 710 421 728 q 550 664 521 692 l 550 772 l 408 772 l 408 922 l 550 922 l 550 972 l 779 972 l 779 922 l 879 922 l 879 772 m 551 467 q 492 513 528 496 q 419 531 457 531 q 317 482 356 531 q 279 356 279 433 q 318 228 279 276 q 419 181 357 181 q 513 225 475 181 q 551 375 551 269 l 551 467 z "},"ď":{"ha":1032,"x_min":49,"x_max":1081,"o":"m 779 972 l 779 0 l 550 0 l 550 47 q 471 1 521 19 q 372 -17 421 -17 q 203 30 276 -17 q 89 161 129 76 q 49 356 49 246 q 89 550 49 465 q 203 681 129 635 q 372 728 276 728 q 471 710 421 728 q 550 664 521 692 l 550 972 l 779 972 m 419 181 q 491 198 456 181 q 550 243 526 215 l 550 468 q 491 513 526 496 q 419 531 456 531 q 317 482 356 531 q 279 356 279 433 q 318 228 279 276 q 419 181 357 181 m 868 1079 l 1081 1079 l 956 806 l 826 806 l 868 1079 z "},"đ":{"ha":856,"x_min":49,"x_max":871,"o":"m 871 778 l 779 778 l 779 0 l 550 0 l 550 47 q 471 1 521 19 q 372 -17 421 -17 q 203 30 276 -17 q 89 161 129 76 q 49 356 49 246 q 89 550 49 465 q 203 681 129 635 q 372 728 276 728 q 471 710 421 728 q 550 664 521 692 l 550 778 l 400 778 l 400 928 l 550 928 l 550 972 l 779 972 l 779 928 l 871 928 l 871 778 m 419 181 q 491 198 456 181 q 550 243 526 215 l 550 468 q 491 513 526 496 q 419 531 456 531 q 317 482 356 531 q 279 356 279 433 q 318 228 279 276 q 419 181 357 181 z "},"e":{"ha":815,"x_min":49,"x_max":767,"o":"m 767 369 q 764 286 767 319 l 279 286 q 334 199 296 229 q 422 168 372 168 q 551 250 501 168 l 756 164 q 619 31 707 78 q 415 -17 531 -17 q 213 36 296 -17 q 90 174 131 89 q 49 356 49 260 q 87 533 49 447 q 206 673 125 618 q 404 728 286 728 q 610 673 528 728 q 729 536 692 618 q 767 369 767 454 m 519 446 q 485 529 517 497 q 397 561 454 561 q 322 532 354 561 q 278 446 290 503 l 519 446 z "},"é":{"ha":815,"x_min":49,"x_max":767,"o":"m 767 369 q 764 286 767 319 l 279 286 q 334 199 296 229 q 422 168 372 168 q 551 250 501 168 l 756 164 q 619 31 707 78 q 415 -17 531 -17 q 213 36 296 -17 q 90 174 131 89 q 49 356 49 260 q 87 533 49 447 q 206 673 125 618 q 404 728 286 728 q 610 673 528 728 q 729 536 692 618 q 767 369 767 454 m 519 446 q 485 529 517 497 q 397 561 454 561 q 322 532 354 561 q 278 446 290 503 l 519 446 m 379 1011 l 636 1011 l 464 806 l 304 806 l 379 1011 z "},"ĕ":{"ha":815,"x_min":49,"x_max":767,"o":"m 767 369 q 764 286 767 319 l 279 286 q 334 199 296 229 q 422 168 372 168 q 551 250 501 168 l 756 164 q 619 31 707 78 q 415 -17 531 -17 q 213 36 296 -17 q 90 174 131 89 q 49 356 49 260 q 87 533 49 447 q 206 673 125 618 q 404 728 286 728 q 610 673 528 728 q 729 536 692 618 q 767 369 767 454 m 519 446 q 485 529 517 497 q 397 561 454 561 q 322 532 354 561 q 278 446 290 503 l 519 446 m 407 801 q 260 858 318 801 q 201 1000 201 914 l 363 1000 q 407 942 363 942 q 441 957 429 942 q 453 1000 453 972 l 614 1000 q 555 858 614 914 q 407 801 496 801 z "},"ě":{"ha":815,"x_min":49,"x_max":767,"o":"m 767 369 q 764 286 767 319 l 279 286 q 334 199 296 229 q 422 168 372 168 q 551 250 501 168 l 756 164 q 619 31 707 78 q 415 -17 531 -17 q 213 36 296 -17 q 90 174 131 89 q 49 356 49 260 q 87 533 49 447 q 206 673 125 618 q 404 728 286 728 q 610 673 528 728 q 729 536 692 618 q 767 369 767 454 m 519 446 q 485 529 517 497 q 397 561 454 561 q 322 532 354 561 q 278 446 290 503 l 519 446 m 153 1011 l 313 1011 l 408 919 l 504 1011 l 664 1011 l 508 806 l 307 806 l 153 1011 z "},"ê":{"ha":815,"x_min":49,"x_max":767,"o":"m 767 369 q 764 286 767 319 l 279 286 q 334 199 296 229 q 422 168 372 168 q 551 250 501 168 l 756 164 q 619 31 707 78 q 415 -17 531 -17 q 213 36 296 -17 q 90 174 131 89 q 49 356 49 260 q 87 533 49 447 q 206 673 125 618 q 404 728 286 728 q 610 673 528 728 q 729 536 692 618 q 767 369 767 454 m 519 446 q 485 529 517 497 q 397 561 454 561 q 322 532 354 561 q 278 446 290 503 l 519 446 m 508 1011 l 664 806 l 504 806 l 408 897 l 313 806 l 153 806 l 307 1011 l 508 1011 z "},"ë":{"ha":815,"x_min":49,"x_max":767,"o":"m 767 369 q 764 286 767 319 l 279 286 q 334 199 296 229 q 422 168 372 168 q 551 250 501 168 l 756 164 q 619 31 707 78 q 415 -17 531 -17 q 213 36 296 -17 q 90 174 131 89 q 49 356 49 260 q 87 533 49 447 q 206 673 125 618 q 404 728 286 728 q 610 673 528 728 q 729 536 692 618 q 767 369 767 454 m 519 446 q 485 529 517 497 q 397 561 454 561 q 322 532 354 561 q 278 446 290 503 l 519 446 m 261 806 q 178 838 210 806 q 146 919 146 871 q 178 1001 146 969 q 261 1033 210 1033 q 347 1001 314 1033 q 379 919 379 969 q 347 838 379 869 q 261 806 314 806 m 551 806 q 468 838 500 806 q 436 919 436 871 q 468 1001 436 969 q 551 1033 500 1033 q 636 1001 603 1033 q 669 919 669 968 q 636 838 669 871 q 551 806 603 806 z "},"ė":{"ha":815,"x_min":49,"x_max":767,"o":"m 767 369 q 764 286 767 319 l 279 286 q 334 199 296 229 q 422 168 372 168 q 551 250 501 168 l 756 164 q 619 31 707 78 q 415 -17 531 -17 q 213 36 296 -17 q 90 174 131 89 q 49 356 49 260 q 87 533 49 447 q 206 673 125 618 q 404 728 286 728 q 610 673 528 728 q 729 536 692 618 q 767 369 767 454 m 519 446 q 485 529 517 497 q 397 561 454 561 q 322 532 354 561 q 278 446 290 503 l 519 446 m 407 796 q 312 835 350 796 q 274 929 274 874 q 312 1022 274 983 q 407 1061 350 1061 q 504 1022 465 1061 q 543 929 543 983 q 504 835 543 874 q 407 796 465 796 z "},"è":{"ha":815,"x_min":49,"x_max":767,"o":"m 767 369 q 764 286 767 319 l 279 286 q 334 199 296 229 q 422 168 372 168 q 551 250 501 168 l 756 164 q 619 31 707 78 q 415 -17 531 -17 q 213 36 296 -17 q 90 174 131 89 q 49 356 49 260 q 87 533 49 447 q 206 673 125 618 q 404 728 286 728 q 610 673 528 728 q 729 536 692 618 q 767 369 767 454 m 519 446 q 485 529 517 497 q 397 561 454 561 q 322 532 354 561 q 278 446 290 503 l 519 446 m 340 806 l 168 1011 l 425 1011 l 500 806 l 340 806 z "},"ē":{"ha":815,"x_min":49,"x_max":767,"o":"m 767 369 q 764 286 767 319 l 279 286 q 334 199 296 229 q 422 168 372 168 q 551 250 501 168 l 756 164 q 619 31 707 78 q 415 -17 531 -17 q 213 36 296 -17 q 90 174 131 89 q 49 356 49 260 q 87 533 49 447 q 206 673 125 618 q 404 728 286 728 q 610 673 528 728 q 729 536 692 618 q 767 369 767 454 m 519 446 q 485 529 517 497 q 397 561 454 561 q 322 532 354 561 q 278 446 290 503 l 519 446 m 208 1000 l 608 1000 l 608 831 l 208 831 l 208 1000 z "},"ę":{"ha":815,"x_min":49,"x_max":767,"o":"m 767 369 q 764 286 767 319 l 279 286 q 334 199 296 229 q 422 168 372 168 q 551 250 501 168 l 756 164 q 656 53 718 97 q 514 -7 594 10 q 483 -72 483 -44 q 496 -103 483 -93 q 529 -114 508 -114 q 557 -110 549 -114 l 576 -253 q 542 -260 568 -257 q 490 -264 517 -264 q 363 -224 411 -264 q 314 -119 314 -185 q 351 -12 314 -65 q 184 56 253 1 q 82 190 115 111 q 49 356 49 269 q 87 533 49 447 q 206 673 125 618 q 404 728 286 728 q 610 673 528 728 q 729 536 692 618 q 767 369 767 454 m 519 446 q 485 529 517 497 q 397 561 454 561 q 322 532 354 561 q 278 446 290 503 l 519 446 z "},"f":{"ha":549,"x_min":21,"x_max":511,"o":"m 128 522 l 21 522 l 21 711 l 128 711 l 128 753 q 206 949 128 881 q 413 1017 285 1017 l 511 1017 l 511 831 l 451 831 q 383 809 408 831 q 357 744 357 788 l 357 711 l 511 711 l 511 522 l 357 522 l 357 0 l 128 0 l 128 522 z "},"g":{"ha":742,"x_min":14,"x_max":735,"o":"m 453 161 q 717 -42 717 153 q 622 -212 717 -161 q 372 -264 526 -264 q 109 -215 204 -264 q 14 -60 14 -165 q 31 8 14 -28 q 79 72 49 44 q 39 163 39 113 q 67 254 39 215 q 146 315 94 293 q 79 481 79 379 q 115 610 79 554 q 218 697 151 667 q 371 728 285 728 q 514 701 449 728 l 607 804 l 735 688 l 642 585 q 664 481 664 536 q 583 303 664 371 q 371 236 503 236 q 300 242 329 236 q 257 196 257 219 q 269 173 257 179 q 310 165 282 167 l 453 161 m 371 564 q 306 542 329 564 q 282 483 282 519 q 306 427 282 449 q 371 406 329 406 q 435 427 410 406 q 460 483 460 449 q 435 542 460 519 q 371 564 411 564 m 372 -86 q 476 -76 450 -86 q 501 -40 501 -65 q 483 -15 501 -19 q 413 -10 464 -11 l 297 -6 q 243 0 258 -3 q 229 -40 229 -22 q 258 -76 229 -65 q 372 -86 288 -86 z "},"ğ":{"ha":742,"x_min":14,"x_max":735,"o":"m 453 161 q 717 -42 717 153 q 622 -212 717 -161 q 372 -264 526 -264 q 109 -215 204 -264 q 14 -60 14 -165 q 31 8 14 -28 q 79 72 49 44 q 39 163 39 113 q 67 254 39 215 q 146 315 94 293 q 79 481 79 379 q 115 610 79 554 q 218 697 151 667 q 371 728 285 728 q 514 701 449 728 l 607 804 l 735 688 l 642 585 q 664 481 664 536 q 583 303 664 371 q 371 236 503 236 q 300 242 329 236 q 257 196 257 219 q 269 173 257 179 q 310 165 282 167 l 453 161 m 371 564 q 306 542 329 564 q 282 483 282 519 q 306 427 282 449 q 371 406 329 406 q 435 427 410 406 q 460 483 460 449 q 435 542 460 519 q 371 564 411 564 m 372 -86 q 476 -76 450 -86 q 501 -40 501 -65 q 483 -15 501 -19 q 413 -10 464 -11 l 297 -6 q 243 0 258 -3 q 229 -40 229 -22 q 258 -76 229 -65 q 372 -86 288 -86 m 367 801 q 219 858 278 801 q 161 1000 161 914 l 322 1000 q 367 942 322 942 q 401 957 389 942 q 413 1000 413 972 l 574 1000 q 515 858 574 914 q 367 801 456 801 z "},"ĝ":{"ha":742,"x_min":14,"x_max":735,"o":"m 453 161 q 717 -42 717 153 q 622 -212 717 -161 q 372 -264 526 -264 q 109 -215 204 -264 q 14 -60 14 -165 q 31 8 14 -28 q 79 72 49 44 q 39 163 39 113 q 67 254 39 215 q 146 315 94 293 q 79 481 79 379 q 115 610 79 554 q 218 697 151 667 q 371 728 285 728 q 514 701 449 728 l 607 804 l 735 688 l 642 585 q 664 481 664 536 q 583 303 664 371 q 371 236 503 236 q 300 242 329 236 q 257 196 257 219 q 269 173 257 179 q 310 165 282 167 l 453 161 m 371 564 q 306 542 329 564 q 282 483 282 519 q 306 427 282 449 q 371 406 329 406 q 435 427 410 406 q 460 483 460 449 q 435 542 460 519 q 371 564 411 564 m 372 -86 q 476 -76 450 -86 q 501 -40 501 -65 q 483 -15 501 -19 q 413 -10 464 -11 l 297 -6 q 243 0 258 -3 q 229 -40 229 -22 q 258 -76 229 -65 q 372 -86 288 -86 m 419 1028 l 575 822 l 415 822 l 319 914 l 224 822 l 64 822 l 218 1028 l 419 1028 z "},"ģ":{"ha":742,"x_min":14,"x_max":735,"o":"m 453 161 q 717 -42 717 153 q 622 -212 717 -161 q 372 -264 526 -264 q 109 -215 204 -264 q 14 -60 14 -165 q 31 8 14 -28 q 79 72 49 44 q 39 163 39 113 q 67 254 39 215 q 146 315 94 293 q 79 481 79 379 q 115 610 79 554 q 218 697 151 667 q 371 728 285 728 q 514 701 449 728 l 607 804 l 735 688 l 642 585 q 664 481 664 536 q 583 303 664 371 q 371 236 503 236 q 300 242 329 236 q 257 196 257 219 q 269 173 257 179 q 310 165 282 167 l 453 161 m 371 564 q 306 542 329 564 q 282 483 282 519 q 306 427 282 449 q 371 406 329 406 q 435 427 410 406 q 460 483 460 449 q 435 542 460 519 q 371 564 411 564 m 372 -86 q 476 -76 450 -86 q 501 -40 501 -65 q 483 -15 501 -19 q 413 -10 464 -11 l 297 -6 q 243 0 258 -3 q 229 -40 229 -22 q 258 -76 229 -65 q 372 -86 288 -86 m 468 806 l 233 806 l 324 1011 l 501 1011 l 468 806 z "},"ġ":{"ha":742,"x_min":14,"x_max":735,"o":"m 453 161 q 717 -42 717 153 q 622 -212 717 -161 q 372 -264 526 -264 q 109 -215 204 -264 q 14 -60 14 -165 q 31 8 14 -28 q 79 72 49 44 q 39 163 39 113 q 67 254 39 215 q 146 315 94 293 q 79 481 79 379 q 115 610 79 554 q 218 697 151 667 q 371 728 285 728 q 514 701 449 728 l 607 804 l 735 688 l 642 585 q 664 481 664 536 q 583 303 664 371 q 371 236 503 236 q 300 242 329 236 q 257 196 257 219 q 269 173 257 179 q 310 165 282 167 l 453 161 m 371 564 q 306 542 329 564 q 282 483 282 519 q 306 427 282 449 q 371 406 329 406 q 435 427 410 406 q 460 483 460 449 q 435 542 460 519 q 371 564 411 564 m 372 -86 q 476 -76 450 -86 q 501 -40 501 -65 q 483 -15 501 -19 q 413 -10 464 -11 l 297 -6 q 243 0 258 -3 q 229 -40 229 -22 q 258 -76 229 -65 q 372 -86 288 -86 m 367 796 q 272 835 310 796 q 233 929 233 874 q 272 1022 233 983 q 367 1061 310 1061 q 464 1022 425 1061 q 503 929 503 983 q 464 835 503 874 q 367 796 425 796 z "},"h":{"ha":847,"x_min":76,"x_max":771,"o":"m 504 728 q 642 695 582 728 q 737 602 703 663 q 771 464 771 542 l 771 0 l 542 0 l 542 410 q 512 499 542 465 q 433 533 482 533 q 364 517 399 533 q 306 474 329 501 l 306 0 l 76 0 l 76 972 l 306 972 l 306 667 q 390 711 336 694 q 504 728 444 728 z "},"ħ":{"ha":847,"x_min":-14,"x_max":771,"o":"m 504 728 q 642 695 582 728 q 737 602 703 663 q 771 464 771 542 l 771 0 l 542 0 l 542 410 q 512 499 542 465 q 433 533 482 533 q 364 517 399 533 q 306 474 329 501 l 306 0 l 76 0 l 76 765 l -14 765 l -14 915 l 76 915 l 76 972 l 306 972 l 306 915 l 457 915 l 457 765 l 306 765 l 306 667 q 390 711 336 694 q 504 728 444 728 z "},"ĥ":{"ha":847,"x_min":-53,"x_max":771,"o":"m 504 728 q 642 695 582 728 q 737 602 703 663 q 771 464 771 542 l 771 0 l 542 0 l 542 410 q 512 499 542 465 q 433 533 482 533 q 364 517 399 533 q 306 474 329 501 l 306 0 l 76 0 l 76 972 l 306 972 l 306 667 q 390 711 336 694 q 504 728 444 728 m 303 1307 l 458 1101 l 299 1101 l 203 1193 l 107 1101 l -53 1101 l 101 1307 l 303 1307 z "},"i":{"ha":382,"x_min":57,"x_max":326,"o":"m 76 711 l 306 711 l 306 0 l 76 0 l 76 711 m 190 796 q 95 835 133 796 q 57 929 57 874 q 95 1022 57 983 q 190 1061 133 1061 q 288 1022 249 1061 q 326 929 326 983 q 288 835 326 874 q 190 796 249 796 z "},"ı":{"ha":382,"x_min":76,"x_max":306,"o":"m 76 711 l 306 711 l 306 0 l 76 0 l 76 711 z "},"í":{"ha":382,"x_min":76,"x_max":419,"o":"m 76 711 l 306 711 l 306 0 l 76 0 l 76 711 m 163 1011 l 419 1011 l 247 806 l 88 806 l 163 1011 z "},"ĭ":{"ha":382,"x_min":-15,"x_max":397,"o":"m 76 711 l 306 711 l 306 0 l 76 0 l 76 711 m 190 801 q 43 858 101 801 q -15 1000 -15 914 l 146 1000 q 190 942 146 942 q 224 957 213 942 q 236 1000 236 972 l 397 1000 q 338 858 397 914 q 190 801 279 801 z "},"î":{"ha":382,"x_min":-64,"x_max":447,"o":"m 76 711 l 306 711 l 306 0 l 76 0 l 76 711 m 292 1011 l 447 806 l 288 806 l 192 897 l 96 806 l -64 806 l 90 1011 l 292 1011 z "},"ï":{"ha":382,"x_min":-71,"x_max":453,"o":"m 76 711 l 306 711 l 306 0 l 76 0 l 76 711 m 44 806 q -39 838 -7 806 q -71 919 -71 871 q -39 1001 -71 969 q 44 1033 -7 1033 q 130 1001 97 1033 q 163 919 163 969 q 130 838 163 869 q 44 806 97 806 m 335 806 q 251 838 283 806 q 219 919 219 871 q 251 1001 219 969 q 335 1033 283 1033 q 419 1001 386 1033 q 453 919 453 968 q 419 838 453 871 q 335 806 386 806 z "},"ì":{"ha":382,"x_min":-49,"x_max":306,"o":"m 76 711 l 306 711 l 306 0 l 76 0 l 76 711 m 124 806 l -49 1011 l 208 1011 l 283 806 l 124 806 z "},"ī":{"ha":382,"x_min":-8,"x_max":392,"o":"m 76 711 l 306 711 l 306 0 l 76 0 l 76 711 m -8 1000 l 392 1000 l 392 831 l -8 831 l -8 1000 z "},"į":{"ha":382,"x_min":57,"x_max":363,"o":"m 190 796 q 95 835 133 796 q 57 929 57 874 q 95 1022 57 983 q 190 1061 133 1061 q 288 1022 249 1061 q 326 929 326 983 q 288 835 326 874 q 190 796 249 796 m 363 -253 q 328 -260 354 -257 q 276 -264 303 -264 q 149 -224 197 -264 q 100 -119 100 -185 q 113 -58 100 -90 q 146 0 125 -26 l 76 0 l 76 711 l 306 711 l 306 0 q 279 -37 289 -21 q 269 -72 269 -53 q 282 -103 269 -93 q 315 -114 294 -114 q 343 -110 335 -114 l 363 -253 z "},"ĩ":{"ha":382,"x_min":-108,"x_max":490,"o":"m 76 711 l 306 711 l 306 0 l 76 0 l 76 711 m 222 993 q 246 978 232 988 q 269 967 260 969 q 289 964 278 964 q 335 1038 326 964 l 490 1015 q 431 863 488 921 q 289 804 375 804 q 161 842 222 804 q 120 866 131 861 q 93 871 110 871 q 46 799 56 871 l -108 821 q -49 972 -106 914 q 93 1031 7 1031 q 222 993 157 1031 z "},"j":{"ha":382,"x_min":-54,"x_max":326,"o":"m -54 -265 l -54 -68 q -28 -69 -54 -69 q 50 -37 24 -69 q 76 58 76 -4 l 76 711 l 306 711 l 306 26 q 222 -189 306 -110 q 0 -268 139 -268 l -54 -265 m 190 796 q 95 835 133 796 q 57 929 57 874 q 95 1022 57 983 q 190 1061 133 1061 q 288 1022 249 1061 q 326 929 326 983 q 288 835 326 874 q 190 796 249 796 z "},"ȷ":{"ha":382,"x_min":-54,"x_max":306,"o":"m -54 -265 l -54 -68 q -28 -69 -54 -69 q 50 -37 24 -69 q 76 58 76 -4 l 76 711 l 306 711 l 306 26 q 222 -189 306 -110 q 0 -268 139 -268 l -54 -265 z "},"ĵ":{"ha":382,"x_min":-64,"x_max":447,"o":"m -54 -265 l -54 -68 q -28 -69 -54 -69 q 50 -37 24 -69 q 76 58 76 -4 l 76 711 l 306 711 l 306 26 q 222 -189 306 -110 q 0 -268 139 -268 l -54 -265 m 292 1011 l 447 806 l 288 806 l 192 897 l 96 806 l -64 806 l 90 1011 l 292 1011 z "},"k":{"ha":871,"x_min":76,"x_max":857,"o":"m 350 301 l 306 301 l 306 0 l 76 0 l 76 972 l 306 972 l 306 490 l 350 490 l 547 711 l 829 711 l 547 397 l 857 0 l 576 0 l 350 301 z "},"ķ":{"ha":871,"x_min":76,"x_max":857,"o":"m 350 301 l 306 301 l 306 0 l 76 0 l 76 972 l 306 972 l 306 490 l 350 490 l 547 711 l 829 711 l 547 397 l 857 0 l 576 0 l 350 301 m 296 -58 l 539 -58 l 408 -264 l 249 -264 l 296 -58 z "},"ĸ":{"ha":871,"x_min":76,"x_max":857,"o":"m 353 288 l 307 288 l 307 0 l 76 0 l 76 711 l 307 711 l 307 476 l 346 476 l 547 711 l 829 711 l 547 385 l 857 0 l 576 0 l 353 288 z "},"l":{"ha":382,"x_min":76,"x_max":306,"o":"m 76 972 l 306 972 l 306 0 l 76 0 l 76 972 z "},"ĺ":{"ha":382,"x_min":76,"x_max":419,"o":"m 76 972 l 306 972 l 306 0 l 76 0 l 76 972 m 163 1272 l 419 1272 l 247 1067 l 88 1067 l 163 1272 z "},"ľ":{"ha":565,"x_min":76,"x_max":614,"o":"m 76 972 l 306 972 l 306 0 l 76 0 l 76 972 m 401 1096 l 614 1096 l 489 822 l 360 822 l 401 1096 z "},"ļ":{"ha":382,"x_min":32,"x_max":322,"o":"m 76 972 l 306 972 l 306 0 l 76 0 l 76 972 m 79 -58 l 322 -58 l 192 -264 l 32 -264 l 79 -58 z "},"ŀ":{"ha":632,"x_min":76,"x_max":639,"o":"m 76 972 l 306 972 l 306 0 l 76 0 l 76 972 z "},"ł":{"ha":465,"x_min":0,"x_max":465,"o":"m 465 535 l 349 479 l 349 0 l 119 0 l 119 371 l 0 314 l 0 501 l 119 558 l 119 972 l 349 972 l 349 667 l 465 722 l 465 535 z "},"m":{"ha":1260,"x_min":76,"x_max":1183,"o":"m 929 728 q 1060 694 1003 728 q 1151 601 1118 661 q 1183 464 1183 542 l 1183 0 l 954 0 l 954 410 q 927 499 954 465 q 857 533 900 533 q 796 518 826 533 q 744 474 765 503 l 744 464 l 744 0 l 515 0 l 515 410 q 488 499 515 465 q 418 533 461 533 q 357 518 388 533 q 306 474 326 503 l 306 0 l 76 0 l 76 711 l 306 711 l 306 667 q 385 711 335 694 q 490 728 435 728 q 607 703 554 728 q 693 632 660 678 q 795 701 731 675 q 929 728 860 728 z "},"n":{"ha":847,"x_min":76,"x_max":771,"o":"m 504 728 q 642 695 582 728 q 737 602 703 663 q 771 464 771 542 l 771 0 l 542 0 l 542 410 q 512 499 542 465 q 433 533 482 533 q 364 517 399 533 q 306 474 329 501 l 306 0 l 76 0 l 76 711 l 306 711 l 306 667 q 390 711 336 694 q 504 728 444 728 z "},"ń":{"ha":847,"x_min":76,"x_max":771,"o":"m 504 728 q 642 695 582 728 q 737 602 703 663 q 771 464 771 542 l 771 0 l 542 0 l 542 410 q 512 499 542 465 q 433 533 482 533 q 364 517 399 533 q 306 474 329 501 l 306 0 l 76 0 l 76 711 l 306 711 l 306 667 q 390 711 336 694 q 504 728 444 728 m 394 1011 l 651 1011 l 479 806 l 319 806 l 394 1011 z "},"ŉ":{"ha":847,"x_min":76,"x_max":771,"o":"m 504 728 q 642 695 582 728 q 737 602 703 663 q 771 464 771 542 l 771 0 l 542 0 l 542 410 q 512 499 542 465 q 433 533 482 533 q 364 517 399 533 q 306 474 329 501 l 306 0 l 76 0 l 76 711 l 306 711 l 306 667 q 390 711 336 694 q 504 728 444 728 m 140 1096 l 353 1096 l 228 822 l 99 822 l 140 1096 z "},"ň":{"ha":847,"x_min":76,"x_max":771,"o":"m 504 728 q 642 695 582 728 q 737 602 703 663 q 771 464 771 542 l 771 0 l 542 0 l 542 410 q 512 499 542 465 q 433 533 482 533 q 364 517 399 533 q 306 474 329 501 l 306 0 l 76 0 l 76 711 l 306 711 l 306 667 q 390 711 336 694 q 504 728 444 728 m 168 1011 l 328 1011 l 424 919 l 519 1011 l 679 1011 l 524 806 l 322 806 l 168 1011 z "},"ņ":{"ha":847,"x_min":76,"x_max":771,"o":"m 504 728 q 642 695 582 728 q 737 602 703 663 q 771 464 771 542 l 771 0 l 542 0 l 542 410 q 512 499 542 465 q 433 533 482 533 q 364 517 399 533 q 306 474 329 501 l 306 0 l 76 0 l 76 711 l 306 711 l 306 667 q 390 711 336 694 q 504 728 444 728 m 325 -58 l 568 -58 l 438 -264 l 278 -264 l 325 -58 z "},"ŋ":{"ha":847,"x_min":76,"x_max":771,"o":"m 771 0 l 769 0 l 769 -1 q 728 -141 769 -81 q 610 -235 686 -201 q 433 -268 533 -268 q 400 -267 411 -268 l 397 -71 q 428 -72 407 -72 q 514 -40 488 -72 q 540 69 540 -8 l 540 319 l 542 319 l 542 410 q 512 499 542 465 q 433 533 482 533 q 364 517 399 533 q 306 474 329 501 l 306 0 l 76 0 l 76 711 l 306 711 l 306 667 q 390 711 336 694 q 504 728 444 728 q 642 695 582 728 q 737 602 703 663 q 771 464 771 542 l 771 0 z "},"ñ":{"ha":847,"x_min":76,"x_max":771,"o":"m 504 728 q 642 695 582 728 q 737 602 703 663 q 771 464 771 542 l 771 0 l 542 0 l 542 410 q 512 499 542 465 q 433 533 482 533 q 364 517 399 533 q 306 474 329 501 l 306 0 l 76 0 l 76 711 l 306 711 l 306 667 q 390 711 336 694 q 504 728 444 728 m 454 993 q 478 978 464 988 q 501 967 492 969 q 521 964 510 964 q 567 1038 558 964 l 722 1015 q 663 863 719 921 q 521 804 607 804 q 393 842 454 804 q 352 866 363 861 q 325 871 342 871 q 278 799 288 871 l 124 821 q 183 972 126 914 q 325 1031 239 1031 q 454 993 389 1031 z "},"o":{"ha":844,"x_min":49,"x_max":796,"o":"m 422 -17 q 230 32 315 -17 q 97 165 144 81 q 49 356 49 250 q 97 546 49 461 q 230 679 144 631 q 422 728 315 728 q 615 679 529 728 q 748 546 700 631 q 796 356 796 461 q 748 165 796 250 q 615 32 700 81 q 422 -17 529 -17 m 422 178 q 527 226 488 178 q 567 356 567 275 q 527 485 567 436 q 422 533 488 533 q 317 485 357 533 q 278 356 278 436 q 317 226 278 275 q 422 178 357 178 z "},"ó":{"ha":844,"x_min":49,"x_max":796,"o":"m 422 -17 q 230 32 315 -17 q 97 165 144 81 q 49 356 49 250 q 97 546 49 461 q 230 679 144 631 q 422 728 315 728 q 615 679 529 728 q 748 546 700 631 q 796 356 796 461 q 748 165 796 250 q 615 32 700 81 q 422 -17 529 -17 m 422 178 q 527 226 488 178 q 567 356 567 275 q 527 485 567 436 q 422 533 488 533 q 317 485 357 533 q 278 356 278 436 q 317 226 278 275 q 422 178 357 178 m 394 1011 l 651 1011 l 479 806 l 319 806 l 394 1011 z "},"ŏ":{"ha":844,"x_min":49,"x_max":796,"o":"m 422 -17 q 230 32 315 -17 q 97 165 144 81 q 49 356 49 250 q 97 546 49 461 q 230 679 144 631 q 422 728 315 728 q 615 679 529 728 q 748 546 700 631 q 796 356 796 461 q 748 165 796 250 q 615 32 700 81 q 422 -17 529 -17 m 422 178 q 527 226 488 178 q 567 356 567 275 q 527 485 567 436 q 422 533 488 533 q 317 485 357 533 q 278 356 278 436 q 317 226 278 275 q 422 178 357 178 m 422 801 q 275 858 333 801 q 217 1000 217 914 l 378 1000 q 422 942 378 942 q 456 957 444 942 q 468 1000 468 972 l 629 1000 q 570 858 629 914 q 422 801 511 801 z "},"ô":{"ha":844,"x_min":49,"x_max":796,"o":"m 422 -17 q 230 32 315 -17 q 97 165 144 81 q 49 356 49 250 q 97 546 49 461 q 230 679 144 631 q 422 728 315 728 q 615 679 529 728 q 748 546 700 631 q 796 356 796 461 q 748 165 796 250 q 615 32 700 81 q 422 -17 529 -17 m 422 178 q 527 226 488 178 q 567 356 567 275 q 527 485 567 436 q 422 533 488 533 q 317 485 357 533 q 278 356 278 436 q 317 226 278 275 q 422 178 357 178 m 524 1011 l 679 806 l 519 806 l 424 897 l 328 806 l 168 806 l 322 1011 l 524 1011 z "},"ö":{"ha":844,"x_min":49,"x_max":796,"o":"m 422 -17 q 230 32 315 -17 q 97 165 144 81 q 49 356 49 250 q 97 546 49 461 q 230 679 144 631 q 422 728 315 728 q 615 679 529 728 q 748 546 700 631 q 796 356 796 461 q 748 165 796 250 q 615 32 700 81 q 422 -17 529 -17 m 422 178 q 527 226 488 178 q 567 356 567 275 q 527 485 567 436 q 422 533 488 533 q 317 485 357 533 q 278 356 278 436 q 317 226 278 275 q 422 178 357 178 m 276 806 q 193 838 225 806 q 161 919 161 871 q 193 1001 161 969 q 276 1033 225 1033 q 362 1001 329 1033 q 394 919 394 969 q 362 838 394 869 q 276 806 329 806 m 567 806 q 483 838 515 806 q 451 919 451 871 q 483 1001 451 969 q 567 1033 515 1033 q 651 1001 618 1033 q 685 919 685 968 q 651 838 685 871 q 567 806 618 806 z "},"ò":{"ha":844,"x_min":49,"x_max":796,"o":"m 422 -17 q 230 32 315 -17 q 97 165 144 81 q 49 356 49 250 q 97 546 49 461 q 230 679 144 631 q 422 728 315 728 q 615 679 529 728 q 748 546 700 631 q 796 356 796 461 q 748 165 796 250 q 615 32 700 81 q 422 -17 529 -17 m 422 178 q 527 226 488 178 q 567 356 567 275 q 527 485 567 436 q 422 533 488 533 q 317 485 357 533 q 278 356 278 436 q 317 226 278 275 q 422 178 357 178 m 356 806 l 183 1011 l 440 1011 l 515 806 l 356 806 z "},"ő":{"ha":844,"x_min":49,"x_max":796,"o":"m 422 -17 q 230 32 315 -17 q 97 165 144 81 q 49 356 49 250 q 97 546 49 461 q 230 679 144 631 q 422 728 315 728 q 615 679 529 728 q 748 546 700 631 q 796 356 796 461 q 748 165 796 250 q 615 32 700 81 q 422 -17 529 -17 m 422 178 q 527 226 488 178 q 567 356 567 275 q 527 485 567 436 q 422 533 488 533 q 317 485 357 533 q 278 356 278 436 q 317 226 278 275 q 422 178 357 178 m 272 1011 l 458 1011 l 371 806 l 197 806 l 272 1011 m 536 1011 l 736 1011 l 635 806 l 461 806 l 536 1011 z "},"ō":{"ha":844,"x_min":49,"x_max":796,"o":"m 422 -17 q 230 32 315 -17 q 97 165 144 81 q 49 356 49 250 q 97 546 49 461 q 230 679 144 631 q 422 728 315 728 q 615 679 529 728 q 748 546 700 631 q 796 356 796 461 q 748 165 796 250 q 615 32 700 81 q 422 -17 529 -17 m 422 178 q 527 226 488 178 q 567 356 567 275 q 527 485 567 436 q 422 533 488 533 q 317 485 357 533 q 278 356 278 436 q 317 226 278 275 q 422 178 357 178 m 224 1000 l 624 1000 l 624 831 l 224 831 l 224 1000 z "},"ø":{"ha":844,"x_min":49,"x_max":796,"o":"m 624 674 q 750 542 704 625 q 796 356 796 458 q 748 165 796 250 q 615 32 700 81 q 422 -17 529 -17 q 368 -14 404 -17 l 332 -111 l 185 -53 l 218 38 q 94 170 139 88 q 49 356 49 253 q 97 546 49 461 q 230 679 144 631 q 422 728 315 728 q 475 725 442 728 l 511 822 l 660 769 l 624 674 m 278 356 q 300 254 278 294 l 403 532 q 312 477 346 525 q 278 356 278 429 m 440 179 q 532 233 497 186 q 567 356 567 281 q 544 458 567 414 l 440 179 z "},"õ":{"ha":844,"x_min":49,"x_max":796,"o":"m 422 -17 q 230 32 315 -17 q 97 165 144 81 q 49 356 49 250 q 97 546 49 461 q 230 679 144 631 q 422 728 315 728 q 615 679 529 728 q 748 546 700 631 q 796 356 796 461 q 748 165 796 250 q 615 32 700 81 q 422 -17 529 -17 m 422 178 q 527 226 488 178 q 567 356 567 275 q 527 485 567 436 q 422 533 488 533 q 317 485 357 533 q 278 356 278 436 q 317 226 278 275 q 422 178 357 178 m 454 993 q 478 978 464 988 q 501 967 492 969 q 521 964 510 964 q 567 1038 558 964 l 722 1015 q 663 863 719 921 q 521 804 607 804 q 393 842 454 804 q 352 866 363 861 q 325 871 342 871 q 278 799 288 871 l 124 821 q 183 972 126 914 q 325 1031 239 1031 q 454 993 389 1031 z "},"œ":{"ha":1336,"x_min":49,"x_max":1288,"o":"m 1288 369 q 1285 286 1288 319 l 800 286 q 855 199 817 229 q 943 168 893 168 q 1072 250 1022 168 l 1276 164 q 1140 31 1228 78 q 936 -17 1051 -17 q 679 79 778 -17 q 564 8 629 33 q 422 -17 499 -17 q 230 32 315 -17 q 97 165 144 81 q 49 356 49 250 q 97 546 49 461 q 230 679 144 631 q 422 728 315 728 q 563 703 497 728 q 678 633 628 679 q 925 728 772 728 q 1131 673 1049 728 q 1250 536 1213 618 q 1288 369 1288 454 m 1040 446 q 1006 529 1038 497 q 918 561 975 561 q 843 532 875 561 q 799 446 811 503 l 1040 446 m 422 178 q 527 226 488 178 q 567 356 567 275 q 527 485 567 436 q 422 533 488 533 q 317 485 357 533 q 278 356 278 436 q 317 226 278 275 q 422 178 357 178 z "},"p":{"ha":856,"x_min":76,"x_max":807,"o":"m 483 728 q 653 681 579 728 q 767 550 726 635 q 807 356 807 465 q 767 161 807 246 q 653 30 726 76 q 483 -17 579 -17 q 385 1 435 -17 q 306 47 335 19 l 306 -261 l 76 -261 l 76 711 l 306 711 l 306 664 q 385 710 335 692 q 483 728 435 728 m 436 181 q 538 229 500 181 q 576 356 576 278 q 538 483 576 435 q 436 531 499 531 q 365 513 400 531 q 306 468 329 496 l 306 243 q 365 198 329 215 q 436 181 400 181 z "},"þ":{"ha":856,"x_min":76,"x_max":807,"o":"m 483 728 q 653 681 579 728 q 767 550 726 635 q 807 356 807 465 q 767 161 807 246 q 653 30 726 76 q 483 -17 579 -17 q 385 1 435 -17 q 306 47 335 19 l 306 -261 l 76 -261 l 76 972 l 306 972 l 306 664 q 385 710 335 692 q 483 728 435 728 m 436 181 q 538 229 500 181 q 576 356 576 278 q 538 483 576 435 q 436 531 499 531 q 365 513 400 531 q 306 468 329 496 l 306 243 q 365 198 329 215 q 436 181 400 181 z "},"q":{"ha":856,"x_min":49,"x_max":779,"o":"m 779 711 l 779 -261 l 550 -261 l 550 47 q 471 1 521 19 q 372 -17 421 -17 q 203 30 276 -17 q 89 161 129 76 q 49 356 49 246 q 89 550 49 465 q 203 681 129 635 q 372 728 276 728 q 471 710 421 728 q 550 664 521 692 l 550 711 l 779 711 m 419 181 q 491 198 456 181 q 550 243 526 215 l 550 468 q 491 513 526 496 q 419 531 456 531 q 318 483 357 531 q 279 356 279 435 q 317 229 279 278 q 419 181 356 181 z "},"r":{"ha":601,"x_min":76,"x_max":581,"o":"m 508 728 q 581 717 544 728 l 567 496 q 479 513 533 513 q 379 493 426 513 q 306 439 332 474 l 306 0 l 76 0 l 76 711 l 306 711 l 306 653 q 508 728 376 728 z "},"ŕ":{"ha":601,"x_min":76,"x_max":581,"o":"m 508 728 q 581 717 544 728 l 567 496 q 479 513 533 513 q 379 493 426 513 q 306 439 332 474 l 306 0 l 76 0 l 76 711 l 306 711 l 306 653 q 508 728 376 728 m 299 1011 l 556 1011 l 383 806 l 224 806 l 299 1011 z "},"ř":{"ha":601,"x_min":72,"x_max":583,"o":"m 508 728 q 581 717 544 728 l 567 496 q 479 513 533 513 q 379 493 426 513 q 306 439 332 474 l 306 0 l 76 0 l 76 711 l 306 711 l 306 653 q 508 728 376 728 m 72 1011 l 232 1011 l 328 919 l 424 1011 l 583 1011 l 428 806 l 226 806 l 72 1011 z "},"ŗ":{"ha":601,"x_min":17,"x_max":581,"o":"m 508 728 q 581 717 544 728 l 567 496 q 479 513 533 513 q 379 493 426 513 q 306 439 332 474 l 306 0 l 76 0 l 76 711 l 306 711 l 306 653 q 508 728 376 728 m 64 -58 l 307 -58 l 176 -264 l 17 -264 l 64 -58 z "},"s":{"ha":647,"x_min":14,"x_max":613,"o":"m 329 -17 q 127 45 208 -17 q 14 201 46 107 l 192 268 q 242 187 206 219 q 326 154 278 154 q 385 169 364 154 q 407 208 407 183 q 381 247 407 233 q 293 278 354 260 q 169 321 219 299 q 83 391 119 343 q 46 518 46 439 q 78 623 46 575 q 171 699 111 671 q 310 728 231 728 q 486 685 414 728 q 596 563 558 642 l 419 478 q 375 544 408 521 q 306 567 342 567 q 263 555 279 567 q 246 524 246 543 q 274 483 246 496 q 363 458 301 471 q 489 420 439 440 q 576 351 539 400 q 613 218 613 303 q 576 101 613 154 q 476 15 540 47 q 329 -17 411 -17 z "},"ś":{"ha":647,"x_min":14,"x_max":613,"o":"m 329 -17 q 127 45 208 -17 q 14 201 46 107 l 192 268 q 242 187 206 219 q 326 154 278 154 q 385 169 364 154 q 407 208 407 183 q 381 247 407 233 q 293 278 354 260 q 169 321 219 299 q 83 391 119 343 q 46 518 46 439 q 78 623 46 575 q 171 699 111 671 q 310 728 231 728 q 486 685 414 728 q 596 563 558 642 l 419 478 q 375 544 408 521 q 306 567 342 567 q 263 555 279 567 q 246 524 246 543 q 274 483 246 496 q 363 458 301 471 q 489 420 439 440 q 576 351 539 400 q 613 218 613 303 q 576 101 613 154 q 476 15 540 47 q 329 -17 411 -17 m 294 1011 l 551 1011 l 379 806 l 219 806 l 294 1011 z "},"š":{"ha":647,"x_min":14,"x_max":613,"o":"m 329 -17 q 127 45 208 -17 q 14 201 46 107 l 192 268 q 242 187 206 219 q 326 154 278 154 q 385 169 364 154 q 407 208 407 183 q 381 247 407 233 q 293 278 354 260 q 169 321 219 299 q 83 391 119 343 q 46 518 46 439 q 78 623 46 575 q 171 699 111 671 q 310 728 231 728 q 486 685 414 728 q 596 563 558 642 l 419 478 q 375 544 408 521 q 306 567 342 567 q 263 555 279 567 q 246 524 246 543 q 274 483 246 496 q 363 458 301 471 q 489 420 439 440 q 576 351 539 400 q 613 218 613 303 q 576 101 613 154 q 476 15 540 47 q 329 -17 411 -17 m 68 1011 l 228 1011 l 324 919 l 419 1011 l 579 1011 l 424 806 l 222 806 l 68 1011 z "},"ş":{"ha":647,"x_min":14,"x_max":613,"o":"m 613 218 q 559 78 613 139 q 417 -6 506 17 l 342 -206 l 85 -206 l 250 -8 q 100 67 161 10 q 14 201 39 124 l 192 268 q 242 187 206 219 q 326 154 278 154 q 385 169 364 154 q 407 208 407 183 q 381 247 407 233 q 293 278 354 260 q 169 321 219 299 q 83 391 119 343 q 46 518 46 439 q 78 623 46 575 q 171 699 111 671 q 310 728 231 728 q 486 685 414 728 q 596 563 558 642 l 419 478 q 375 544 408 521 q 306 567 342 567 q 263 555 279 567 q 246 524 246 543 q 274 483 246 496 q 363 458 301 471 q 489 420 439 440 q 576 351 539 400 q 613 218 613 303 z "},"ŝ":{"ha":647,"x_min":14,"x_max":613,"o":"m 329 -17 q 127 45 208 -17 q 14 201 46 107 l 192 268 q 242 187 206 219 q 326 154 278 154 q 385 169 364 154 q 407 208 407 183 q 381 247 407 233 q 293 278 354 260 q 169 321 219 299 q 83 391 119 343 q 46 518 46 439 q 78 623 46 575 q 171 699 111 671 q 310 728 231 728 q 486 685 414 728 q 596 563 558 642 l 419 478 q 375 544 408 521 q 306 567 342 567 q 263 555 279 567 q 246 524 246 543 q 274 483 246 496 q 363 458 301 471 q 489 420 439 440 q 576 351 539 400 q 613 218 613 303 q 576 101 613 154 q 476 15 540 47 q 329 -17 411 -17 m 424 1011 l 579 806 l 419 806 l 324 897 l 228 806 l 68 806 l 222 1011 l 424 1011 z "},"ș":{"ha":647,"x_min":14,"x_max":613,"o":"m 329 -17 q 127 45 208 -17 q 14 201 46 107 l 192 268 q 242 187 206 219 q 326 154 278 154 q 385 169 364 154 q 407 208 407 183 q 381 247 407 233 q 293 278 354 260 q 169 321 219 299 q 83 391 119 343 q 46 518 46 439 q 78 623 46 575 q 171 699 111 671 q 310 728 231 728 q 486 685 414 728 q 596 563 558 642 l 419 478 q 375 544 408 521 q 306 567 342 567 q 263 555 279 567 q 246 524 246 543 q 274 483 246 496 q 363 458 301 471 q 489 420 439 440 q 576 351 539 400 q 613 218 613 303 q 576 101 613 154 q 476 15 540 47 q 329 -17 411 -17 m 208 -58 l 451 -58 l 321 -264 l 161 -264 l 208 -58 z "},"ß":{"ha":903,"x_min":28,"x_max":861,"o":"m 529 -11 q 406 0 472 -11 l 406 211 q 507 199 450 199 q 584 227 554 199 q 614 301 614 256 q 570 387 614 360 q 440 414 526 414 l 406 414 l 406 628 l 432 628 q 522 653 489 628 q 554 726 554 678 q 528 788 554 761 q 457 815 503 815 q 382 785 411 815 q 353 703 353 754 l 353 0 l 104 0 l 104 414 l 28 414 l 28 628 l 104 628 l 104 699 q 153 856 104 790 q 283 956 203 922 q 457 989 364 989 q 631 957 556 989 q 746 869 706 925 q 786 742 786 813 q 756 625 786 675 q 676 558 725 575 q 815 461 768 525 q 861 290 861 397 q 772 65 861 140 q 529 -11 683 -11 z "},"ſ":{"ha":543,"x_min":21,"x_max":511,"o":"m 128 522 l 21 522 l 21 711 l 128 711 l 128 753 q 206 949 128 881 q 413 1017 285 1017 l 511 1017 l 511 831 l 451 831 q 383 809 408 831 q 357 744 357 788 l 357 0 l 128 0 l 128 522 z "},"t":{"ha":560,"x_min":21,"x_max":539,"o":"m 161 522 l 21 522 l 21 711 l 161 711 l 161 910 l 390 989 l 390 711 l 539 711 l 539 522 l 390 522 l 390 0 l 161 0 l 161 522 z "},"ŧ":{"ha":560,"x_min":21,"x_max":539,"o":"m 390 522 l 390 431 l 515 431 l 515 281 l 390 281 l 390 0 l 161 0 l 161 281 l 44 281 l 44 431 l 161 431 l 161 522 l 21 522 l 21 711 l 161 711 l 161 910 l 390 989 l 390 711 l 539 711 l 539 522 l 390 522 z "},"ť":{"ha":654,"x_min":21,"x_max":710,"o":"m 161 522 l 21 522 l 21 711 l 161 711 l 161 910 l 390 989 l 390 711 l 539 711 l 539 522 l 390 522 l 390 0 l 161 0 l 161 522 m 497 1096 l 710 1096 l 585 822 l 456 822 l 497 1096 z "},"ţ":{"ha":560,"x_min":21,"x_max":539,"o":"m 539 711 l 539 522 l 390 522 l 390 0 l 365 0 l 288 -206 l 31 -206 l 204 0 l 161 0 l 161 522 l 21 522 l 21 711 l 161 711 l 161 910 l 390 989 l 390 711 l 539 711 z "},"ț":{"ha":560,"x_min":21,"x_max":539,"o":"m 161 522 l 21 522 l 21 711 l 161 711 l 161 910 l 390 989 l 390 711 l 539 711 l 539 522 l 390 522 l 390 0 l 161 0 l 161 522 m 154 -58 l 397 -58 l 267 -264 l 107 -264 l 154 -58 z "},"u":{"ha":847,"x_min":76,"x_max":771,"o":"m 424 -17 q 242 19 321 -17 q 120 122 164 56 q 76 275 76 189 l 76 711 l 306 711 l 306 301 q 338 212 306 246 q 424 178 371 178 q 509 212 476 178 q 542 301 542 246 l 542 711 l 771 711 l 771 275 q 727 122 771 189 q 605 19 683 56 q 424 -17 526 -17 z "},"ú":{"ha":847,"x_min":76,"x_max":771,"o":"m 424 -17 q 242 19 321 -17 q 120 122 164 56 q 76 275 76 189 l 76 711 l 306 711 l 306 301 q 338 212 306 246 q 424 178 371 178 q 509 212 476 178 q 542 301 542 246 l 542 711 l 771 711 l 771 275 q 727 122 771 189 q 605 19 683 56 q 424 -17 526 -17 m 394 1011 l 651 1011 l 479 806 l 319 806 l 394 1011 z "},"ŭ":{"ha":847,"x_min":76,"x_max":771,"o":"m 424 -17 q 242 19 321 -17 q 120 122 164 56 q 76 275 76 189 l 76 711 l 306 711 l 306 301 q 338 212 306 246 q 424 178 371 178 q 509 212 476 178 q 542 301 542 246 l 542 711 l 771 711 l 771 275 q 727 122 771 189 q 605 19 683 56 q 424 -17 526 -17 m 422 801 q 275 858 333 801 q 217 1000 217 914 l 378 1000 q 422 942 378 942 q 456 957 444 942 q 468 1000 468 972 l 629 1000 q 570 858 629 914 q 422 801 511 801 z "},"û":{"ha":847,"x_min":76,"x_max":771,"o":"m 424 -17 q 242 19 321 -17 q 120 122 164 56 q 76 275 76 189 l 76 711 l 306 711 l 306 301 q 338 212 306 246 q 424 178 371 178 q 509 212 476 178 q 542 301 542 246 l 542 711 l 771 711 l 771 275 q 727 122 771 189 q 605 19 683 56 q 424 -17 526 -17 m 524 1011 l 679 806 l 519 806 l 424 897 l 328 806 l 168 806 l 322 1011 l 524 1011 z "},"ü":{"ha":847,"x_min":76,"x_max":771,"o":"m 424 -17 q 242 19 321 -17 q 120 122 164 56 q 76 275 76 189 l 76 711 l 306 711 l 306 301 q 338 212 306 246 q 424 178 371 178 q 509 212 476 178 q 542 301 542 246 l 542 711 l 771 711 l 771 275 q 727 122 771 189 q 605 19 683 56 q 424 -17 526 -17 m 276 806 q 193 838 225 806 q 161 919 161 871 q 193 1001 161 969 q 276 1033 225 1033 q 362 1001 329 1033 q 394 919 394 969 q 362 838 394 869 q 276 806 329 806 m 567 806 q 483 838 515 806 q 451 919 451 871 q 483 1001 451 969 q 567 1033 515 1033 q 651 1001 618 1033 q 685 919 685 968 q 651 838 685 871 q 567 806 618 806 z "},"ù":{"ha":847,"x_min":76,"x_max":771,"o":"m 424 -17 q 242 19 321 -17 q 120 122 164 56 q 76 275 76 189 l 76 711 l 306 711 l 306 301 q 338 212 306 246 q 424 178 371 178 q 509 212 476 178 q 542 301 542 246 l 542 711 l 771 711 l 771 275 q 727 122 771 189 q 605 19 683 56 q 424 -17 526 -17 m 356 806 l 183 1011 l 440 1011 l 515 806 l 356 806 z "},"ű":{"ha":847,"x_min":76,"x_max":771,"o":"m 424 -17 q 242 19 321 -17 q 120 122 164 56 q 76 275 76 189 l 76 711 l 306 711 l 306 301 q 338 212 306 246 q 424 178 371 178 q 509 212 476 178 q 542 301 542 246 l 542 711 l 771 711 l 771 275 q 727 122 771 189 q 605 19 683 56 q 424 -17 526 -17 m 272 1011 l 458 1011 l 371 806 l 197 806 l 272 1011 m 536 1011 l 736 1011 l 635 806 l 461 806 l 536 1011 z "},"ū":{"ha":847,"x_min":76,"x_max":771,"o":"m 424 -17 q 242 19 321 -17 q 120 122 164 56 q 76 275 76 189 l 76 711 l 306 711 l 306 301 q 338 212 306 246 q 424 178 371 178 q 509 212 476 178 q 542 301 542 246 l 542 711 l 771 711 l 771 275 q 727 122 771 189 q 605 19 683 56 q 424 -17 526 -17 m 224 1000 l 624 1000 l 624 831 l 224 831 l 224 1000 z "},"ų":{"ha":847,"x_min":76,"x_max":771,"o":"m 771 711 l 771 275 q 694 81 771 158 q 489 -12 618 4 q 463 -72 463 -44 q 475 -103 463 -93 q 508 -114 488 -114 q 536 -110 528 -114 l 556 -253 q 522 -260 547 -257 q 469 -264 496 -264 q 342 -224 390 -264 q 293 -119 293 -185 q 303 -63 293 -93 q 332 -8 314 -33 q 145 90 214 14 q 76 275 76 165 l 76 711 l 306 711 l 306 301 q 338 212 306 246 q 424 178 371 178 q 509 212 476 178 q 542 301 542 246 l 542 711 l 771 711 z "},"ů":{"ha":847,"x_min":76,"x_max":771,"o":"m 424 -17 q 242 19 321 -17 q 120 122 164 56 q 76 275 76 189 l 76 711 l 306 711 l 306 301 q 338 212 306 246 q 424 178 371 178 q 509 212 476 178 q 542 301 542 246 l 542 711 l 771 711 l 771 275 q 727 122 771 189 q 605 19 683 56 q 424 -17 526 -17 m 422 775 q 300 822 349 775 q 251 938 251 868 q 300 1053 251 1007 q 422 1100 349 1100 q 546 1053 497 1100 q 594 938 594 1007 q 546 822 594 868 q 422 775 497 775 m 422 882 q 465 897 449 882 q 482 938 482 913 q 465 978 482 963 q 422 993 449 993 q 381 978 397 993 q 364 938 364 963 q 381 897 364 913 q 422 882 397 882 z "},"ũ":{"ha":847,"x_min":76,"x_max":771,"o":"m 424 -17 q 242 19 321 -17 q 120 122 164 56 q 76 275 76 189 l 76 711 l 306 711 l 306 301 q 338 212 306 246 q 424 178 371 178 q 509 212 476 178 q 542 301 542 246 l 542 711 l 771 711 l 771 275 q 727 122 771 189 q 605 19 683 56 q 424 -17 526 -17 m 454 993 q 478 978 464 988 q 501 967 492 969 q 521 964 510 964 q 567 1038 558 964 l 722 1015 q 663 863 719 921 q 521 804 607 804 q 393 842 454 804 q 352 866 363 861 q 325 871 342 871 q 278 799 288 871 l 124 821 q 183 972 126 914 q 325 1031 239 1031 q 454 993 389 1031 z "},"v":{"ha":753,"x_min":10,"x_max":743,"o":"m 743 711 l 486 0 l 268 0 l 10 711 l 256 711 l 379 263 l 501 711 l 743 711 z "},"w":{"ha":1097,"x_min":10,"x_max":1088,"o":"m 10 711 l 239 711 l 335 297 l 460 640 l 638 640 l 764 297 l 858 711 l 1088 711 l 868 0 l 672 0 l 550 354 l 425 0 l 229 0 l 10 711 z "},"ẃ":{"ha":1097,"x_min":10,"x_max":1088,"o":"m 10 711 l 239 711 l 335 297 l 460 640 l 638 640 l 764 297 l 858 711 l 1088 711 l 868 0 l 672 0 l 550 354 l 425 0 l 229 0 l 10 711 m 519 1011 l 776 1011 l 604 806 l 444 806 l 519 1011 z "},"ŵ":{"ha":1097,"x_min":10,"x_max":1088,"o":"m 10 711 l 239 711 l 335 297 l 460 640 l 638 640 l 764 297 l 858 711 l 1088 711 l 868 0 l 672 0 l 550 354 l 425 0 l 229 0 l 10 711 m 649 1011 l 804 806 l 644 806 l 549 897 l 453 806 l 293 806 l 447 1011 l 649 1011 z "},"ẅ":{"ha":1097,"x_min":10,"x_max":1088,"o":"m 10 711 l 239 711 l 335 297 l 460 640 l 638 640 l 764 297 l 858 711 l 1088 711 l 868 0 l 672 0 l 550 354 l 425 0 l 229 0 l 10 711 m 401 806 q 318 838 350 806 q 286 919 286 871 q 318 1001 286 969 q 401 1033 350 1033 q 487 1001 454 1033 q 519 919 519 969 q 487 838 519 869 q 401 806 454 806 m 692 806 q 608 838 640 806 q 576 919 576 871 q 608 1001 576 969 q 692 1033 640 1033 q 776 1001 743 1033 q 810 919 810 968 q 776 838 810 871 q 692 806 743 806 z "},"ẁ":{"ha":1097,"x_min":10,"x_max":1088,"o":"m 10 711 l 239 711 l 335 297 l 460 640 l 638 640 l 764 297 l 858 711 l 1088 711 l 868 0 l 672 0 l 550 354 l 425 0 l 229 0 l 10 711 m 481 806 l 308 1011 l 565 1011 l 640 806 l 481 806 z "},"x":{"ha":747,"x_min":10,"x_max":738,"o":"m 486 0 l 372 182 l 260 0 l 10 0 l 251 356 l 15 711 l 261 711 l 369 535 l 483 711 l 728 711 l 492 365 l 738 0 l 486 0 z "},"y":{"ha":769,"x_min":10,"x_max":760,"o":"m 760 711 l 390 -247 l 167 -247 l 278 44 l 10 711 l 258 711 l 392 311 l 524 711 l 760 711 z "},"ý":{"ha":769,"x_min":10,"x_max":760,"o":"m 760 711 l 390 -247 l 167 -247 l 278 44 l 10 711 l 258 711 l 392 311 l 524 711 l 760 711 m 356 1011 l 613 1011 l 440 806 l 281 806 l 356 1011 z "},"ŷ":{"ha":769,"x_min":10,"x_max":760,"o":"m 760 711 l 390 -247 l 167 -247 l 278 44 l 10 711 l 258 711 l 392 311 l 524 711 l 760 711 m 485 1011 l 640 806 l 481 806 l 385 897 l 289 806 l 129 806 l 283 1011 l 485 1011 z "},"ÿ":{"ha":769,"x_min":10,"x_max":760,"o":"m 760 711 l 390 -247 l 167 -247 l 278 44 l 10 711 l 258 711 l 392 311 l 524 711 l 760 711 m 238 806 q 154 838 186 806 q 122 919 122 871 q 154 1001 122 969 q 238 1033 186 1033 q 323 1001 290 1033 q 356 919 356 969 q 323 838 356 869 q 238 806 290 806 m 528 806 q 444 838 476 806 q 413 919 413 871 q 444 1001 413 969 q 528 1033 476 1033 q 613 1001 579 1033 q 646 919 646 968 q 613 838 646 871 q 528 806 579 806 z "},"ỳ":{"ha":769,"x_min":10,"x_max":760,"o":"m 760 711 l 390 -247 l 167 -247 l 278 44 l 10 711 l 258 711 l 392 311 l 524 711 l 760 711 m 317 806 l 144 1011 l 401 1011 l 476 806 l 317 806 z "},"z":{"ha":724,"x_min":49,"x_max":668,"o":"m 49 175 l 379 522 l 74 522 l 74 711 l 654 711 l 654 536 l 326 189 l 668 189 l 668 0 l 49 0 l 49 175 z "},"ź":{"ha":724,"x_min":49,"x_max":668,"o":"m 49 175 l 379 522 l 74 522 l 74 711 l 654 711 l 654 536 l 326 189 l 668 189 l 668 0 l 49 0 l 49 175 m 358 1011 l 615 1011 l 443 806 l 283 806 l 358 1011 z "},"ž":{"ha":724,"x_min":49,"x_max":668,"o":"m 49 175 l 379 522 l 74 522 l 74 711 l 654 711 l 654 536 l 326 189 l 668 189 l 668 0 l 49 0 l 49 175 m 132 1011 l 292 1011 l 388 919 l 483 1011 l 643 1011 l 488 806 l 286 806 l 132 1011 z "},"ż":{"ha":724,"x_min":49,"x_max":668,"o":"m 49 175 l 379 522 l 74 522 l 74 711 l 654 711 l 654 536 l 326 189 l 668 189 l 668 0 l 49 0 l 49 175 m 386 796 q 291 835 329 796 q 253 929 253 874 q 291 1022 253 983 q 386 1061 329 1061 q 483 1022 444 1061 q 522 929 522 983 q 483 835 522 874 q 386 796 444 796 z "},"ª":{"ha":463,"x_min":21,"x_max":422,"o":"m 217 983 q 367 935 311 983 q 422 792 422 886 l 422 533 l 286 533 l 286 585 q 234 542 267 558 q 167 526 201 526 q 63 565 104 526 q 21 660 21 604 q 207 807 21 786 l 286 817 q 267 864 286 847 q 217 881 249 881 q 169 863 188 881 q 147 817 150 846 l 25 839 q 89 944 35 904 q 217 983 143 983 m 203 625 q 265 653 242 625 q 286 717 288 681 l 204 707 q 167 692 181 704 q 154 664 154 679 q 167 637 154 649 q 203 625 181 625 z "},"º":{"ha":514,"x_min":21,"x_max":493,"o":"m 257 526 q 135 556 189 526 q 51 638 82 586 q 21 756 21 690 q 51 872 21 819 q 135 953 82 924 q 257 983 189 983 q 378 953 325 983 q 463 872 432 924 q 493 756 493 819 q 463 638 493 690 q 378 556 432 586 q 257 526 325 526 m 257 647 q 326 676 300 647 q 351 756 351 706 q 326 834 351 804 q 257 864 300 864 q 188 834 214 864 q 163 756 163 804 q 188 676 163 706 q 257 647 214 647 z "},"π":{"ha":918,"x_min":21,"x_max":863,"o":"m 863 183 l 858 -14 l 799 -17 q 576 62 660 -17 q 493 275 493 140 l 493 526 l 371 526 l 371 0 l 149 0 l 149 526 l 21 526 l 21 711 l 832 711 l 832 526 l 722 526 l 722 307 q 749 214 722 246 q 826 182 775 182 l 863 183 z "},"¹":{"ha":342,"x_min":28,"x_max":294,"o":"z "},"²":{"ha":482,"x_min":28,"x_max":442,"o":"z "},"³":{"ha":494,"x_min":29,"x_max":461,"o":"z "},"⁄":{"ha":411,"x_min":-208,"x_max":619,"o":"m 442 972 l 619 972 l -31 0 l -208 0 l 442 972 z "},"½":{"ha":1263,"x_min":28,"x_max":1222,"o":"m 150 810 q 88 776 117 789 q 28 757 60 763 l 28 896 q 103 925 63 904 q 176 972 143 946 l 294 972 l 294 438 l 150 438 l 150 810 m 825 972 l 1003 972 l 353 0 l 175 0 l 825 972 m 818 119 l 975 246 q 1042 308 1019 281 q 1065 358 1065 336 q 1051 394 1065 381 q 1013 407 1036 407 q 974 387 989 407 q 958 332 958 367 l 960 315 l 810 325 q 808 344 808 332 q 837 442 808 397 q 912 514 865 488 q 1013 540 958 540 q 1164 489 1106 540 q 1222 358 1222 438 q 1088 163 1222 250 l 1042 133 l 1222 133 l 1222 0 l 821 0 l 818 119 z "},"¼":{"ha":1204,"x_min":28,"x_max":1178,"o":"m 150 810 q 88 776 117 789 q 28 757 60 763 l 28 896 q 103 925 63 904 q 176 972 143 946 l 294 972 l 294 438 l 150 438 l 150 810 m 825 972 l 1003 972 l 353 0 l 175 0 l 825 972 m 967 81 l 714 81 l 714 215 l 963 535 l 1125 535 l 1125 215 l 1178 215 l 1178 81 l 1125 81 l 1125 0 l 967 0 l 967 81 m 967 215 l 967 339 l 872 215 l 967 215 z "},"¾":{"ha":1315,"x_min":29,"x_max":1289,"o":"m 243 432 q 97 476 156 432 q 29 594 38 521 l 169 618 q 199 580 179 594 q 246 565 219 565 q 289 580 272 565 q 306 618 306 594 q 289 658 306 642 q 246 674 272 674 q 213 669 231 674 q 182 653 194 664 l 124 758 l 232 838 l 44 838 l 46 972 l 418 972 l 418 838 l 307 768 q 419 724 378 765 q 461 614 461 683 q 401 482 461 532 q 243 432 342 432 m 936 972 l 1114 972 l 464 0 l 286 0 l 936 972 m 1078 81 l 825 81 l 825 215 l 1074 535 l 1236 535 l 1236 215 l 1289 215 l 1289 81 l 1236 81 l 1236 0 l 1078 0 l 1078 81 m 1078 215 l 1078 339 l 983 215 l 1078 215 z "},"⅛":{"ha":1251,"x_min":28,"x_max":1214,"o":"m 150 810 q 88 776 117 789 q 28 757 60 763 l 28 896 q 103 925 63 904 q 176 972 143 946 l 294 972 l 294 438 l 150 438 l 150 810 m 825 972 l 1003 972 l 353 0 l 175 0 l 825 972 m 1010 -6 q 865 40 926 -6 q 803 163 803 86 q 827 240 803 206 q 892 288 851 274 q 845 331 863 303 q 828 393 828 358 q 851 466 828 432 q 917 520 875 500 q 1010 540 958 540 q 1140 497 1089 540 q 1190 393 1190 453 q 1173 330 1190 358 q 1126 288 1156 301 q 1190 240 1167 274 q 1214 163 1214 206 q 1154 40 1214 85 q 1010 -6 1094 -6 m 1010 346 q 1042 357 1029 346 q 1054 386 1054 368 q 1042 415 1054 404 q 1010 426 1029 426 q 978 415 990 426 q 965 386 965 404 q 978 357 965 368 q 1010 346 990 346 m 1010 118 q 1049 131 1035 118 q 1064 165 1064 144 q 1049 201 1064 188 q 1010 214 1035 214 q 969 201 985 214 q 954 165 954 188 q 969 131 954 144 q 1010 118 985 118 z "},"⅜":{"ha":1363,"x_min":29,"x_max":1325,"o":"m 243 432 q 97 476 156 432 q 29 594 38 521 l 169 618 q 199 580 179 594 q 246 565 219 565 q 289 580 272 565 q 306 618 306 594 q 289 658 306 642 q 246 674 272 674 q 213 669 231 674 q 182 653 194 664 l 124 758 l 232 838 l 44 838 l 46 972 l 418 972 l 418 838 l 307 768 q 419 724 378 765 q 461 614 461 683 q 401 482 461 532 q 243 432 342 432 m 936 972 l 1114 972 l 464 0 l 286 0 l 936 972 m 1121 -6 q 976 40 1038 -6 q 914 163 914 86 q 938 240 914 206 q 1003 288 963 274 q 956 331 974 303 q 939 393 939 358 q 963 466 939 432 q 1028 520 986 500 q 1121 540 1069 540 q 1251 497 1200 540 q 1301 393 1301 453 q 1284 330 1301 358 q 1238 288 1267 301 q 1301 240 1278 274 q 1325 163 1325 206 q 1265 40 1325 85 q 1121 -6 1206 -6 m 1121 346 q 1153 357 1140 346 q 1165 386 1165 368 q 1153 415 1165 404 q 1121 426 1140 426 q 1089 415 1101 426 q 1076 386 1076 404 q 1089 357 1076 368 q 1121 346 1101 346 m 1121 118 q 1160 131 1146 118 q 1175 165 1175 144 q 1160 201 1175 188 q 1121 214 1146 214 q 1081 201 1096 214 q 1065 165 1065 188 q 1081 131 1065 144 q 1121 118 1096 118 z "},"⅝":{"ha":1351,"x_min":36,"x_max":1314,"o":"m 242 432 q 105 473 161 432 q 36 582 49 514 l 176 607 q 236 565 194 565 q 277 581 261 565 q 293 621 293 596 q 276 659 293 644 q 232 674 260 674 q 194 665 210 674 q 161 638 178 657 l 47 661 l 94 972 l 406 972 l 406 839 l 206 839 l 190 760 q 228 785 208 778 q 281 792 249 792 q 401 744 354 792 q 449 621 449 696 q 392 483 449 535 q 242 432 336 432 m 925 972 l 1103 972 l 453 0 l 275 0 l 925 972 m 1110 -6 q 965 40 1026 -6 q 903 163 903 86 q 927 240 903 206 q 992 288 951 274 q 945 331 963 303 q 928 393 928 358 q 951 466 928 432 q 1017 520 975 500 q 1110 540 1058 540 q 1240 497 1189 540 q 1290 393 1290 453 q 1273 330 1290 358 q 1226 288 1256 301 q 1290 240 1267 274 q 1314 163 1314 206 q 1254 40 1314 85 q 1110 -6 1194 -6 m 1110 346 q 1142 357 1129 346 q 1154 386 1154 368 q 1142 415 1154 404 q 1110 426 1129 426 q 1078 415 1090 426 q 1065 386 1065 404 q 1078 357 1065 368 q 1110 346 1090 346 m 1110 118 q 1149 131 1135 118 q 1164 165 1164 144 q 1149 201 1164 188 q 1110 214 1135 214 q 1069 201 1085 214 q 1054 165 1054 188 q 1069 131 1054 144 q 1110 118 1085 118 z "},"⅞":{"ha":1240,"x_min":24,"x_max":1203,"o":"m 79 438 q 158 643 113 544 q 275 839 203 742 l 24 839 l 24 972 l 431 972 l 431 839 q 229 438 282 625 l 79 438 m 814 972 l 992 972 l 342 0 l 164 0 l 814 972 m 999 -6 q 853 40 915 -6 q 792 163 792 86 q 816 240 792 206 q 881 288 840 274 q 834 331 851 303 q 817 393 817 358 q 840 466 817 432 q 906 520 864 500 q 999 540 947 540 q 1128 497 1078 540 q 1179 393 1179 453 q 1162 330 1179 358 q 1115 288 1144 301 q 1179 240 1156 274 q 1203 163 1203 206 q 1143 40 1203 85 q 999 -6 1083 -6 m 999 346 q 1031 357 1018 346 q 1043 386 1043 368 q 1031 415 1043 404 q 999 426 1018 426 q 967 415 979 426 q 954 386 954 404 q 967 357 954 368 q 999 346 979 346 m 999 118 q 1038 131 1024 118 q 1053 165 1053 144 q 1038 201 1053 188 q 999 214 1024 214 q 958 201 974 214 q 943 165 943 188 q 958 131 943 144 q 999 118 974 118 z "},".":{"ha":429,"x_min":83,"x_max":346,"o":"m 214 -11 q 121 26 158 -11 q 83 118 83 63 q 121 210 83 174 q 214 247 158 247 q 308 210 271 247 q 346 118 346 174 q 308 26 346 63 q 214 -11 271 -11 z "},",":{"ha":421,"x_min":21,"x_max":379,"o":"m 122 221 l 379 221 l 168 -199 l 21 -199 l 122 221 z "},":":{"ha":429,"x_min":83,"x_max":346,"o":"m 214 467 q 121 503 158 467 q 83 596 83 540 q 121 688 83 651 q 214 725 158 725 q 308 688 271 725 q 346 596 346 651 q 308 503 346 540 q 214 467 271 467 m 214 -11 q 121 26 158 -11 q 83 118 83 63 q 121 210 83 174 q 214 247 158 247 q 308 210 271 247 q 346 118 346 174 q 308 26 346 63 q 214 -11 271 -11 z "},";":{"ha":447,"x_min":21,"x_max":379,"o":"m 122 221 l 379 221 l 168 -199 l 21 -199 l 122 221 m 242 467 q 149 503 186 467 q 111 596 111 540 q 149 688 111 651 q 242 725 186 725 q 336 688 299 725 q 374 596 374 651 q 336 503 374 540 q 242 467 299 467 z "},"…":{"ha":1288,"x_min":83,"x_max":1204,"o":"m 214 -11 q 121 26 158 -11 q 83 118 83 63 q 121 210 83 174 q 214 247 158 247 q 308 210 271 247 q 346 118 346 174 q 308 26 346 63 q 214 -11 271 -11 m 643 -11 q 550 26 588 -11 q 513 118 513 63 q 550 210 513 174 q 643 247 588 247 q 738 210 700 247 q 775 118 775 174 q 738 26 775 63 q 643 -11 700 -11 m 1072 -11 q 979 26 1017 -11 q 942 118 942 63 q 979 210 942 174 q 1072 247 1017 247 q 1167 210 1129 247 q 1204 118 1204 174 q 1167 26 1204 63 q 1072 -11 1129 -11 z "},"!":{"ha":443,"x_min":83,"x_max":360,"o":"m 83 972 l 357 972 l 313 347 l 129 347 l 83 972 m 228 -11 q 135 26 172 -11 q 97 118 97 63 q 135 210 97 174 q 228 247 172 247 q 322 210 285 247 q 360 118 360 174 q 322 26 360 63 q 228 -11 285 -11 z "},"¡":{"ha":443,"x_min":83,"x_max":360,"o":"m 228 719 q 322 683 285 719 q 360 590 360 646 q 322 498 360 535 q 228 461 285 461 q 135 498 172 461 q 97 590 97 535 q 135 683 97 646 q 228 719 172 719 m 313 361 l 357 -264 l 83 -264 l 129 361 l 313 361 z "},"?":{"ha":764,"x_min":42,"x_max":722,"o":"m 238 328 q 235 363 235 353 q 255 449 235 413 q 303 508 275 485 q 378 558 332 531 q 462 621 435 593 q 489 692 489 649 q 458 764 489 736 q 376 792 426 792 q 288 760 321 792 q 256 675 256 728 q 260 639 256 658 l 44 639 q 42 685 42 669 q 83 844 42 776 q 201 947 125 911 q 376 983 276 983 q 558 948 479 983 q 679 847 636 913 q 722 692 722 781 q 699 581 722 626 q 642 510 675 536 q 556 451 608 483 q 474 391 499 415 q 454 328 450 367 l 238 328 m 360 -11 q 267 26 304 -11 q 229 118 229 63 q 267 210 229 174 q 360 247 304 247 q 454 210 417 247 q 492 118 492 174 q 454 26 492 63 q 360 -11 417 -11 z "},"¿":{"ha":764,"x_min":42,"x_max":722,"o":"m 404 700 q 497 663 460 700 q 535 571 535 626 q 497 478 535 515 q 404 442 460 442 q 310 478 347 442 q 272 571 272 515 q 310 663 272 626 q 404 700 347 700 m 526 361 q 529 326 529 336 q 509 240 529 276 q 460 181 489 204 q 386 131 432 158 q 302 68 329 96 q 275 -3 275 40 q 306 -75 275 -47 q 388 -103 338 -103 q 476 -71 443 -103 q 508 14 508 -39 q 504 50 508 32 l 719 50 q 722 4 722 19 q 681 -155 722 -87 q 563 -258 639 -222 q 388 -294 488 -294 q 206 -259 285 -294 q 85 -158 128 -224 q 42 -3 42 -92 q 65 108 42 63 q 122 179 89 153 q 208 238 156 206 q 290 298 265 274 q 310 361 314 322 l 526 361 z "},"·":{"ha":413,"x_min":83,"x_max":346,"o":"m 214 393 q 121 430 158 393 q 83 522 83 467 q 121 615 83 578 q 214 651 158 651 q 308 615 271 651 q 346 522 346 578 q 308 430 346 467 q 214 393 271 393 z "},"•":{"ha":653,"x_min":49,"x_max":604,"o":"m 329 100 q 188 138 251 100 q 86 238 124 175 q 49 378 49 301 q 86 517 49 453 q 188 618 124 581 q 329 656 253 656 q 467 618 404 656 q 567 517 531 581 q 604 378 604 453 q 567 238 604 301 q 467 138 531 175 q 329 100 404 100 z "},"*":{"ha":688,"x_min":42,"x_max":646,"o":"m 479 639 l 586 500 l 451 400 l 343 547 l 235 400 l 100 500 l 207 639 l 42 688 l 90 849 l 261 794 l 258 972 l 429 972 l 426 794 l 597 849 l 646 688 l 479 639 z "},"#":{"ha":982,"x_min":42,"x_max":940,"o":"m 757 554 l 728 418 l 883 418 l 883 254 l 692 254 l 638 0 l 468 0 l 522 254 l 371 254 l 317 0 l 147 0 l 201 254 l 42 254 l 42 418 l 238 418 l 267 554 l 100 554 l 100 718 l 301 718 l 356 972 l 525 972 l 471 718 l 622 718 l 676 972 l 846 972 l 792 718 l 940 718 l 940 554 l 757 554 m 588 554 l 436 554 l 407 418 l 558 418 l 588 554 z "},"/":{"ha":704,"x_min":14,"x_max":690,"o":"m 450 972 l 690 972 l 253 -1 l 14 -1 l 450 972 z "},"\\":{"ha":704,"x_min":14,"x_max":690,"o":"m 451 -1 l 14 972 l 254 972 l 690 -1 l 451 -1 z "},"(":{"ha":536,"x_min":83,"x_max":494,"o":"m 339 -267 q 83 433 83 29 q 339 1131 83 839 l 494 1014 q 297 433 297 756 q 346 127 297 271 q 494 -149 394 -17 l 339 -267 z "},")":{"ha":536,"x_min":42,"x_max":453,"o":"m 42 -149 q 190 127 142 -17 q 239 433 239 271 q 42 1014 239 756 l 197 1131 q 453 433 453 839 q 197 -267 453 29 l 42 -149 z "},"{":{"ha":503,"x_min":42,"x_max":461,"o":"m 361 -229 q 218 -172 275 -229 q 161 -29 161 -115 l 161 263 q 131 345 161 319 q 42 371 101 371 l 42 567 q 131 592 101 567 q 161 675 161 618 l 161 967 q 218 1110 161 1053 q 361 1167 275 1167 l 461 1167 l 461 979 l 439 979 q 384 958 403 979 q 365 900 365 938 l 365 625 q 334 526 365 560 q 244 469 303 492 q 335 413 304 446 q 365 313 365 379 l 365 38 q 384 -21 365 0 q 439 -42 403 -42 l 461 -42 l 461 -229 l 361 -229 z "},"}":{"ha":503,"x_min":42,"x_max":461,"o":"m 42 -229 l 42 -42 l 64 -42 q 119 -21 100 -42 q 138 38 138 0 l 138 313 q 168 413 138 379 q 258 469 199 446 q 169 526 200 492 q 138 625 138 560 l 138 900 q 119 958 138 938 q 64 979 100 979 l 42 979 l 42 1167 l 142 1167 q 285 1110 228 1167 q 342 967 342 1053 l 342 675 q 372 592 342 618 q 461 567 401 567 l 461 371 q 372 345 401 371 q 342 263 342 319 l 342 -29 q 285 -172 342 -115 q 142 -229 228 -229 l 42 -229 z "},"[":{"ha":474,"x_min":83,"x_max":432,"o":"m 83 1158 l 432 1158 l 432 972 l 288 972 l 288 -51 l 432 -51 l 432 -237 l 83 -237 l 83 1158 z "},"]":{"ha":474,"x_min":42,"x_max":390,"o":"m 42 -237 l 42 -51 l 186 -51 l 186 972 l 42 972 l 42 1158 l 390 1158 l 390 -237 l 42 -237 z "},"-":{"ha":554,"x_min":35,"x_max":519,"o":"m 35 500 l 519 500 l 519 306 l 35 306 l 35 500 z "},"­":{"ha":554,"x_min":35,"x_max":519,"o":"m 35 500 l 519 500 l 519 306 l 35 306 l 35 500 z "},"–":{"ha":694,"x_min":28,"x_max":667,"o":"m 28 500 l 667 500 l 667 306 l 28 306 l 28 500 z "},"—":{"ha":1389,"x_min":28,"x_max":1361,"o":"m 28 500 l 1361 500 l 1361 306 l 28 306 l 28 500 z "},"_":{"ha":694,"x_min":28,"x_max":667,"o":"m 28 0 l 667 0 l 667 -194 l 28 -194 l 28 0 z "},"‚":{"ha":408,"x_min":21,"x_max":367,"o":"m 117 221 l 367 221 l 165 -182 l 21 -182 l 117 221 z "},"„":{"ha":725,"x_min":21,"x_max":683,"o":"m 433 221 l 683 221 l 482 -182 l 338 -182 l 433 221 m 117 221 l 367 221 l 165 -182 l 21 -182 l 117 221 z "},"“":{"ha":725,"x_min":42,"x_max":704,"o":"m 292 581 l 42 581 l 243 983 l 388 983 l 292 581 m 608 581 l 358 581 l 560 983 l 704 983 l 608 581 z "},"”":{"ha":711,"x_min":21,"x_max":683,"o":"m 117 983 l 367 983 l 165 581 l 21 581 l 117 983 m 433 983 l 683 983 l 482 581 l 338 581 l 433 983 z "},"‘":{"ha":408,"x_min":42,"x_max":388,"o":"m 292 581 l 42 581 l 243 983 l 388 983 l 292 581 z "},"’":{"ha":394,"x_min":21,"x_max":367,"o":"m 117 983 l 367 983 l 165 581 l 21 581 l 117 983 z "},"«":{"ha":883,"x_min":42,"x_max":800,"o":"m 399 628 l 204 431 l 399 233 l 288 118 l 42 368 l 42 494 l 274 743 l 399 628 m 800 628 l 606 431 l 800 233 l 689 118 l 443 368 l 443 494 l 675 743 l 800 628 z "},"»":{"ha":883,"x_min":83,"x_max":842,"o":"m 440 494 l 440 368 l 194 118 l 83 233 l 278 431 l 83 628 l 208 743 l 440 494 m 842 494 l 842 368 l 596 118 l 485 233 l 679 431 l 485 628 l 610 743 l 842 494 z "},"‹":{"ha":482,"x_min":42,"x_max":399,"o":"m 399 628 l 204 431 l 399 233 l 288 118 l 42 368 l 42 494 l 274 743 l 399 628 z "},"›":{"ha":482,"x_min":83,"x_max":440,"o":"m 440 494 l 440 368 l 194 118 l 83 233 l 278 431 l 83 628 l 208 743 l 440 494 z "},"\"":{"ha":632,"x_min":42,"x_max":590,"o":"m 42 983 l 279 983 l 229 581 l 92 581 l 42 983 m 353 983 l 590 983 l 540 581 l 403 581 l 353 983 z "},"'":{"ha":321,"x_min":42,"x_max":279,"o":"m 42 983 l 279 983 l 229 581 l 92 581 l 42 983 z "}," ":{"ha":331,"x_min":0,"x_max":0,"o":""},"¢":{"ha":811,"x_min":49,"x_max":763,"o":"m 419 178 q 498 205 467 178 q 539 278 529 232 l 760 232 q 681 76 746 139 q 513 -7 615 14 l 513 -137 l 319 -136 l 319 -7 q 123 120 197 22 q 49 356 49 218 q 123 591 49 493 q 319 718 197 689 l 319 836 l 513 836 l 513 718 q 683 631 618 696 q 763 465 749 565 l 542 422 q 501 503 535 472 q 419 533 467 533 q 320 485 358 533 q 282 356 282 436 q 320 226 282 275 q 419 178 358 178 z "},"¤":{"ha":904,"x_min":39,"x_max":865,"o":"m 783 508 q 743 343 783 415 l 865 221 l 732 89 l 610 213 q 450 176 538 176 q 293 211 365 176 l 172 89 l 39 221 l 158 340 q 118 508 118 414 q 154 667 118 597 l 39 783 l 171 915 l 286 800 q 450 839 360 839 q 617 799 543 839 l 733 915 l 865 783 l 747 664 q 783 508 783 596 m 450 336 q 568 383 524 336 q 613 508 613 431 q 568 633 613 586 q 450 681 524 681 q 331 633 375 681 q 288 508 288 586 q 331 383 288 431 q 450 336 375 336 z "},"$":{"ha":807,"x_min":21,"x_max":772,"o":"m 772 289 q 703 100 772 178 q 515 -4 635 22 l 515 -125 l 322 -124 l 322 -10 q 121 98 203 13 q 21 300 39 183 l 235 363 q 300 240 253 286 q 411 194 347 194 q 492 218 461 194 q 524 281 524 242 q 502 331 524 311 q 449 365 481 351 q 357 396 417 378 q 201 453 263 424 q 94 544 139 482 q 49 707 49 606 q 126 885 49 810 q 322 982 204 961 l 322 1097 l 515 1097 l 515 974 q 661 900 599 951 q 757 775 724 849 l 546 653 q 485 746 519 714 q 397 778 450 778 q 324 759 351 778 q 296 708 296 740 q 330 658 296 675 q 440 624 364 642 q 606 572 539 600 q 723 475 674 543 q 772 289 772 407 z "},"€":{"ha":1113,"x_min":39,"x_max":1079,"o":"m 626 194 q 757 240 703 194 q 825 357 811 285 l 1076 300 q 923 68 1042 153 q 628 -17 804 -17 q 338 67 464 -17 q 163 301 213 150 l 39 301 l 39 444 l 136 444 q 135 486 135 458 q 136 525 135 513 l 39 525 l 39 668 l 163 668 q 340 905 213 821 q 628 989 467 989 q 851 946 753 989 q 1008 824 949 903 q 1079 643 1068 746 l 833 593 q 760 727 818 675 q 626 779 703 779 q 510 751 563 779 q 426 668 458 724 l 725 668 l 683 525 l 385 525 q 383 486 383 513 q 385 444 383 458 l 654 444 l 614 301 l 428 301 q 512 221 460 247 q 626 194 564 194 z "},"ƒ":{"ha":685,"x_min":21,"x_max":664,"o":"m 581 826 q 488 729 500 826 l 485 711 l 647 711 l 647 536 l 461 536 l 421 253 q 329 53 401 122 q 136 -17 257 -17 q 21 3 75 -17 l 38 185 q 104 169 75 169 q 197 267 185 169 l 235 536 l 115 536 l 115 711 l 260 711 l 264 743 q 356 943 283 874 q 549 1013 428 1013 q 664 993 610 1013 l 647 811 q 581 826 610 826 z "},"£":{"ha":883,"x_min":42,"x_max":865,"o":"m 865 194 q 608 0 769 0 l 101 0 l 101 194 q 175 278 149 225 q 204 397 201 332 l 42 397 l 42 581 l 138 581 q 114 688 114 638 q 156 846 114 778 q 275 951 197 914 q 458 989 353 989 q 693 922 600 989 q 799 742 786 854 l 571 682 q 536 751 567 725 q 458 778 506 778 q 385 749 414 778 q 356 674 356 721 q 379 581 356 628 l 689 581 l 689 397 l 450 397 q 426 294 449 344 q 368 211 403 244 l 542 211 q 608 238 574 211 q 658 307 642 265 l 865 194 z "},"¥":{"ha":913,"x_min":7,"x_max":906,"o":"m 665 549 l 815 549 l 815 400 l 581 400 l 581 325 l 815 325 l 815 176 l 581 176 l 581 0 l 332 0 l 332 176 l 85 176 l 85 325 l 332 325 l 332 400 l 85 400 l 85 549 l 247 549 l 7 972 l 268 972 l 456 629 l 646 972 l 906 972 l 665 549 z "},"+":{"ha":778,"x_min":42,"x_max":736,"o":"m 736 343 l 486 343 l 486 93 l 292 93 l 292 343 l 42 343 l 42 538 l 292 538 l 292 788 l 486 788 l 486 538 l 736 538 l 736 343 z "},"−":{"ha":778,"x_min":42,"x_max":736,"o":"m 42 538 l 736 538 l 736 343 l 42 343 l 42 538 z "},"×":{"ha":832,"x_min":56,"x_max":776,"o":"m 576 442 l 776 242 l 617 82 l 417 282 l 215 82 l 56 242 l 256 442 l 56 642 l 215 801 l 417 601 l 617 801 l 776 642 l 576 442 z "},"÷":{"ha":778,"x_min":42,"x_max":736,"o":"m 42 538 l 736 538 l 736 343 l 42 343 l 42 538 m 389 633 q 296 670 333 633 q 258 763 258 707 q 296 855 258 818 q 389 892 333 892 q 483 855 446 892 q 521 763 521 818 q 483 670 521 707 q 389 633 446 633 m 389 -11 q 296 26 333 -11 q 258 118 258 63 q 296 210 258 174 q 389 247 333 247 q 483 210 446 247 q 521 118 521 174 q 483 26 521 63 q 389 -11 446 -11 z "},"=":{"ha":778,"x_min":42,"x_max":736,"o":"m 42 371 l 736 371 l 736 176 l 42 176 l 42 371 m 42 700 l 736 700 l 736 506 l 42 506 l 42 700 z "},"≠":{"ha":778,"x_min":42,"x_max":736,"o":"m 529 506 l 457 371 l 736 371 l 736 176 l 353 176 l 246 -25 l 96 50 l 163 176 l 42 176 l 42 371 l 267 371 l 339 506 l 42 506 l 42 700 l 442 700 l 532 869 l 683 794 l 633 700 l 736 700 l 736 506 l 529 506 z "},">":{"ha":778,"x_min":42,"x_max":736,"o":"m 42 247 l 433 403 l 42 558 l 42 792 l 736 494 l 736 311 l 42 14 l 42 247 z "},"<":{"ha":778,"x_min":42,"x_max":736,"o":"m 42 311 l 42 494 l 736 792 l 736 558 l 344 403 l 736 247 l 736 14 l 42 311 z "},"≥":{"ha":806,"x_min":69,"x_max":764,"o":"m 69 457 l 461 601 l 69 744 l 69 961 l 764 686 l 764 515 l 69 240 l 69 457 m 69 194 l 764 194 l 764 0 l 69 0 l 69 194 z "},"≤":{"ha":806,"x_min":42,"x_max":736,"o":"m 42 515 l 42 686 l 736 961 l 736 744 l 344 601 l 736 457 l 736 240 l 42 515 m 42 0 l 42 194 l 736 194 l 736 0 l 42 0 z "},"±":{"ha":778,"x_min":42,"x_max":736,"o":"m 736 542 l 486 542 l 486 292 l 292 292 l 292 542 l 42 542 l 42 736 l 292 736 l 292 986 l 486 986 l 486 736 l 736 736 l 736 542 m 42 0 l 42 194 l 736 194 l 736 0 l 42 0 z "},"≈":{"ha":885,"x_min":42,"x_max":843,"o":"m 42 506 q 122 706 49 629 q 308 782 196 782 q 479 729 397 782 q 508 711 486 725 q 544 692 529 697 q 576 686 560 686 q 653 788 636 686 l 843 760 q 763 560 836 636 q 576 483 689 483 q 406 536 488 483 q 377 554 399 540 q 340 574 356 568 q 308 579 325 579 q 232 478 249 579 l 42 506 m 42 167 q 122 367 49 290 q 308 443 196 443 q 479 390 397 443 q 508 372 486 386 q 544 353 529 358 q 576 347 560 347 q 653 449 636 347 l 843 421 q 763 221 836 297 q 576 144 689 144 q 406 197 488 144 q 377 215 399 201 q 340 235 356 229 q 308 240 325 240 q 232 139 249 240 l 42 167 z "},"~":{"ha":885,"x_min":42,"x_max":843,"o":"m 42 332 q 122 532 49 456 q 308 608 196 608 q 479 556 397 608 q 508 538 486 551 q 544 518 529 524 q 576 513 560 513 q 653 614 636 513 l 843 586 q 763 386 836 463 q 576 310 689 310 q 406 363 488 310 q 377 381 399 367 q 340 400 356 394 q 308 406 325 406 q 232 304 249 406 l 42 332 z "},"¬":{"ha":844,"x_min":56,"x_max":778,"o":"m 549 392 l 56 392 l 56 586 l 778 586 l 778 167 l 549 167 l 549 392 z "},"^":{"ha":857,"x_min":49,"x_max":808,"o":"m 333 972 l 524 972 l 808 560 l 588 560 l 429 781 l 269 560 l 49 560 l 333 972 z "},"∞":{"ha":1436,"x_min":83,"x_max":1353,"o":"m 1003 833 q 1184 790 1104 833 q 1308 672 1264 747 q 1353 499 1353 596 q 1308 326 1353 401 q 1184 207 1264 250 q 1003 164 1104 164 q 718 301 843 164 q 585 199 657 235 q 433 164 513 164 q 253 207 332 164 q 128 326 174 250 q 83 499 83 401 q 128 672 83 596 q 253 790 174 747 q 433 833 332 833 q 585 798 513 833 q 718 696 657 763 q 1003 833 843 833 m 433 386 q 518 415 475 386 q 596 499 561 444 q 518 582 561 553 q 433 611 475 611 q 341 582 372 611 q 310 499 310 553 q 341 415 310 444 q 433 386 372 386 m 1003 386 q 1095 415 1064 386 q 1126 499 1126 444 q 1095 582 1126 553 q 1003 611 1064 611 q 919 583 961 611 q 842 499 878 554 q 919 415 878 443 q 1003 386 961 386 z "},"∫":{"ha":676,"x_min":83,"x_max":593,"o":"m 147 -264 q 88 -261 115 -264 l 83 -64 q 119 -65 93 -65 q 197 -33 171 -65 q 224 60 224 -1 l 224 692 q 307 905 224 826 q 529 983 390 983 l 589 981 l 593 783 q 557 785 576 785 q 479 753 506 785 q 453 660 453 721 l 453 28 q 369 -185 453 -107 q 147 -264 286 -264 z "},"Ω":{"ha":1104,"x_min":83,"x_max":1021,"o":"m 1021 538 q 977 349 1021 432 q 854 211 933 267 l 1017 211 l 1017 0 l 647 0 l 647 285 q 736 393 701 326 q 771 524 771 460 q 713 709 771 640 q 553 778 654 778 q 392 709 451 778 q 333 524 333 640 q 368 392 333 458 q 458 285 403 326 l 458 0 l 88 0 l 88 211 l 254 211 q 128 349 174 267 q 83 538 83 432 q 144 769 83 665 q 313 931 206 872 q 554 989 421 989 q 794 931 688 989 q 960 769 900 872 q 1021 538 1021 665 z "},"∆":{"ha":1128,"x_min":83,"x_max":1044,"o":"m 1044 0 l 83 0 l 446 972 l 682 972 l 1044 0 m 718 206 l 564 649 l 411 206 l 718 206 z "},"∏":{"ha":979,"x_min":83,"x_max":896,"o":"m 83 972 l 896 972 l 896 0 l 643 0 l 643 761 l 338 761 l 338 0 l 83 0 l 83 972 z "},"∑":{"ha":835,"x_min":83,"x_max":751,"o":"m 83 197 l 357 486 l 83 775 l 83 972 l 751 972 l 751 761 l 389 761 l 581 578 l 581 394 l 388 211 l 751 211 l 751 0 l 83 0 l 83 197 z "},"√":{"ha":988,"x_min":83,"x_max":904,"o":"m 246 347 l 83 347 l 83 558 l 392 558 l 479 311 l 679 972 l 904 972 l 585 0 l 372 0 l 246 347 z "},"µ":{"ha":861,"x_min":83,"x_max":778,"o":"m 778 711 l 778 0 l 549 0 l 549 44 q 390 -17 485 -17 q 311 -6 351 -17 l 311 -264 l 83 -264 l 83 711 l 313 711 l 313 301 q 342 212 313 246 q 421 178 372 178 q 490 194 456 178 q 549 238 525 210 l 549 711 l 778 711 z "},"∂":{"ha":936,"x_min":83,"x_max":853,"o":"m 310 981 q 383 983 338 983 q 612 925 504 983 q 786 747 719 867 q 853 451 853 626 q 804 213 853 318 q 667 48 756 107 q 464 -11 578 -11 q 265 32 351 -11 q 131 151 179 75 q 83 319 83 226 q 126 499 83 422 q 241 617 168 576 q 403 658 314 658 q 532 638 479 658 q 619 574 585 617 q 540 718 606 664 q 375 772 475 772 q 310 768 342 772 l 310 981 m 460 200 q 560 240 521 200 q 599 339 599 279 q 560 437 599 399 q 460 475 521 475 q 363 438 401 475 q 324 342 324 400 q 362 240 324 281 q 460 200 400 200 z "},"%":{"ha":1089,"x_min":42,"x_max":1047,"o":"m 761 972 l 939 972 l 289 0 l 111 0 l 761 972 m 821 478 q 986 412 925 478 q 1047 233 1047 346 q 986 55 1047 121 q 821 -11 925 -11 q 654 55 715 -11 q 593 233 593 121 q 654 412 593 346 q 821 478 715 478 m 821 329 q 774 305 790 329 q 758 233 758 281 q 774 162 758 186 q 821 138 790 138 q 882 233 882 138 q 821 329 882 329 m 269 983 q 435 917 374 983 q 496 739 496 851 q 435 560 496 626 q 269 494 374 494 q 103 560 164 494 q 42 739 42 626 q 103 917 42 851 q 269 983 164 983 m 269 835 q 223 810 239 835 q 207 739 207 786 q 223 667 207 692 q 269 643 239 643 q 331 739 331 643 q 269 835 331 835 z "},"‰":{"ha":1401,"x_min":42,"x_max":1360,"o":"m 761 972 l 939 972 l 289 0 l 111 0 l 761 972 m 1133 478 q 1299 412 1238 478 q 1360 233 1360 346 q 1299 55 1360 121 q 1133 -11 1238 -11 q 967 55 1028 -11 q 906 233 906 121 q 967 412 906 346 q 1133 478 1028 478 m 1133 329 q 1087 305 1103 329 q 1071 233 1071 281 q 1087 162 1071 186 q 1133 138 1103 138 q 1194 233 1194 138 q 1133 329 1194 329 m 269 983 q 435 917 374 983 q 496 739 496 851 q 435 560 496 626 q 269 494 374 494 q 103 560 164 494 q 42 739 42 626 q 103 917 42 851 q 269 983 164 983 m 269 835 q 223 810 239 835 q 207 739 207 786 q 223 667 207 692 q 269 643 239 643 q 331 739 331 643 q 269 835 331 835 m 821 478 q 986 412 925 478 q 1047 233 1047 346 q 986 55 1047 121 q 821 -11 925 -11 q 654 55 715 -11 q 593 233 593 121 q 654 412 593 346 q 821 478 715 478 m 821 329 q 774 305 790 329 q 758 233 758 281 q 774 162 758 186 q 821 138 790 138 q 882 233 882 138 q 821 329 882 329 z "},"↑":{"ha":928,"x_min":42,"x_max":886,"o":"m 768 364 l 561 569 l 561 -28 l 367 -28 l 367 569 l 160 363 l 42 481 l 464 903 l 886 482 l 768 364 z "},"↗":{"ha":811,"x_min":42,"x_max":769,"o":"m 603 93 l 601 385 l 179 -37 l 42 100 l 464 522 l 171 522 l 171 689 l 768 689 l 769 93 l 603 93 z "},"→":{"ha":1014,"x_min":42,"x_max":972,"o":"m 972 375 l 551 -47 l 433 71 l 639 278 l 42 278 l 42 472 l 639 472 l 432 679 l 550 797 l 972 375 z "},"↘":{"ha":810,"x_min":42,"x_max":768,"o":"m 768 586 l 768 -11 l 172 -12 l 172 154 l 464 156 l 42 578 l 179 715 l 601 293 l 601 586 l 768 586 z "},"↓":{"ha":928,"x_min":42,"x_max":886,"o":"m 886 411 l 464 -11 l 42 410 l 160 528 l 367 322 l 367 919 l 561 919 l 561 322 l 768 529 l 886 411 z "},"↙":{"ha":810,"x_min":42,"x_max":768,"o":"m 346 156 l 638 154 l 638 -12 l 42 -11 l 42 586 l 208 586 l 208 293 l 631 715 l 768 578 l 346 156 z "},"←":{"ha":1014,"x_min":42,"x_max":972,"o":"m 972 278 l 375 278 l 581 71 l 463 -47 l 42 375 l 464 797 l 582 679 l 375 472 l 972 472 l 972 278 z "},"↖":{"ha":811,"x_min":42,"x_max":769,"o":"m 632 -37 l 210 385 l 208 93 l 42 93 l 43 689 l 640 689 l 640 522 l 347 522 l 769 100 l 632 -37 z "},"↔":{"ha":1494,"x_min":42,"x_max":1453,"o":"m 1453 375 l 1032 -47 l 914 71 l 1119 278 l 375 278 l 581 71 l 463 -47 l 42 375 l 464 797 l 582 679 l 375 472 l 1119 472 l 913 679 l 1031 797 l 1453 375 z "},"↕":{"ha":928,"x_min":42,"x_max":886,"o":"m 768 276 l 886 158 l 464 -264 l 42 157 l 160 275 l 367 69 l 367 814 l 160 608 l 42 726 l 464 1147 l 886 725 l 768 607 l 561 814 l 561 69 l 768 276 z "},"●":{"ha":1104,"x_min":49,"x_max":1056,"o":"m 554 -17 q 296 49 411 -17 q 115 228 181 114 q 49 486 49 343 q 115 744 49 629 q 296 924 181 858 q 554 989 411 989 q 810 924 696 989 q 990 744 925 858 q 1056 486 1056 629 q 990 228 1056 343 q 810 49 925 114 q 554 -17 696 -17 z "},"○":{"ha":1104,"x_min":49,"x_max":1056,"o":"m 551 -17 q 294 49 408 -17 q 114 228 179 114 q 49 486 49 343 q 114 744 49 629 q 294 924 179 858 q 551 989 408 989 q 809 924 694 989 q 990 744 924 858 q 1056 486 1056 629 q 990 228 1056 343 q 809 49 924 114 q 551 -17 694 -17 m 551 97 q 749 148 661 97 q 888 288 838 199 q 938 486 938 376 q 888 685 938 596 q 749 824 838 774 q 551 875 661 875 q 354 824 442 875 q 217 685 267 774 q 167 486 167 596 q 217 288 167 376 q 354 148 267 199 q 551 97 442 97 z "},"◊":{"ha":899,"x_min":83,"x_max":815,"o":"m 83 486 l 349 972 l 550 972 l 815 486 l 550 0 l 349 0 l 83 486 m 601 486 l 449 781 l 296 486 l 449 192 l 601 486 z "},"":{"ha":1161,"x_min":83,"x_max":1078,"o":"m 888 369 q 981 343 938 369 q 1051 273 1025 317 q 1078 178 1078 229 q 1052 84 1078 128 q 983 15 1026 40 q 888 -11 939 -11 q 792 15 836 -11 q 722 84 747 40 q 696 178 696 128 l 696 296 l 464 296 l 464 178 q 438 84 464 128 q 368 15 413 40 q 272 -11 324 -11 q 178 15 221 -11 q 109 83 135 40 q 83 178 83 126 q 109 274 83 229 q 178 344 135 318 q 272 369 222 369 l 390 369 l 390 601 l 272 601 q 178 627 222 601 q 109 697 135 653 q 83 793 83 742 q 109 888 83 844 q 178 958 135 932 q 272 983 222 983 q 367 957 324 983 q 438 887 411 931 q 464 793 464 843 l 464 675 l 696 675 l 696 793 q 722 887 696 843 q 792 957 749 931 q 888 983 836 983 q 983 958 939 983 q 1052 888 1026 932 q 1078 793 1078 844 q 1051 698 1078 742 q 981 628 1025 654 q 888 601 938 601 l 769 601 l 769 369 l 888 369 m 390 675 l 390 793 q 356 876 390 842 q 272 910 321 910 q 191 876 225 910 q 157 793 157 842 q 191 710 157 744 q 272 675 225 675 l 390 675 m 769 675 l 888 675 q 970 710 936 675 q 1004 793 1004 744 q 970 876 1004 842 q 888 910 936 910 q 804 876 839 910 q 769 793 769 842 l 769 675 m 696 369 l 696 601 l 464 601 l 464 369 l 696 369 m 390 296 l 272 296 q 191 261 225 296 q 157 178 157 226 q 191 97 157 131 q 272 63 225 63 q 356 97 321 63 q 390 178 390 131 l 390 296 m 888 63 q 970 97 936 63 q 1004 178 1004 131 q 970 261 1004 226 q 888 296 936 296 l 769 296 l 769 178 q 804 97 769 131 q 888 63 839 63 z "},"@":{"ha":1279,"x_min":49,"x_max":1231,"o":"m 907 638 l 907 326 q 922 279 907 297 q 961 261 938 261 q 1025 309 1000 261 q 1050 440 1050 357 q 1001 624 1050 547 q 865 741 953 701 q 665 781 778 781 q 438 730 536 781 q 284 587 339 679 q 229 375 229 494 q 283 156 229 251 q 435 7 338 60 q 660 -46 533 -46 q 856 -22 763 -46 q 1060 60 949 3 l 1060 -129 q 663 -221 892 -221 q 346 -144 486 -221 q 127 69 206 -67 q 49 375 49 206 q 128 672 49 539 q 349 880 208 804 q 665 956 490 956 q 954 889 825 956 q 1157 704 1083 822 q 1231 440 1231 586 q 1194 253 1231 332 q 1094 133 1158 174 q 947 92 1029 92 q 839 113 885 92 q 769 178 793 135 q 705 124 746 143 q 608 104 664 104 q 426 177 494 104 q 357 375 357 250 q 423 573 357 500 q 600 646 489 646 q 735 596 688 646 l 735 638 l 907 638 m 635 500 q 556 465 586 500 q 525 375 525 431 q 556 285 525 319 q 635 250 586 250 q 735 319 708 250 l 735 431 q 695 481 721 463 q 635 500 669 500 z "},"&":{"ha":968,"x_min":42,"x_max":947,"o":"m 665 0 l 606 68 q 365 -17 486 -17 q 129 64 217 -17 q 42 282 42 144 q 83 431 42 368 q 194 540 124 493 q 149 628 163 588 q 135 713 135 668 q 174 853 135 790 q 281 953 213 917 q 433 989 350 989 q 582 953 515 989 q 692 861 649 918 q 751 740 736 804 l 543 685 q 501 760 531 725 q 425 796 472 796 q 368 774 393 796 q 343 719 343 753 q 360 666 343 692 q 396 621 378 640 q 421 593 414 601 l 615 374 l 740 508 l 911 364 l 763 208 l 947 0 l 665 0 m 385 196 q 465 226 424 196 l 333 378 q 278 293 278 333 q 306 222 278 249 q 385 196 333 196 z "},"¶":{"ha":1039,"x_min":42,"x_max":997,"o":"m 389 297 q 215 342 294 297 q 88 465 135 388 q 42 635 42 543 q 88 804 42 726 q 215 927 135 882 q 389 972 294 972 l 997 972 l 997 778 l 907 778 l 907 -253 l 711 -253 l 711 778 l 585 778 l 585 -253 l 389 -253 l 389 297 z "},"§":{"ha":829,"x_min":42,"x_max":774,"o":"m 706 194 q 774 18 774 129 q 728 -129 774 -65 q 601 -228 682 -193 q 418 -264 521 -264 q 242 -224 324 -264 q 107 -111 160 -185 q 42 60 54 -37 l 268 60 q 312 -31 271 7 q 418 -68 353 -68 q 519 -44 481 -68 q 557 18 557 -21 q 517 78 557 57 q 390 122 476 99 q 240 174 299 149 q 140 250 182 199 q 97 383 97 301 q 168 538 97 471 q 97 724 97 606 q 139 859 97 799 q 253 954 181 919 q 415 989 325 989 q 576 958 500 989 q 702 864 651 926 q 761 711 753 801 l 550 711 q 505 771 542 744 q 415 797 468 797 q 335 778 367 797 q 304 728 304 758 q 350 655 304 679 q 492 606 396 631 q 638 558 582 581 q 733 488 693 535 q 774 365 774 442 q 706 194 774 267 m 304 408 q 327 356 304 376 q 384 322 350 335 q 481 293 418 310 l 529 281 q 557 338 557 306 q 519 394 557 375 q 400 433 482 413 l 326 453 q 304 408 304 428 z "},"©":{"ha":1104,"x_min":49,"x_max":1056,"o":"m 551 -17 q 294 49 408 -17 q 114 228 179 114 q 49 486 49 343 q 114 744 49 629 q 294 924 179 858 q 551 989 408 989 q 809 924 694 989 q 990 744 924 858 q 1056 486 1056 629 q 990 228 1056 343 q 809 49 924 114 q 551 -17 694 -17 m 551 97 q 749 148 661 97 q 888 288 838 199 q 938 486 938 376 q 888 685 938 596 q 749 824 838 774 q 551 875 661 875 q 354 824 442 875 q 217 685 267 774 q 167 486 167 596 q 217 288 167 376 q 354 148 267 199 q 551 97 442 97 m 546 753 q 714 702 647 753 q 788 567 781 651 l 646 538 q 613 604 640 579 q 544 629 585 629 q 459 592 492 629 q 426 493 426 554 q 458 394 426 431 q 544 357 490 357 q 611 379 585 357 q 642 438 638 401 l 786 407 q 705 280 768 325 q 546 235 642 235 q 356 306 428 235 q 283 493 283 376 q 317 628 283 569 q 410 720 350 688 q 546 753 469 753 z "},"®":{"ha":1104,"x_min":49,"x_max":1056,"o":"m 551 -17 q 294 49 408 -17 q 114 228 179 114 q 49 486 49 343 q 114 744 49 629 q 294 924 179 858 q 551 989 408 989 q 809 924 694 989 q 990 744 924 858 q 1056 486 1056 629 q 990 228 1056 343 q 809 49 924 114 q 551 -17 694 -17 m 551 97 q 749 148 661 97 q 888 288 838 199 q 938 486 938 376 q 888 685 938 596 q 749 824 838 774 q 551 875 661 875 q 354 824 442 875 q 217 685 267 774 q 167 486 167 596 q 217 288 167 376 q 354 148 267 199 q 551 97 442 97 m 628 258 l 529 442 l 482 442 l 482 258 l 357 258 l 356 749 l 557 749 q 675 707 631 749 q 719 594 719 665 q 702 523 719 556 q 654 469 685 490 l 775 258 l 628 258 m 482 549 l 535 549 q 578 561 563 549 q 594 594 594 574 q 578 629 594 617 q 535 642 563 642 l 482 642 l 482 549 z "},"℗":{"ha":1104,"x_min":49,"x_max":1056,"o":"m 551 -17 q 294 49 408 -17 q 114 228 179 114 q 49 486 49 343 q 114 744 49 629 q 294 924 179 858 q 551 989 408 989 q 809 924 694 989 q 990 744 924 858 q 1056 486 1056 629 q 990 228 1056 343 q 809 49 924 114 q 551 -17 694 -17 m 551 97 q 749 148 661 97 q 888 288 838 199 q 938 486 938 376 q 888 685 938 596 q 749 824 838 774 q 551 875 661 875 q 354 824 442 875 q 217 685 267 774 q 167 486 167 596 q 217 288 167 376 q 354 148 267 199 q 551 97 442 97 m 510 431 l 510 258 l 385 258 l 383 749 l 578 749 q 699 704 651 749 q 747 589 747 660 q 699 474 747 518 q 578 431 651 431 l 510 431 m 510 538 l 563 538 q 606 551 590 538 q 622 589 622 565 q 606 628 622 614 q 563 642 590 642 l 510 642 l 510 538 z "},"™":{"ha":1129,"x_min":42,"x_max":1088,"o":"m 175 851 l 42 851 l 42 972 l 454 972 l 454 851 l 319 851 l 319 486 l 175 486 l 175 851 m 524 972 l 669 972 l 776 740 l 888 972 l 1031 972 l 1088 486 l 951 486 l 919 756 l 828 549 l 728 549 l 633 756 l 603 486 l 468 486 l 524 972 z "},"°":{"ha":507,"x_min":42,"x_max":465,"o":"m 253 583 q 145 610 193 583 q 69 683 97 636 q 42 788 42 731 q 69 892 42 844 q 145 965 97 939 q 253 992 193 992 q 361 965 313 992 q 438 892 410 939 q 465 788 465 844 q 438 683 465 731 q 361 610 410 636 q 253 583 313 583 m 253 713 q 304 733 285 713 q 324 788 324 754 q 304 842 324 821 q 253 863 285 863 q 201 842 221 863 q 182 788 182 821 q 201 733 182 754 q 253 713 221 713 z "},"|":{"ha":415,"x_min":83,"x_max":332,"o":"m 83 1042 l 332 1042 l 332 -69 l 83 -69 l 83 1042 z "},"¦":{"ha":415,"x_min":83,"x_max":332,"o":"m 83 1042 l 332 1042 l 332 557 l 83 557 l 83 1042 m 83 415 l 332 415 l 332 -69 l 83 -69 l 83 415 z "},"†":{"ha":621,"x_min":42,"x_max":579,"o":"m 207 624 l 42 624 l 42 783 l 207 783 l 207 972 l 415 972 l 415 783 l 579 783 l 579 624 l 415 624 l 415 250 l 207 250 l 207 624 z "},"‡":{"ha":621,"x_min":42,"x_max":579,"o":"m 415 624 l 415 349 l 579 349 l 579 189 l 415 189 l 415 0 l 207 0 l 207 189 l 42 189 l 42 349 l 207 349 l 207 624 l 42 624 l 42 783 l 207 783 l 207 972 l 415 972 l 415 783 l 579 783 l 579 624 l 415 624 z "},"№":{"ha":1782,"x_min":83,"x_max":1699,"o":"m 83 972 l 325 972 l 668 392 l 668 972 l 897 972 l 897 0 l 656 0 l 313 581 l 313 0 l 83 0 l 83 972 m 1325 244 q 1133 293 1218 244 q 999 426 1047 342 q 951 617 951 511 q 999 807 951 722 q 1133 940 1047 892 q 1325 989 1218 989 q 1517 940 1432 989 q 1651 807 1603 892 q 1699 617 1699 722 q 1651 426 1699 511 q 1517 293 1603 342 q 1325 244 1432 244 m 1325 439 q 1430 488 1390 439 q 1469 617 1469 536 q 1430 746 1469 697 q 1325 794 1390 794 q 1220 746 1260 794 q 1181 617 1181 697 q 1220 488 1181 536 q 1325 439 1260 439 m 999 194 l 1638 194 l 1638 0 l 999 0 l 999 194 z "},"̈":{"ha":0,"x_min":-593,"x_max":-69,"o":"m -478 806 q -561 838 -529 806 q -593 919 -593 871 q -561 1001 -593 969 q -478 1033 -529 1033 q -392 1001 -425 1033 q -360 919 -360 969 q -392 838 -360 869 q -478 806 -425 806 m -187 806 q -271 838 -239 806 q -303 919 -303 871 q -271 1001 -303 969 q -187 1033 -239 1033 q -103 1001 -136 1033 q -69 919 -69 968 q -103 838 -69 871 q -187 806 -136 806 z "},"̇":{"ha":0,"x_min":-339,"x_max":-69,"o":"m -206 796 q -301 835 -262 796 q -339 929 -339 874 q -301 1022 -339 983 q -206 1061 -262 1061 q -108 1022 -147 1061 q -69 929 -69 983 q -108 835 -69 874 q -206 796 -147 796 z "},"̀":{"ha":0,"x_min":-401,"x_max":-69,"o":"m -229 806 l -401 1011 l -144 1011 l -69 806 l -229 806 z "},"́":{"ha":0,"x_min":-401,"x_max":-69,"o":"m -326 1011 l -69 1011 l -242 806 l -401 806 l -326 1011 z "},"̋":{"ha":0,"x_min":-608,"x_max":-69,"o":"m -533 1011 l -347 1011 l -435 806 l -608 806 l -533 1011 m -269 1011 l -69 1011 l -171 806 l -344 806 l -269 1011 z "},"̂":{"ha":0,"x_min":-581,"x_max":-69,"o":"m -225 1011 l -69 806 l -229 806 l -325 897 l -421 806 l -581 806 l -426 1011 l -225 1011 z "},"̌":{"ha":0,"x_min":-581,"x_max":-69,"o":"m -581 1011 l -421 1011 l -325 919 l -229 1011 l -69 1011 l -225 806 l -426 806 l -581 1011 z "},"̆":{"ha":0,"x_min":-482,"x_max":-69,"o":"m -276 801 q -424 858 -365 801 q -482 1000 -482 914 l -321 1000 q -276 942 -321 942 q -242 957 -254 942 q -231 1000 -231 972 l -69 1000 q -128 858 -69 914 q -276 801 -187 801 z "},"̊":{"ha":0,"x_min":-412,"x_max":-69,"o":"m -242 775 q -364 822 -315 775 q -412 938 -412 868 q -364 1053 -412 1007 q -242 1100 -315 1100 q -118 1053 -167 1100 q -69 938 -69 1007 q -118 822 -69 868 q -242 775 -167 775 m -242 882 q -199 897 -215 882 q -182 938 -182 913 q -199 978 -182 963 q -242 993 -215 993 q -283 978 -267 993 q -300 938 -300 963 q -283 897 -300 913 q -242 882 -267 882 z "},"̃":{"ha":0,"x_min":-668,"x_max":-69,"o":"m -337 993 q -314 978 -328 988 q -291 967 -300 969 q -271 964 -282 964 q -225 1038 -233 964 l -69 1015 q -128 863 -72 921 q -271 804 -185 804 q -399 842 -337 804 q -440 866 -429 861 q -467 871 -450 871 q -514 799 -504 871 l -668 821 q -609 972 -665 914 q -467 1031 -553 1031 q -337 993 -403 1031 z "},"̄":{"ha":0,"x_min":-469,"x_max":-69,"o":"m -469 1000 l -69 1000 l -69 831 l -469 831 l -469 1000 z "},"̒":{"ha":0,"x_min":-337,"x_max":-69,"o":"m -103 806 l -337 806 l -247 1011 l -69 1011 l -103 806 z "},"̦":{"ha":0,"x_min":-360,"x_max":-69,"o":"m -312 -58 l -69 -58 l -200 -264 l -360 -264 l -312 -58 z "},"̧":{"ha":0,"x_min":-404,"x_max":-69,"o":"m -147 -206 l -404 -206 l -190 49 l -69 0 l -147 -206 z "},"̨":{"ha":0,"x_min":-332,"x_max":-69,"o":"m -156 -264 q -283 -224 -235 -264 q -332 -119 -332 -185 q -315 -49 -332 -86 q -272 15 -299 -11 l -126 0 q -153 -37 -143 -21 q -162 -72 -162 -53 q -150 -103 -162 -93 q -117 -114 -137 -114 q -89 -110 -97 -114 l -69 -253 q -103 -260 -78 -257 q -156 -264 -129 -264 z "},"´":{"ha":471,"x_min":69,"x_max":401,"o":"m 144 1011 l 401 1011 l 229 806 l 69 806 l 144 1011 z "},"˘":{"ha":551,"x_min":69,"x_max":482,"o":"m 275 801 q 128 858 186 801 q 69 1000 69 914 l 231 1000 q 275 942 231 942 q 309 957 297 942 q 321 1000 321 972 l 482 1000 q 423 858 482 914 q 275 801 364 801 z "},"ˇ":{"ha":650,"x_min":69,"x_max":581,"o":"m 69 1011 l 229 1011 l 325 919 l 421 1011 l 581 1011 l 425 806 l 224 806 l 69 1011 z "},"¸":{"ha":474,"x_min":69,"x_max":404,"o":"m 326 -206 l 69 -206 l 283 49 l 404 0 l 326 -206 z "},"ˆ":{"ha":650,"x_min":69,"x_max":581,"o":"m 425 1011 l 581 806 l 421 806 l 325 897 l 229 806 l 69 806 l 224 1011 l 425 1011 z "},"¨":{"ha":663,"x_min":69,"x_max":593,"o":"m 185 806 q 101 838 133 806 q 69 919 69 871 q 101 1001 69 969 q 185 1033 133 1033 q 270 1001 238 1033 q 303 919 303 969 q 270 838 303 869 q 185 806 238 806 m 475 806 q 392 838 424 806 q 360 919 360 871 q 392 1001 360 969 q 475 1033 424 1033 q 560 1001 526 1033 q 593 919 593 968 q 560 838 593 871 q 475 806 526 806 z "},"˙":{"ha":408,"x_min":69,"x_max":339,"o":"m 203 796 q 108 835 146 796 q 69 929 69 874 q 108 1022 69 983 q 203 1061 146 1061 q 300 1022 261 1061 q 339 929 339 983 q 300 835 339 874 q 203 796 261 796 z "},"`":{"ha":471,"x_min":69,"x_max":401,"o":"m 242 806 l 69 1011 l 326 1011 l 401 806 l 242 806 z "},"˝":{"ha":678,"x_min":69,"x_max":608,"o":"m 144 1011 l 331 1011 l 243 806 l 69 806 l 144 1011 m 408 1011 l 608 1011 l 507 806 l 333 806 l 408 1011 z "},"¯":{"ha":539,"x_min":69,"x_max":469,"o":"m 69 1000 l 469 1000 l 469 831 l 69 831 l 69 1000 z "},"˛":{"ha":401,"x_min":69,"x_max":332,"o":"m 246 -264 q 118 -224 167 -264 q 69 -119 69 -185 q 86 -49 69 -86 q 129 15 103 -11 l 275 0 q 249 -37 258 -21 q 239 -72 239 -53 q 251 -103 239 -93 q 285 -114 264 -114 q 313 -110 304 -114 l 332 -253 q 298 -260 324 -257 q 246 -264 272 -264 z "},"˚":{"ha":482,"x_min":69,"x_max":413,"o":"m 240 775 q 118 822 167 775 q 69 938 69 868 q 118 1053 69 1007 q 240 1100 167 1100 q 364 1053 315 1100 q 413 938 413 1007 q 364 822 413 868 q 240 775 315 775 m 240 882 q 283 897 267 882 q 300 938 300 913 q 283 978 300 963 q 240 993 267 993 q 199 978 215 993 q 182 938 182 963 q 199 897 182 913 q 240 882 215 882 z "},"˜":{"ha":738,"x_min":69,"x_max":668,"o":"m 400 993 q 424 978 410 988 q 447 967 438 969 q 467 964 456 964 q 513 1038 504 964 l 668 1015 q 609 863 665 921 q 467 804 553 804 q 339 842 400 804 q 298 866 308 861 q 271 871 288 871 q 224 799 233 871 l 69 821 q 128 972 72 914 q 271 1031 185 1031 q 400 993 335 1031 z "}}}
